SourceCodePro_0.ufo
<glyph name="numbersign" format="1">
  <advance width="600"/>
  <unicode hex="0023"/>
  <outline>
    <contour>
      <point x="342.0" y="0.0" type="line"/>
      <point x="370.0" y="0.0" type="line"/>
      <point x="450.0" y="650.0" type="line"/>
      <point x="422.0" y="650.0" type="line"/>
    </contour>
    <contour>
      <point x="158" y="0" type="line"/>
      <point x="186.0" y="0.0" type="line"/>
      <point x="266.0" y="650.0" type="line"/>
      <point x="238.0" y="650.0" type="line"/>
    </contour>
    <contour>
      <point x="120" y="424" type="line"/>
      <point x="506" y="424" type="line"/>
      <point x="506" y="452" type="line"/>
      <point x="120" y="452" type="line"/>
    </contour>
    <contour>
      <point x="100" y="218" type="line"/>
      <point x="486" y="218" type="line"/>
      <point x="486" y="246" type="line"/>
      <point x="100" y="246" type="line"/>
    </contour>
  </outline>
</glyph>
<glyph name="less" format="1">
  <advance width="600"/>
  <unicode hex="003C"/>
  <outline>
    <contour>
      <point x="486" y="62" type="line"/>
      <point x="486" y="98" type="line"/>
      <point x="156" y="330" type="line"/>
      <point x="156" y="334" type="line"/>
      <point x="486" y="566" type="line"/>
      <point x="486" y="602" type="line"/>
      <point x="124" y="348" type="line"/>
      <point x="124" y="316" type="line"/>
    </contour>
  </outline>
</glyph>
<glyph name="H" format="1">
	<unicode hex="0048"/>
	<advance width="600"/>
	<outline>
		<contour>
			<point x="92" y="0" type="line"/>
			<point x="124" y="0" type="line"/>
			<point x="124" y="338" type="line"/>
			<point x="476" y="338" type="line"/>
			<point x="476" y="0" type="line"/>
			<point x="508" y="0" type="line"/>
			<point x="508" y="660" type="line"/>
			<point x="476" y="660" type="line"/>
			<point x="476" y="366" type="line"/>
			<point x="124" y="366" type="line"/>
			<point x="124" y="660" type="line"/>
			<point x="92" y="660" type="line"/>
		</contour>
		<contour>
			<point name="aboveUC" x="300" y="680" type="move"/>
		</contour>
		<contour>
			<point name="belowLC" x="300" y="-20" type="move"/>
		</contour>
		<contour>
			<point name="baseLC" x="108" y="0" type="move"/>
		</contour>
	</outline>
</glyph>
<glyph name="I" format="1">
  <advance width="600"/>
  <unicode hex="0049"/>
  <outline>
    <contour>
      <point x="112" y="0" type="line"/>
      <point x="488" y="0" type="line"/>
      <point x="488" y="28" type="line"/>
      <point x="316" y="28" type="line"/>
      <point x="316" y="632" type="line"/>
      <point x="488" y="632" type="line"/>
      <point x="488" y="660" type="line"/>
      <point x="112" y="660" type="line"/>
      <point x="112" y="632" type="line"/>
      <point x="284" y="632" type="line"/>
      <point x="284" y="28" type="line"/>
      <point x="112" y="28" type="line"/>
    </contour>
    <contour>
      <point x="300" y="680" type="move" name="aboveUC"/>
    </contour>
    <contour>
      <point x="300" y="-20" type="move" name="belowLC"/>
    </contour>
    <contour>
      <point x="274" y="0" type="move" name="ogonekUC"/>
    </contour>
    <contour>
      <point x="300" y="0" type="move" name="baseLC"/>
    </contour>
  </outline>
</glyph>
<glyph name="M" format="1">
  <advance width="600"/>
  <unicode hex="004D"/>
  <outline>
    <contour>
      <point x="84" y="0" type="line"/>
      <point x="115" y="0" type="line"/>
      <point x="115" y="495" type="line" smooth="yes"/>
      <point x="115" y="536"/>
      <point x="112" y="582"/>
      <point x="111" y="623" type="curve"/>
      <point x="113" y="623" type="line"/>
      <point x="152" y="516" type="line"/>
      <point x="286" y="176" type="line"/>
      <point x="313" y="176" type="line"/>
      <point x="448" y="516" type="line"/>
      <point x="484" y="623" type="line"/>
      <point x="487" y="623" type="line"/>
      <point x="486" y="582"/>
      <point x="484" y="536"/>
      <point x="484" y="495" type="curve" smooth="yes"/>
      <point x="484" y="0" type="line"/>
      <point x="516" y="0" type="line"/>
      <point x="516" y="660" type="line"/>
      <point x="470" y="660" type="line"/>
      <point x="344" y="340" type="line"/>
      <point x="302" y="222" type="line"/>
      <point x="298" y="222" type="line"/>
      <point x="254" y="340" type="line"/>
      <point x="130" y="660" type="line"/>
      <point x="84" y="660" type="line"/>
    </contour>
    <contour>
      <point x="300" y="680" type="move" name="aboveUC"/>
    </contour>
    <contour>
      <point x="300" y="-20" type="move" name="belowLC"/>
    </contour>
    <contour>
      <point x="482" y="0" type="move" name="baseLC"/>
    </contour>
  </outline>
</glyph>
<glyph name="O" format="1">
	<unicode hex="004F"/>
	<advance width="600"/>
	<outline>
		<contour>
			<point x="300" y="-12" type="curve" smooth="yes"/>
			<point x="442" y="-12"/>
			<point x="544" y="124"/>
			<point x="544" y="332" type="curve" smooth="yes"/>
			<point x="544" y="540"/>
			<point x="442" y="672"/>
			<point x="300" y="672" type="curve" smooth="yes"/>
			<point x="158" y="672"/>
			<point x="56" y="540"/>
			<point x="56" y="332" type="curve" smooth="yes"/>
			<point x="56" y="124"/>
			<point x="158" y="-12"/>
		</contour>
		<contour>
			<point x="300" y="18" type="curve" smooth="yes"/>
			<point x="175" y="18"/>
			<point x="90" y="142"/>
			<point x="90" y="332" type="curve" smooth="yes"/>
			<point x="90" y="522"/>
			<point x="175" y="642"/>
			<point x="300" y="642" type="curve" smooth="yes"/>
			<point x="425" y="642"/>
			<point x="510" y="522"/>
			<point x="510" y="332" type="curve" smooth="yes"/>
			<point x="510" y="142"/>
			<point x="425" y="18"/>
		</contour>
		<contour>
			<point name="aboveUC" x="300" y="680" type="move"/>
		</contour>
		<contour>
			<point name="belowLC" x="300" y="-20" type="move"/>
		</contour>
		<contour>
			<point name="hornLC" x="416" y="650" type="move"/>
		</contour>
		<contour>
			<point name="baseLC" x="300" y="0" type="move"/>
		</contour>
		<contour>
			<point name="ogonekUC" x="300" y="0" type="move"/>
		</contour>
	</outline>
</glyph>
<glyph name="bracketright" format="1">
  <advance width="600"/>
  <unicode hex="005D"/>
  <outline>
    <contour>
      <point x="94" y="-152" type="line"/>
      <point x="354" y="-152" type="line"/>
      <point x="354" y="708" type="line"/>
      <point x="94" y="708" type="line"/>
      <point x="94" y="686" type="line"/>
      <point x="326" y="686" type="line"/>
      <point x="326" y="-130" type="line"/>
      <point x="94" y="-130" type="line"/>
    </contour>
  </outline>
</glyph>
<glyph name="underscore" format="1">
  <advance width="600"/>
  <unicode hex="005F"/>
  <outline>
    <contour>
      <point x="60" y="-120" type="line"/>
      <point x="540" y="-120" type="line"/>
      <point x="540" y="-82" type="line"/>
      <point x="60" y="-82" type="line"/>
    </contour>
  </outline>
</glyph>
<glyph name="i" format="1">
  <advance width="600"/>
  <unicode hex="0069"/>
  <outline>
    <component base="dotlessi"/>
    <component base="dotaccentcmb" xOffset="50"/>
    <contour>
      <point x="350" y="720" type="move" name="aboveUC"/>
    </contour>
    <contour>
      <point x="350" y="-20" type="move" name="belowLC"/>
    </contour>
    <contour>
      <point x="354" y="0" type="move" name="baseLC"/>
    </contour>
    <contour>
      <point x="360" y="0" type="move" name="ogonekLC"/>
    </contour>
  </outline>
</glyph>
<glyph name="j" format="1">
  <advance width="600"/>
  <unicode hex="006A"/>
  <outline>
    <component base="dotlessj"/>
    <component base="dotaccentcmb" xOffset="50"/>
    <contour>
      <point x="350" y="720" type="move" name="aboveUC"/>
    </contour>
    <contour>
      <point x="230" y="-230" type="move" name="belowLC"/>
    </contour>
  </outline>
</glyph>
<glyph name="l" format="1">
  <advance width="600"/>
  <unicode hex="006C"/>
  <outline>
    <contour>
      <point x="416" y="-12" type="curve" smooth="yes"/>
      <point x="462" y="-12"/>
      <point x="492" y="-2"/>
      <point x="532" y="18" type="curve"/>
      <point x="520" y="42" type="line"/>
      <point x="484" y="24"/>
      <point x="450" y="16"/>
      <point x="418" y="16" type="curve" smooth="yes"/>
      <point x="346" y="16"/>
      <point x="310" y="54"/>
      <point x="310" y="132" type="curve" smooth="yes"/>
      <point x="310" y="722" type="line"/>
      <point x="96" y="722" type="line"/>
      <point x="96" y="694" type="line"/>
      <point x="280" y="694" type="line"/>
      <point x="280" y="138" type="line" smooth="yes"/>
      <point x="280" y="31"/>
      <point x="330" y="-12"/>
    </contour>
    <contour>
      <point x="294.0" y="740.0" type="move" name="aboveUC"/>
    </contour>
    <contour>
      <point x="400.0" y="-20.0" type="move" name="belowLC"/>
    </contour>
    <contour>
      <point x="296.0" y="400.0" type="move" name="center"/>
    </contour>
    <contour>
      <point x="400.0" y="0.0" type="move" name="baseLC"/>
    </contour>
  </outline>
</glyph>
<glyph name="p" format="1">
  <advance width="600"/>
  <unicode hex="0070"/>
  <outline>
    <contour>
      <point x="110" y="-222" type="line"/>
      <point x="140" y="-222" type="line"/>
      <point x="140" y="-42" type="line"/>
      <point x="138" y="58" type="line"/>
      <point x="140" y="58" type="line"/>
      <point x="190" y="14"/>
      <point x="258" y="-12"/>
      <point x="304" y="-12" type="curve" smooth="yes"/>
      <point x="425" y="-12"/>
      <point x="530" y="84"/>
      <point x="530" y="246" type="curve" smooth="yes"/>
      <point x="530" y="394"/>
      <point x="463" y="490"/>
      <point x="326" y="490" type="curve" smooth="yes"/>
      <point x="262" y="490"/>
      <point x="191" y="454"/>
      <point x="142" y="406" type="curve"/>
      <point x="140" y="406" type="line"/>
      <point x="136" y="478" type="line"/>
      <point x="110" y="478" type="line"/>
    </contour>
    <contour>
      <point x="306" y="16" type="curve" smooth="yes"/>
      <point x="267" y="16"/>
      <point x="200" y="37"/>
      <point x="140" y="92" type="curve"/>
      <point x="140" y="368" type="line"/>
      <point x="204" y="432"/>
      <point x="271" y="462"/>
      <point x="324" y="462" type="curve" smooth="yes"/>
      <point x="449" y="462"/>
      <point x="498" y="368"/>
      <point x="498" y="246" type="curve" smooth="yes"/>
      <point x="498" y="112"/>
      <point x="418" y="16"/>
    </contour>
    <contour>
      <point x="320" y="500" type="move" name="aboveLC"/>
    </contour>
    <contour>
      <point x="130" y="-230" type="move" name="belowLC"/>
    </contour>
  </outline>
</glyph>
<glyph name="q" format="1">
  <advance width="600"/>
  <unicode hex="0071"/>
  <outline>
    <contour>
      <point x="460" y="-222" type="line"/>
      <point x="490" y="-222" type="line"/>
      <point x="490" y="478" type="line"/>
      <point x="464" y="478" type="line"/>
      <point x="460" y="422" type="line"/>
      <point x="458" y="422" type="line"/>
      <point x="409" y="464"/>
      <point x="360" y="490"/>
      <point x="298" y="490" type="curve" smooth="yes"/>
      <point x="177" y="490"/>
      <point x="70" y="392"/>
      <point x="70" y="238" type="curve" smooth="yes"/>
      <point x="70" y="76"/>
      <point x="156" y="-12"/>
      <point x="282" y="-12" type="curve" smooth="yes"/>
      <point x="352" y="-12"/>
      <point x="414" y="28"/>
      <point x="460" y="76" type="curve"/>
      <point x="462" y="76" type="line"/>
      <point x="460" y="-22" type="line"/>
    </contour>
    <contour>
      <point x="284" y="16" type="curve" smooth="yes"/>
      <point x="170" y="16"/>
      <point x="102" y="106"/>
      <point x="102" y="238" type="curve" smooth="yes"/>
      <point x="102" y="362"/>
      <point x="188" y="462"/>
      <point x="296" y="462" type="curve" smooth="yes"/>
      <point x="349" y="462"/>
      <point x="402" y="441"/>
      <point x="460" y="386" type="curve"/>
      <point x="460" y="110" type="line"/>
      <point x="403" y="50"/>
      <point x="343" y="16"/>
    </contour>
    <contour>
      <point x="300" y="500" type="move" name="aboveLC"/>
    </contour>
    <contour>
      <point x="470" y="-230" type="move" name="belowLC"/>
    </contour>
  </outline>
</glyph>
<glyph name="z" format="1">
	<unicode hex="007A"/>
	<advance width="600"/>
	<outline>
		<contour>
			<point x="72" y="0" type="line"/>
			<point x="524" y="0" type="line"/>
			<point x="524" y="28" type="line"/>
			<point x="120" y="28" type="line"/>
			<point x="512" y="462" type="line"/>
			<point x="512" y="478" type="line"/>
			<point x="114" y="478" type="line"/>
			<point x="114" y="450" type="line"/>
			<point x="464" y="450" type="line"/>
			<point x="72" y="16" type="line"/>
		</contour>
		<contour>
			<point name="aboveLC" x="318" y="500" type="move"/>
		</contour>
		<contour>
			<point name="belowLC" x="316" y="-20" type="move"/>
		</contour>
		<contour>
			<point name="baseLC" x="320" y="0" type="move"/>
		</contour>
	</outline>
</glyph>
<glyph name="logicalnot" format="1">
	<unicode hex="00AC"/>
	<advance width="600"/>
	<outline>
		<contour>
			<point x="470" y="112" type="line"/>
			<point x="502" y="112" type="line"/>
			<point x="502" y="344" type="line"/>
			<point x="98" y="344" type="line"/>
			<point x="98" y="316" type="line"/>
			<point x="470" y="316" type="line"/>
		</contour>
	</outline>
</glyph>
<glyph name="Eth" format="1">
  <advance width="600"/>
  <unicode hex="00D0"/>
  <outline>
    <contour>
      <point x="300" y="680" type="move" name="aboveUC"/>
    </contour>
    <contour>
      <point x="290" y="-20" type="move" name="belowLC"/>
    </contour>
  </outline>
</glyph>
<glyph name="aacute" format="1">
	<unicode hex="00E1"/>
	<advance width="600"/>
	<outline>
		<component base="a"/>
		<component base="acutecmb" xOffset="20"/>
		<contour>
			<point name="ogonekLC" x="440" y="0" type="move"/>
		</contour>
	</outline>
</glyph>
<glyph name="ae" format="1">
  <advance width="600"/>
  <unicode hex="00E6"/>
  <outline>
    <contour>
      <point x="142" y="-12" type="curve" smooth="yes"/>
      <point x="197" y="-12"/>
      <point x="258" y="27"/>
      <point x="334" y="112" type="curve"/>
      <point x="301" y="117" type="line"/>
      <point x="344" y="26"/>
      <point x="392" y="-12"/>
      <point x="461" y="-12" type="curve" smooth="yes"/>
      <point x="518" y="-12"/>
      <point x="557" y="10"/>
      <point x="586" y="28" type="curve"/>
      <point x="573" y="50" type="line"/>
      <point x="545" y="33"/>
      <point x="508" y="15"/>
      <point x="462" y="15" type="curve" smooth="yes"/>
      <point x="360" y="15"/>
      <point x="314" y="111"/>
      <point x="315" y="268" type="curve"/>
      <point x="285" y="238" type="line"/>
      <point x="598" y="238" type="line"/>
      <point x="600" y="258"/>
      <point x="600" y="270"/>
      <point x="600" y="282" type="curve" smooth="yes"/>
      <point x="600" y="392"/>
      <point x="556" y="490"/>
      <point x="460" y="490" type="curve" smooth="yes"/>
      <point x="391" y="490"/>
      <point x="338" y="444"/>
      <point x="296" y="344" type="curve"/>
      <point x="314" y="343" type="line"/>
      <point x="294" y="438"/>
      <point x="251" y="490"/>
      <point x="183" y="490" type="curve" smooth="yes"/>
      <point x="120" y="490"/>
      <point x="65" y="460"/>
      <point x="36" y="440" type="curve"/>
      <point x="50" y="417" type="line"/>
      <point x="78" y="438"/>
      <point x="132" y="463"/>
      <point x="174" y="463" type="curve" smooth="yes"/>
      <point x="257" y="463"/>
      <point x="285" y="392"/>
      <point x="284" y="298" type="curve"/>
      <point x="109" y="276"/>
      <point x="17" y="214"/>
      <point x="17" y="122" type="curve" smooth="yes"/>
      <point x="17" y="31"/>
      <point x="71" y="-12"/>
    </contour>
    <contour>
      <point x="145" y="15" type="curve" smooth="yes"/>
      <point x="87" y="15"/>
      <point x="49" y="51"/>
      <point x="49" y="120" type="curve" smooth="yes"/>
      <point x="49" y="201"/>
      <point x="116" y="247"/>
      <point x="284" y="272" type="curve"/>
      <point x="284" y="244" type="line" smooth="yes"/>
      <point x="284" y="196"/>
      <point x="291" y="152"/>
      <point x="302" y="116" type="curve"/>
      <point x="254" y="51"/>
      <point x="191" y="15"/>
    </contour>
    <contour>
      <point x="286" y="264" type="line"/>
      <point x="315" y="234" type="line"/>
      <point x="320" y="384"/>
      <point x="373" y="462"/>
      <point x="458" y="462" type="curve" smooth="yes"/>
      <point x="544" y="462"/>
      <point x="570" y="370"/>
      <point x="570" y="264" type="curve"/>
    </contour>
    <contour>
      <point x="320" y="500" type="move" name="aboveLC"/>
    </contour>
    <contour>
      <point x="310" y="-20" type="move" name="belowLC"/>
    </contour>
    <contour>
      <point x="460" y="0" type="move" name="baseLC"/>
    </contour>
  </outline>
</glyph>
<glyph name="eacute" format="1">
  <advance width="600"/>
  <unicode hex="00E9"/>
  <outline>
    <component base="e"/>
    <component base="acutecmb" xOffset="20"/>
    <contour>
      <point x="406" y="0" type="move" name="ogonekLC"/>
    </contour>
  </outline>
</glyph>
<glyph name="oslash" format="1">
  <advance width="600"/>
  <unicode hex="00F8"/>
  <outline>
    <contour>
      <point x="300" y="-12" type="curve" smooth="yes"/>
      <point x="425" y="-12"/>
      <point x="530" y="80"/>
      <point x="530" y="238" type="curve" smooth="yes"/>
      <point x="530" y="398"/>
      <point x="425" y="490"/>
      <point x="300" y="490" type="curve" smooth="yes"/>
      <point x="175" y="490"/>
      <point x="70" y="398"/>
      <point x="70" y="238" type="curve" smooth="yes"/>
      <point x="70" y="80"/>
      <point x="175" y="-12"/>
    </contour>
    <contour>
      <point x="300" y="16" type="curve" smooth="yes"/>
      <point x="186" y="16"/>
      <point x="102" y="106"/>
      <point x="102" y="238" type="curve" smooth="yes"/>
      <point x="102" y="370"/>
      <point x="186" y="462"/>
      <point x="300" y="462" type="curve" smooth="yes"/>
      <point x="414" y="462"/>
      <point x="498" y="370"/>
      <point x="498" y="238" type="curve" smooth="yes"/>
      <point x="498" y="106"/>
      <point x="414" y="16"/>
    </contour>
    <contour>
      <point x="92" y="-22" type="line"/>
      <point x="530" y="480" type="line"/>
      <point x="508" y="498" type="line"/>
      <point x="70" y="-4" type="line"/>
    </contour>
    <contour>
      <point x="300" y="500" type="move" name="aboveLC"/>
    </contour>
    <contour>
      <point x="300" y="-20" type="move" name="belowLC"/>
    </contour>
    <contour>
      <point x="300" y="0" type="move" name="baseLC"/>
    </contour>
  </outline>
</glyph>
<glyph name="dcroat" format="1">
  <advance width="600"/>
  <unicode hex="0111"/>
  <outline>
    <contour>
      <point x="282" y="-12" type="curve" smooth="yes"/>
      <point x="352" y="-12"/>
      <point x="415" y="29"/>
      <point x="458" y="74" type="curve"/>
      <point x="460" y="74" type="line"/>
      <point x="464" y="0" type="line"/>
      <point x="490" y="0" type="line"/>
      <point x="490" y="722" type="line"/>
      <point x="460" y="722" type="line"/>
      <point x="460" y="500" type="line"/>
      <point x="462" y="400" type="line"/>
      <point x="460" y="400" type="line"/>
      <point x="410" y="444"/>
      <point x="360" y="470"/>
      <point x="298" y="470" type="curve" smooth="yes"/>
      <point x="177" y="470"/>
      <point x="70" y="376"/>
      <point x="70" y="228" type="curve" smooth="yes"/>
      <point x="70" y="72"/>
      <point x="156" y="-12"/>
    </contour>
    <contour>
      <point x="284" y="16" type="curve" smooth="yes"/>
      <point x="170" y="16"/>
      <point x="102" y="102"/>
      <point x="102" y="228" type="curve" smooth="yes"/>
      <point x="102" y="345"/>
      <point x="188" y="442"/>
      <point x="296" y="442" type="curve" smooth="yes"/>
      <point x="349" y="442"/>
      <point x="402" y="421"/>
      <point x="460" y="366" type="curve"/>
      <point x="460" y="110" type="line"/>
      <point x="403" y="50"/>
      <point x="343" y="16"/>
    </contour>
    <contour>
      <point x="272" y="584" type="line"/>
      <point x="490" y="584" type="line"/>
      <point x="566" y="588" type="line"/>
      <point x="566" y="612" type="line"/>
      <point x="272" y="612" type="line"/>
    </contour>
    <contour>
      <point x="470" y="740" type="move" name="aboveUC"/>
    </contour>
    <contour>
      <point x="300" y="-20" type="move" name="belowLC"/>
    </contour>
  </outline>
</glyph>
<glyph name="eogonek" format="1">
  <advance width="600"/>
  <unicode hex="0119"/>
  <outline>
    <contour>
      <point x="428" y="-224" type="curve" smooth="yes"/>
      <point x="468" y="-224"/>
      <point x="488" y="-208"/>
      <point x="506" y="-188" type="curve"/>
      <point x="488" y="-170" type="line"/>
      <point x="476" y="-184"/>
      <point x="458" y="-196"/>
      <point x="430" y="-196" type="curve" smooth="yes"/>
      <point x="399" y="-196"/>
      <point x="366" y="-176"/>
      <point x="366" y="-134" type="curve" smooth="yes"/>
      <point x="366" y="-74"/>
      <point x="408" y="-30"/>
      <point x="510" y="44" type="curve"/>
      <point x="496" y="70" type="line"/>
      <point x="453" y="38"/>
      <point x="400" y="16"/>
      <point x="330" y="16" type="curve" smooth="yes"/>
      <point x="214" y="16"/>
      <point x="112" y="96"/>
      <point x="112" y="240" type="curve" smooth="yes"/>
      <point x="112" y="380"/>
      <point x="214" y="462"/>
      <point x="318" y="462" type="curve" smooth="yes"/>
      <point x="426" y="462"/>
      <point x="502" y="394"/>
      <point x="502" y="250" type="curve"/>
      <point x="520" y="266" type="line"/>
      <point x="90" y="266" type="line"/>
      <point x="90" y="238" type="line"/>
      <point x="528" y="238" type="line"/>
      <point x="530" y="250"/>
      <point x="530" y="260"/>
      <point x="530" y="270" type="curve" smooth="yes"/>
      <point x="530" y="408"/>
      <point x="446" y="490"/>
      <point x="318" y="490" type="curve" smooth="yes"/>
      <point x="194" y="490"/>
      <point x="80" y="394"/>
      <point x="80" y="238" type="curve" smooth="yes"/>
      <point x="80" y="82"/>
      <point x="194" y="-12"/>
      <point x="330" y="-12" type="curve" smooth="yes"/>
      <point x="364" y="-12"/>
      <point x="394" y="-14"/>
      <point x="449" y="15" type="curve"/>
      <point x="446" y="20" type="line"/>
      <point x="384" y="-20"/>
      <point x="336" y="-70"/>
      <point x="336" y="-136" type="curve" smooth="yes"/>
      <point x="336" y="-196"/>
      <point x="377" y="-224"/>
    </contour>
    <contour>
      <point x="317" y="500" type="move" name="aboveLC"/>
    </contour>
  </outline>
</glyph>
<glyph name="IJ" format="1">
  <advance width="600"/>
  <unicode hex="0132"/>
  <outline>
    <contour>
      <point x="142" y="0" type="line"/>
      <point x="174" y="0" type="line"/>
      <point x="174" y="660" type="line"/>
      <point x="142" y="660" type="line"/>
    </contour>
    <contour>
      <point x="358" y="-152" type="curve" smooth="yes"/>
      <point x="424" y="-152"/>
      <point x="458" y="-112"/>
      <point x="458" y="-20" type="curve" smooth="yes"/>
      <point x="458" y="660" type="line"/>
      <point x="426" y="660" type="line"/>
      <point x="426" y="-12" type="line" smooth="yes"/>
      <point x="426" y="-74"/>
      <point x="416" y="-120"/>
      <point x="360" y="-120" type="curve" smooth="yes"/>
      <point x="340" y="-120"/>
      <point x="320" y="-114"/>
      <point x="308" y="-110" type="curve"/>
      <point x="300" y="-140" type="line"/>
      <point x="314" y="-146"/>
      <point x="338" y="-152"/>
    </contour>
  </outline>
</glyph>
<glyph name="ij" format="1">
  <advance width="600"/>
  <unicode hex="0133"/>
  <outline>
    <contour>
      <point x="140" y="0" type="line"/>
      <point x="170" y="0" type="line"/>
      <point x="170" y="478" type="line"/>
      <point x="140" y="478" type="line"/>
    </contour>
    <contour>
      <point x="156" y="600" type="curve" smooth="yes"/>
      <point x="178" y="600"/>
      <point x="196" y="616"/>
      <point x="196" y="642" type="curve" smooth="yes"/>
      <point x="196" y="668"/>
      <point x="178" y="684"/>
      <point x="156" y="684" type="curve" smooth="yes"/>
      <point x="134" y="684"/>
      <point x="116" y="668"/>
      <point x="116" y="642" type="curve" smooth="yes"/>
      <point x="116" y="616"/>
      <point x="134" y="600"/>
    </contour>
    <contour>
      <point x="382" y="-234" type="curve" smooth="yes"/>
      <point x="448" y="-234"/>
      <point x="480" y="-194"/>
      <point x="480" y="-102" type="curve" smooth="yes"/>
      <point x="480" y="478" type="line"/>
      <point x="450" y="478" type="line"/>
      <point x="450" y="-98" type="line" smooth="yes"/>
      <point x="450" y="-160"/>
      <point x="440" y="-206"/>
      <point x="384" y="-206" type="curve" smooth="yes"/>
      <point x="364" y="-206"/>
      <point x="344" y="-200"/>
      <point x="332" y="-196" type="curve"/>
      <point x="324" y="-222" type="line"/>
      <point x="338" y="-228"/>
      <point x="362" y="-234"/>
    </contour>
    <contour>
      <point x="466" y="600" type="curve" smooth="yes"/>
      <point x="488" y="600"/>
      <point x="506" y="616"/>
      <point x="506" y="642" type="curve" smooth="yes"/>
      <point x="506" y="668"/>
      <point x="488" y="684"/>
      <point x="466" y="684" type="curve" smooth="yes"/>
      <point x="444" y="684"/>
      <point x="426" y="668"/>
      <point x="426" y="642" type="curve" smooth="yes"/>
      <point x="426" y="616"/>
      <point x="444" y="600"/>
    </contour>
  </outline>
</glyph>
<glyph name="eng" format="1">
  <advance width="600"/>
  <unicode hex="014B"/>
  <outline>
    <contour>
      <point x="402" y="-180" type="curve" smooth="yes"/>
      <point x="474.734693878" y="-180.0"/>
      <point x="510.0" y="-136.96969697"/>
      <point x="510" y="-38" type="curve" smooth="yes"/>
      <point x="510.0" y="-38.0"/>
      <point x="510.0" y="298.0"/>
      <point x="510" y="298" type="curve" smooth="yes"/>
      <point x="510" y="429"/>
      <point x="453" y="490"/>
      <point x="336" y="490" type="curve" smooth="yes"/>
      <point x="258" y="490"/>
      <point x="201" y="444"/>
      <point x="144" y="382" type="curve"/>
      <point x="140" y="382" type="line"/>
      <point x="136" y="478" type="line"/>
      <point x="110" y="478" type="line"/>
      <point x="110" y="0" type="line"/>
      <point x="140" y="0" type="line"/>
      <point x="140" y="346" type="line"/>
      <point x="214" y="424"/>
      <point x="264" y="462"/>
      <point x="336" y="462" type="curve" smooth="yes"/>
      <point x="437" y="462"/>
      <point x="480" y="407"/>
      <point x="480" y="294" type="curve" smooth="yes"/>
      <point x="480.0" y="294.0"/>
      <point x="480.0" y="-34.0"/>
      <point x="480" y="-34" type="curve" smooth="yes"/>
      <point x="480.0" y="-101.740740741"/>
      <point x="468.484848485" y="-152.0"/>
      <point x="404" y="-152" type="curve" smooth="yes"/>
      <point x="380.153846154" y="-152.0"/>
      <point x="356.316949859" y="-144.77231662"/>
      <point x="342" y="-140" type="curve"/>
      <point x="334" y="-166" type="line"/>
      <point x="350.401333839" y="-173.029143074"/>
      <point x="378.551724138" y="-180.0"/>
    </contour>
    <contour>
      <point x="320" y="500" type="move" name="aboveLC"/>
    </contour>
  </outline>
</glyph>
<glyph name="oe" format="1">
  <advance width="600"/>
  <unicode hex="0153"/>
  <outline>
    <contour>
      <point x="174" y="-12" type="curve" smooth="yes"/>
      <point x="240" y="-12"/>
      <point x="290" y="36"/>
      <point x="327" y="157" type="curve"/>
      <point x="309" y="157" type="line"/>
      <point x="346" y="36"/>
      <point x="402" y="-12"/>
      <point x="475" y="-12" type="curve" smooth="yes"/>
      <point x="526" y="-12"/>
      <point x="560" y="8"/>
      <point x="586" y="28" type="curve"/>
      <point x="574" y="50" type="line"/>
      <point x="548" y="32"/>
      <point x="517" y="14"/>
      <point x="476" y="14" type="curve" smooth="yes"/>
      <point x="384" y="14"/>
      <point x="336" y="110"/>
      <point x="335" y="268" type="curve"/>
      <point x="305" y="238" type="line"/>
      <point x="598" y="238" type="line"/>
      <point x="600" y="258"/>
      <point x="600" y="270"/>
      <point x="600" y="282" type="curve" smooth="yes"/>
      <point x="600" y="394"/>
      <point x="556" y="490"/>
      <point x="466" y="490" type="curve" smooth="yes"/>
      <point x="390" y="490"/>
      <point x="346" y="436"/>
      <point x="309" y="319" type="curve"/>
      <point x="327" y="319" type="line"/>
      <point x="290" y="440"/>
      <point x="238" y="490"/>
      <point x="174" y="490" type="curve" smooth="yes"/>
      <point x="78" y="490"/>
      <point x="10" y="398"/>
      <point x="10" y="239" type="curve" smooth="yes"/>
      <point x="10" y="80"/>
      <point x="78" y="-12"/>
    </contour>
    <contour>
      <point x="174" y="14" type="curve" smooth="yes"/>
      <point x="90" y="14"/>
      <point x="42" y="106"/>
      <point x="42" y="239" type="curve" smooth="yes"/>
      <point x="42" y="372"/>
      <point x="90" y="464"/>
      <point x="174" y="464" type="curve" smooth="yes"/>
      <point x="250" y="464"/>
      <point x="304.0" y="371.0"/>
      <point x="304" y="239" type="curve" smooth="yes"/>
      <point x="304.0" y="107.0"/>
      <point x="250" y="14"/>
    </contour>
    <contour>
      <point x="305" y="264" type="line"/>
      <point x="333" y="234" type="line"/>
      <point x="343" y="381"/>
      <point x="382" y="462"/>
      <point x="464" y="462" type="curve" smooth="yes"/>
      <point x="544" y="462"/>
      <point x="570.0" y="368.0"/>
      <point x="570" y="264" type="curve"/>
    </contour>
    <contour>
      <point x="320" y="500" type="move" name="aboveLC"/>
    </contour>
    <contour>
      <point x="310" y="-20" type="move" name="belowLC"/>
    </contour>
    <contour>
      <point x="470" y="0" type="move" name="baseLC"/>
    </contour>
  </outline>
</glyph>
<glyph name="Tbar" format="1">
  <advance width="600"/>
  <unicode hex="0166"/>
  <outline>
    <contour>
      <point x="136" y="336" type="line"/>
      <point x="464" y="336" type="line"/>
      <point x="464" y="364" type="line"/>
      <point x="220" y="364" type="line"/>
      <point x="136" y="362" type="line"/>
    </contour>
    <component base="T"/>
  </outline>
</glyph>
<glyph name="tbar" format="1">
  <advance width="600"/>
  <unicode hex="0167"/>
  <outline>
    <contour>
      <point x="84" y="238" type="line"/>
      <point x="504" y="238" type="line"/>
      <point x="504" y="266" type="line"/>
      <point x="232" y="266" type="line"/>
      <point x="84" y="262" type="line"/>
    </contour>
    <component base="t"/>
    <contour>
      <point x="262" y="630" type="move" name="aboveLC"/>
    </contour>
    <contour>
      <point x="388" y="-22" type="move" name="belowLC"/>
    </contour>
    <contour>
      <point x="378" y="0" type="move" name="baseLC"/>
    </contour>
  </outline>
</glyph>
<glyph name="Uogonek" format="1">
  <advance width="600"/>
  <unicode hex="0172"/>
  <outline>
    <contour>
      <point x="324" y="-224" type="curve" smooth="yes"/>
      <point x="362" y="-224"/>
      <point x="382" y="-208"/>
      <point x="402" y="-188" type="curve"/>
      <point x="384" y="-170" type="line"/>
      <point x="370" y="-184"/>
      <point x="352" y="-196"/>
      <point x="326" y="-196" type="curve" smooth="yes"/>
      <point x="293" y="-196"/>
      <point x="262" y="-176"/>
      <point x="262" y="-134" type="curve" smooth="yes"/>
      <point x="262" y="-86"/>
      <point x="292" y="-34"/>
      <point x="368" y="-4" type="curve" smooth="yes"/>
      <point x="454" y="30"/>
      <point x="508" y="92"/>
      <point x="508" y="246" type="curve" smooth="yes"/>
      <point x="508" y="660" type="line"/>
      <point x="478" y="660" type="line"/>
      <point x="478" y="254" type="line" smooth="yes"/>
      <point x="478" y="72"/>
      <point x="392" y="18"/>
      <point x="299" y="18" type="curve" smooth="yes"/>
      <point x="206" y="18"/>
      <point x="124" y="72"/>
      <point x="124" y="254" type="curve" smooth="yes"/>
      <point x="124" y="660" type="line"/>
      <point x="92" y="660" type="line"/>
      <point x="92" y="246" type="line" smooth="yes"/>
      <point x="92" y="72"/>
      <point x="168" y="-12"/>
      <point x="302" y="-12" type="curve"/>
      <point x="266" y="-42"/>
      <point x="232" y="-83"/>
      <point x="232" y="-136" type="curve" smooth="yes"/>
      <point x="232" y="-196"/>
      <point x="271" y="-224"/>
    </contour>
    <contour>
      <point x="300" y="680" type="move" name="aboveUC"/>
    </contour>
  </outline>
</glyph>
<glyph name="uogonek" format="1">
  <advance width="600"/>
  <unicode hex="0173"/>
  <outline>
    <contour>
      <point x="454" y="-224" type="curve" smooth="yes"/>
      <point x="492" y="-224"/>
      <point x="512" y="-208"/>
      <point x="532" y="-188" type="curve"/>
      <point x="514" y="-170" type="line"/>
      <point x="500" y="-184"/>
      <point x="482" y="-196"/>
      <point x="456" y="-196" type="curve" smooth="yes"/>
      <point x="423" y="-196"/>
      <point x="392" y="-176"/>
      <point x="392" y="-134" type="curve" smooth="yes"/>
      <point x="392" y="-90"/>
      <point x="420" y="-48"/>
      <point x="490" y="-8" type="curve"/>
      <point x="490" y="478" type="line"/>
      <point x="460" y="478" type="line"/>
      <point x="460" y="132" type="line"/>
      <point x="390" y="53"/>
      <point x="336" y="16"/>
      <point x="264" y="16" type="curve" smooth="yes"/>
      <point x="163" y="16"/>
      <point x="120" y="71"/>
      <point x="120" y="184" type="curve" smooth="yes"/>
      <point x="120" y="478" type="line"/>
      <point x="90" y="478" type="line"/>
      <point x="90" y="180" type="line" smooth="yes"/>
      <point x="90" y="49"/>
      <point x="147" y="-12"/>
      <point x="264" y="-12" type="curve" smooth="yes"/>
      <point x="342" y="-12"/>
      <point x="403" y="34"/>
      <point x="456" y="96" type="curve"/>
      <point x="460" y="96" type="line"/>
      <point x="464" y="2" type="line"/>
      <point x="400" y="-38"/>
      <point x="362" y="-82"/>
      <point x="362" y="-136" type="curve" smooth="yes"/>
      <point x="362" y="-196"/>
      <point x="401" y="-224"/>
    </contour>
    <contour>
      <point x="294" y="500" type="move" name="aboveLC"/>
    </contour>
  </outline>
</glyph>
<glyph name="bstroke" format="1">
  <advance width="600"/>
  <unicode hex="0180"/>
  <outline>
    <contour>
      <point x="306" y="-12" type="curve" smooth="yes"/>
      <point x="425" y="-12"/>
      <point x="530" y="80"/>
      <point x="530" y="236" type="curve" smooth="yes"/>
      <point x="530" y="378"/>
      <point x="463" y="470"/>
      <point x="326" y="470" type="curve" smooth="yes"/>
      <point x="262" y="470"/>
      <point x="190" y="434"/>
      <point x="140" y="382" type="curve"/>
      <point x="138" y="382" type="line"/>
      <point x="140" y="488" type="line"/>
      <point x="140" y="722" type="line"/>
      <point x="110" y="722" type="line"/>
      <point x="110" y="0" type="line"/>
      <point x="136" y="0" type="line"/>
      <point x="140" y="54" type="line"/>
      <point x="142" y="54" type="line"/>
      <point x="191" y="14"/>
      <point x="257" y="-12"/>
    </contour>
    <contour>
      <point x="308" y="16" type="curve" smooth="yes"/>
      <point x="267" y="16"/>
      <point x="200" y="37"/>
      <point x="140" y="92" type="curve"/>
      <point x="140" y="348" type="line"/>
      <point x="204" y="412"/>
      <point x="271" y="442"/>
      <point x="324" y="442" type="curve" smooth="yes"/>
      <point x="449" y="442"/>
      <point x="498" y="352"/>
      <point x="498" y="236" type="curve" smooth="yes"/>
      <point x="498" y="108"/>
      <point x="418" y="16"/>
    </contour>
    <contour>
      <point x="32" y="584" type="line"/>
      <point x="376" y="584" type="line"/>
      <point x="376" y="612" type="line"/>
      <point x="110" y="612" type="line"/>
      <point x="32" y="608" type="line"/>
    </contour>
  </outline>
</glyph>
<glyph name="Schwa" format="1">
  <advance width="600"/>
  <unicode hex="018F"/>
  <outline>
    <contour>
      <point x="298" y="-12" type="curve" smooth="yes"/>
      <point x="444" y="-12"/>
      <point x="542" y="124"/>
      <point x="542" y="332" type="curve" smooth="yes"/>
      <point x="542" y="540"/>
      <point x="456" y="672"/>
      <point x="302" y="672" type="curve" smooth="yes"/>
      <point x="230" y="672"/>
      <point x="174" y="640"/>
      <point x="136" y="598" type="curve"/>
      <point x="154" y="576" type="line"/>
      <point x="192" y="618"/>
      <point x="244" y="644"/>
      <point x="304" y="644" type="curve" smooth="yes"/>
      <point x="438" y="644"/>
      <point x="510" y="520"/>
      <point x="510" y="332" type="curve" smooth="yes"/>
      <point x="510" y="144"/>
      <point x="428" y="16"/>
      <point x="298" y="16" type="curve" smooth="yes"/>
      <point x="172" y="16"/>
      <point x="98" y="140"/>
      <point x="98" y="332" type="curve"/>
      <point x="76" y="304" type="line"/>
      <point x="514" y="304" type="line"/>
      <point x="514" y="332" type="line"/>
      <point x="66" y="332" type="line"/>
      <point x="66" y="332"/>
      <point x="66" y="332"/>
      <point x="66" y="330" type="curve" smooth="yes"/>
      <point x="66" y="132"/>
      <point x="152" y="-12"/>
    </contour>
    <contour>
      <point x="316" y="680" type="move" name="aboveUC"/>
    </contour>
    <contour>
      <point x="300" y="-20" type="move" name="belowLC"/>
    </contour>
    <contour>
      <point x="310" y="0" type="move" name="baseLC"/>
    </contour>
    <contour>
      <point x="310" y="0" type="move" name="ogonekUC"/>
    </contour>
  </outline>
</glyph>
<glyph name="Ghook" format="1">
  <advance width="600"/>
  <unicode hex="0193"/>
  <outline>
    <contour>
      <point x="516" y="594" type="line"/>
      <point x="483" y="645"/>
      <point x="471" y="666"/>
      <point x="471" y="706" type="curve" smooth="yes"/>
      <point x="471" y="735"/>
      <point x="489" y="764"/>
      <point x="527" y="764" type="curve" smooth="yes"/>
      <point x="543" y="764"/>
      <point x="554" y="758"/>
      <point x="565" y="754" type="curve"/>
      <point x="573" y="780" type="line"/>
      <point x="560" y="786"/>
      <point x="545" y="792"/>
      <point x="529" y="792" type="curve" smooth="yes"/>
      <point x="481" y="792"/>
      <point x="441" y="763"/>
      <point x="441" y="710" type="curve" smooth="yes"/>
      <point x="441" y="670"/>
      <point x="453" y="649"/>
      <point x="486" y="598" type="curve"/>
    </contour>
    <component base="G"/>
  </outline>
</glyph>
<glyph name="ohorn" format="1">
  <advance width="600"/>
  <unicode hex="01A1"/>
  <outline>
    <contour>
      <point x="423" y="446" type="line"/>
      <point x="474" y="460"/>
      <point x="532" y="492"/>
      <point x="532" y="570" type="curve" smooth="yes"/>
      <point x="532" y="592"/>
      <point x="525" y="614"/>
      <point x="514" y="636" type="curve"/>
      <point x="486" y="620" type="line"/>
      <point x="496" y="603"/>
      <point x="500" y="583"/>
      <point x="500" y="568" type="curve" smooth="yes"/>
      <point x="500" y="510"/>
      <point x="464" y="478"/>
      <point x="392" y="467" type="curve"/>
    </contour>
    <component base="o"/>
    <contour>
      <point x="300" y="500" type="move" name="aboveLC"/>
    </contour>
    <contour>
      <point x="300" y="-20" type="move" name="belowLC"/>
    </contour>
  </outline>
</glyph>
<glyph name="oogonek" format="1">
  <advance width="600"/>
  <unicode hex="01EB"/>
  <outline>
    <contour>
      <point x="328" y="-224" type="curve" smooth="yes"/>
      <point x="366" y="-224"/>
      <point x="386" y="-208"/>
      <point x="406" y="-188" type="curve"/>
      <point x="388" y="-170" type="line"/>
      <point x="374" y="-184"/>
      <point x="356" y="-196"/>
      <point x="330" y="-196" type="curve" smooth="yes"/>
      <point x="297" y="-196"/>
      <point x="266" y="-176"/>
      <point x="266" y="-134" type="curve" smooth="yes"/>
      <point x="266" y="-86"/>
      <point x="304" y="-30"/>
      <point x="360" y="-6" type="curve" smooth="yes"/>
      <point x="462" y="38"/>
      <point x="530" y="100"/>
      <point x="530" y="238" type="curve" smooth="yes"/>
      <point x="530" y="398"/>
      <point x="425" y="490"/>
      <point x="300" y="490" type="curve" smooth="yes"/>
      <point x="175" y="490"/>
      <point x="70" y="398"/>
      <point x="70" y="238" type="curve" smooth="yes"/>
      <point x="70" y="86"/>
      <point x="166" y="-12"/>
      <point x="308" y="-12" type="curve"/>
      <point x="268" y="-44"/>
      <point x="236" y="-84"/>
      <point x="236" y="-136" type="curve" smooth="yes"/>
      <point x="236" y="-196"/>
      <point x="275" y="-224"/>
    </contour>
    <contour>
      <point x="300" y="16" type="curve" smooth="yes"/>
      <point x="186" y="16"/>
      <point x="102" y="106"/>
      <point x="102" y="238" type="curve" smooth="yes"/>
      <point x="102" y="370"/>
      <point x="186" y="462"/>
      <point x="300" y="462" type="curve" smooth="yes"/>
      <point x="414" y="462"/>
      <point x="498" y="370"/>
      <point x="498" y="238" type="curve" smooth="yes"/>
      <point x="498" y="106"/>
      <point x="414" y="16"/>
    </contour>
    <contour>
      <point x="300" y="500" type="move" name="aboveLC"/>
    </contour>
  </outline>
</glyph>
<glyph name="ccurl" format="1">
  <advance width="600"/>
  <unicode hex="0255"/>
  <outline>
    <contour>
      <point x="178" y="-106" type="line"/>
      <point x="218" y="30"/>
      <point x="338" y="134"/>
      <point x="422" y="134" type="curve" smooth="yes"/>
      <point x="473" y="134"/>
      <point x="492" y="112"/>
      <point x="492" y="86" type="curve" smooth="yes"/>
      <point x="492" y="44"/>
      <point x="446" y="16"/>
      <point x="356" y="16" type="curve" smooth="yes"/>
      <point x="221" y="16"/>
      <point x="122" y="106"/>
      <point x="122" y="238" type="curve" smooth="yes"/>
      <point x="122" y="370"/>
      <point x="217" y="462"/>
      <point x="338" y="462" type="curve" smooth="yes"/>
      <point x="405" y="462"/>
      <point x="456" y="437"/>
      <point x="498" y="394" type="curve"/>
      <point x="518" y="416" type="line"/>
      <point x="478" y="458"/>
      <point x="423" y="490"/>
      <point x="338" y="490" type="curve" smooth="yes"/>
      <point x="206" y="490"/>
      <point x="90" y="398"/>
      <point x="90" y="238" type="curve" smooth="yes"/>
      <point x="90" y="80"/>
      <point x="210" y="-12"/>
      <point x="356" y="-12" type="curve" smooth="yes"/>
      <point x="470" y="-12"/>
      <point x="522" y="32"/>
      <point x="522" y="88" type="curve" smooth="yes"/>
      <point x="522" y="132"/>
      <point x="488" y="162"/>
      <point x="422" y="162" type="curve" smooth="yes"/>
      <point x="320" y="162"/>
      <point x="204" y="58"/>
      <point x="150" y="-96" type="curve"/>
    </contour>
    <contour>
      <point x="340" y="500" type="move" name="aboveLC"/>
    </contour>
    <contour>
      <point x="360" y="-20" type="move" name="belowLC"/>
    </contour>
  </outline>
</glyph>
<glyph name="ereversed" format="1">
  <advance width="600"/>
  <unicode hex="0258"/>
  <outline>
    <contour>
      <point x="270" y="-12" type="curve" smooth="yes"/>
      <point x="406" y="-12"/>
      <point x="520" y="82"/>
      <point x="520" y="238" type="curve" smooth="yes"/>
      <point x="520" y="394"/>
      <point x="418" y="490"/>
      <point x="294" y="490" type="curve" smooth="yes"/>
      <point x="166" y="490"/>
      <point x="70" y="408"/>
      <point x="70" y="270" type="curve" smooth="yes"/>
      <point x="70" y="260"/>
      <point x="70" y="250"/>
      <point x="72" y="238" type="curve"/>
      <point x="510" y="238" type="line"/>
      <point x="510" y="266" type="line"/>
      <point x="80" y="266" type="line"/>
      <point x="98" y="250" type="line"/>
      <point x="98" y="394"/>
      <point x="186" y="462"/>
      <point x="294" y="462" type="curve" smooth="yes"/>
      <point x="398" y="462"/>
      <point x="488" y="380"/>
      <point x="488" y="240" type="curve" smooth="yes"/>
      <point x="488" y="96"/>
      <point x="386" y="16"/>
      <point x="270" y="16" type="curve" smooth="yes"/>
      <point x="202" y="16"/>
      <point x="149" y="38"/>
      <point x="104" y="70" type="curve"/>
      <point x="90" y="44" type="line"/>
      <point x="132" y="17"/>
      <point x="183" y="-12"/>
    </contour>
    <contour>
      <point x="300" y="500" type="move" name="aboveLC"/>
    </contour>
    <contour>
      <point x="290" y="-20" type="move" name="belowLC"/>
    </contour>
  </outline>
</glyph>
<glyph name="schwahookrhotic" format="1">
  <advance width="600"/>
  <unicode hex="025A"/>
  <outline>
    <contour>
      <point x="228" y="-12" type="curve" smooth="yes"/>
      <point x="348" y="-12"/>
      <point x="426" y="94"/>
      <point x="426" y="234" type="curve" smooth="yes"/>
      <point x="426" y="404"/>
      <point x="334" y="490"/>
      <point x="224" y="490" type="curve" smooth="yes"/>
      <point x="148" y="490"/>
      <point x="107" y="466"/>
      <point x="70" y="440" type="curve"/>
      <point x="84" y="414" type="line"/>
      <point x="123" y="442"/>
      <point x="160" y="462"/>
      <point x="224" y="462" type="curve" smooth="yes"/>
      <point x="315" y="462"/>
      <point x="394" y="388"/>
      <point x="394" y="234" type="curve" smooth="yes"/>
      <point x="394" y="110"/>
      <point x="330" y="16"/>
      <point x="228" y="16" type="curve" smooth="yes"/>
      <point x="144" y="16"/>
      <point x="84" y="70"/>
      <point x="68" y="176" type="curve"/>
      <point x="54" y="160" type="line"/>
      <point x="486" y="328" type="line"/>
      <point x="494" y="260"/>
      <point x="530" y="234"/>
      <point x="562" y="234" type="curve" smooth="yes"/>
      <point x="589" y="234"/>
      <point x="607" y="247"/>
      <point x="620" y="258" type="curve"/>
      <point x="604" y="280" type="line"/>
      <point x="595" y="270"/>
      <point x="580" y="262"/>
      <point x="566" y="262" type="curve" smooth="yes"/>
      <point x="540" y="262"/>
      <point x="522" y="272"/>
      <point x="512" y="348" type="curve"/>
      <point x="488" y="358" type="line"/>
      <point x="38" y="182" type="line"/>
      <point x="50" y="74"/>
      <point x="114" y="-12"/>
    </contour>
    <contour>
      <point x="240" y="500" type="move" name="aboveLC"/>
    </contour>
    <contour>
      <point x="240" y="-20" type="move" name="belowLC"/>
    </contour>
  </outline>
</glyph>
<glyph name="eopen" format="1">
	<unicode hex="025B"/>
	<advance width="600"/>
	<outline>
		<contour>
			<point x="319" y="-12" type="curve" smooth="yes"/>
			<point x="397" y="-12"/>
			<point x="466" y="6"/>
			<point x="526" y="62" type="curve"/>
			<point x="508" y="84" type="line"/>
			<point x="451" y="31"/>
			<point x="391" y="16"/>
			<point x="320" y="16" type="curve" smooth="yes"/>
			<point x="212" y="16"/>
			<point x="140" y="56"/>
			<point x="140" y="129" type="curve" smooth="yes"/>
			<point x="140" y="201"/>
			<point x="213" y="238"/>
			<point x="338" y="238" type="curve" smooth="yes"/>
			<point x="394" y="238" type="line"/>
			<point x="394" y="266" type="line"/>
			<point x="352" y="266" type="line" smooth="yes"/>
			<point x="229" y="266"/>
			<point x="168" y="305"/>
			<point x="168" y="366" type="curve" smooth="yes"/>
			<point x="168" y="432"/>
			<point x="228" y="462"/>
			<point x="320" y="462" type="curve" smooth="yes"/>
			<point x="400" y="462"/>
			<point x="445" y="439"/>
			<point x="494" y="402" type="curve"/>
			<point x="512" y="424" type="line"/>
			<point x="464" y="462"/>
			<point x="408" y="490"/>
			<point x="320" y="490" type="curve" smooth="yes"/>
			<point x="214" y="490"/>
			<point x="136" y="448"/>
			<point x="136" y="368" type="curve" smooth="yes"/>
			<point x="136" y="314"/>
			<point x="172" y="280"/>
			<point x="222" y="256" type="curve"/>
			<point x="222" y="252" type="line"/>
			<point x="162" y="236"/>
			<point x="108" y="200"/>
			<point x="108" y="128" type="curve" smooth="yes"/>
			<point x="108" y="42"/>
			<point x="188" y="-12"/>
		</contour>
		<contour>
			<point name="aboveLC" x="330" y="500" type="move"/>
		</contour>
		<contour>
			<point name="belowLC" x="320" y="-20" type="move"/>
		</contour>
		<contour>
			<point name="baseLC" x="320" y="0" type="move"/>
		</contour>
	</outline>
</glyph>
<glyph name="gscript" format="1">
  <advance width="600"/>
  <unicode hex="0261"/>
  <outline>
    <contour>
      <point x="288" y="-234" type="curve" smooth="yes"/>
      <point x="412" y="-234"/>
      <point x="490" y="-160"/>
      <point x="490" y="-48" type="curve" smooth="yes"/>
      <point x="490" y="478" type="line"/>
      <point x="464" y="478" type="line"/>
      <point x="460" y="422" type="line"/>
      <point x="458" y="422" type="line"/>
      <point x="412" y="462"/>
      <point x="360" y="490"/>
      <point x="298" y="490" type="curve" smooth="yes"/>
      <point x="177" y="490"/>
      <point x="70" y="396"/>
      <point x="70" y="244" type="curve" smooth="yes"/>
      <point x="70" y="84"/>
      <point x="156" y="-2"/>
      <point x="282" y="-2" type="curve" smooth="yes"/>
      <point x="352" y="-2"/>
      <point x="414" y="38"/>
      <point x="458" y="84" type="curve"/>
      <point x="460" y="84" type="line"/>
      <point x="460" y="-40" type="line" smooth="yes"/>
      <point x="460" y="-144"/>
      <point x="397" y="-207"/>
      <point x="288" y="-207" type="curve" smooth="yes"/>
      <point x="233" y="-207"/>
      <point x="175" y="-192"/>
      <point x="124" y="-156" type="curve"/>
      <point x="108" y="-182" type="line"/>
      <point x="157" y="-214"/>
      <point x="218" y="-234"/>
    </contour>
    <contour>
      <point x="284" y="26" type="curve" smooth="yes"/>
      <point x="170" y="26"/>
      <point x="102" y="114"/>
      <point x="102" y="244" type="curve" smooth="yes"/>
      <point x="102" y="366"/>
      <point x="188" y="462"/>
      <point x="296" y="462" type="curve" smooth="yes"/>
      <point x="349" y="462"/>
      <point x="402" y="441"/>
      <point x="460" y="386" type="curve"/>
      <point x="460" y="120" type="line"/>
      <point x="403" y="60"/>
      <point x="343" y="26"/>
    </contour>
    <contour>
      <point x="310" y="500" type="move" name="aboveLC"/>
    </contour>
    <contour>
      <point x="290" y="-230" type="move" name="belowLC"/>
    </contour>
  </outline>
</glyph>
<glyph name="gammalatin" format="1">
  <advance width="600"/>
  <unicode hex="0263"/>
  <outline>
    <contour>
      <point x="283" y="20" type="line"/>
      <point x="319" y="20" type="line"/>
      <point x="534" y="478" type="line"/>
      <point x="502" y="478" type="line"/>
      <point x="365" y="178" type="line"/>
      <point x="342" y="130"/>
      <point x="328" y="96"/>
      <point x="303" y="52" type="curve"/>
      <point x="299" y="52" type="line"/>
      <point x="274" y="96"/>
      <point x="260" y="130"/>
      <point x="237" y="178" type="curve"/>
      <point x="100" y="478" type="line"/>
      <point x="66" y="478" type="line"/>
    </contour>
    <contour>
      <point x="301" y="-234" type="curve" smooth="yes"/>
      <point x="356" y="-234"/>
      <point x="381" y="-194"/>
      <point x="381" y="-138" type="curve" smooth="yes"/>
      <point x="381" y="-94"/>
      <point x="353" y="-45"/>
      <point x="319" y="32" type="curve"/>
      <point x="282" y="32" type="line"/>
      <point x="249" y="-45"/>
      <point x="221" y="-94"/>
      <point x="221" y="-138" type="curve" smooth="yes"/>
      <point x="221" y="-194"/>
      <point x="246" y="-234"/>
    </contour>
    <contour>
      <point x="301" y="-206" type="curve" smooth="yes"/>
      <point x="266" y="-206"/>
      <point x="253" y="-176"/>
      <point x="253" y="-140" type="curve" smooth="yes"/>
      <point x="253" y="-103"/>
      <point x="275" y="-48"/>
      <point x="299" y="0" type="curve"/>
      <point x="303" y="0" type="line"/>
      <point x="327" y="-48"/>
      <point x="349" y="-99"/>
      <point x="349" y="-140" type="curve" smooth="yes"/>
      <point x="349" y="-176"/>
      <point x="336" y="-206"/>
    </contour>
    <contour>
      <point x="300" y="500" type="move" name="aboveLC"/>
    </contour>
    <contour>
      <point x="300" y="-230" type="move" name="belowLC"/>
    </contour>
    <contour>
      <point x="300" y="-20" type="move" name="belowLC"/>
    </contour>
  </outline>
</glyph>
<glyph name="istroke" format="1">
  <advance width="600"/>
  <unicode hex="0268"/>
  <outline>
    <component base="istroke.d"/>
    <component base="dotaccentcmb" xOffset="50"/>
    <contour>
      <point x="350" y="-20" type="move" name="belowLC"/>
    </contour>
    <contour>
      <point x="354" y="0" type="move" name="baseLC"/>
    </contour>
    <contour>
      <point x="350" y="720" type="move" name="aboveUC"/>
    </contour>
  </outline>
</glyph>
<glyph name="mturned" format="1">
  <advance width="600"/>
  <unicode hex="026F"/>
  <outline>
    <component base="m" xScale="-1" yScale="-1" xOffset="600" yOffset="478"/>
    <contour>
      <point x="290" y="498" type="move" name="aboveLC"/>
    </contour>
    <contour>
      <point x="291" y="-20" type="move" name="belowLC"/>
    </contour>
  </outline>
</glyph>
<glyph name="mlonglegturned" format="1">
  <advance width="600"/>
  <unicode hex="0270"/>
  <outline>
    <contour>
      <point x="490" y="-222" type="line"/>
      <point x="520" y="-222" type="line"/>
      <point x="520" y="478" type="line"/>
      <point x="490" y="478" type="line"/>
      <point x="490" y="112" type="line"/>
      <point x="456" y="48"/>
      <point x="426" y="16"/>
      <point x="379" y="16" type="curve" smooth="yes"/>
      <point x="329" y="16"/>
      <point x="304" y="56"/>
      <point x="304" y="134" type="curve" smooth="yes"/>
      <point x="304" y="478" type="line"/>
      <point x="274" y="478" type="line"/>
      <point x="274" y="112" type="line"/>
      <point x="240" y="48"/>
      <point x="210" y="16"/>
      <point x="163" y="16" type="curve" smooth="yes"/>
      <point x="113" y="16"/>
      <point x="88" y="56"/>
      <point x="88" y="134" type="curve" smooth="yes"/>
      <point x="88" y="478" type="line"/>
      <point x="58" y="478" type="line"/>
      <point x="58" y="130" type="line" smooth="yes"/>
      <point x="58" y="34"/>
      <point x="95" y="-12"/>
      <point x="161" y="-12" type="curve" smooth="yes"/>
      <point x="214" y="-12"/>
      <point x="243" y="18"/>
      <point x="280" y="74" type="curve"/>
      <point x="293" y="16"/>
      <point x="323" y="-12"/>
      <point x="377" y="-12" type="curve" smooth="yes"/>
      <point x="428" y="-12"/>
      <point x="459" y="16"/>
      <point x="490" y="70" type="curve"/>
      <point x="494" y="70" type="line"/>
      <point x="490" y="-32" type="line"/>
    </contour>
    <contour>
      <point x="300" y="500" type="move" name="aboveLC"/>
    </contour>
    <contour>
      <point x="500" y="-230" type="move" name="belowLC"/>
    </contour>
  </outline>
</glyph>
<glyph name="nsmall" format="1">
  <advance width="600"/>
  <unicode hex="0274"/>
  <outline>
    <contour>
      <point x="114" y="0" type="line"/>
      <point x="144" y="0" type="line"/>
      <point x="144" y="254" type="line" smooth="yes"/>
      <point x="144" y="307"/>
      <point x="142" y="368"/>
      <point x="140" y="432" type="curve"/>
      <point x="144" y="432" type="line"/>
      <point x="168" y="400"/>
      <point x="198" y="359"/>
      <point x="220" y="328" type="curve" smooth="yes"/>
      <point x="454" y="0" type="line"/>
      <point x="486" y="0" type="line"/>
      <point x="486" y="478" type="line"/>
      <point x="456" y="478" type="line"/>
      <point x="456" y="224" type="line" smooth="yes"/>
      <point x="456" y="171"/>
      <point x="458" y="110"/>
      <point x="460" y="46" type="curve"/>
      <point x="456" y="46" type="line"/>
      <point x="430" y="78"/>
      <point x="402" y="119"/>
      <point x="380" y="150" type="curve" smooth="yes"/>
      <point x="146" y="478" type="line"/>
      <point x="114" y="478" type="line"/>
    </contour>
    <contour>
      <point x="310" y="500" type="move" name="aboveLC"/>
    </contour>
    <contour>
      <point x="300" y="-20" type="move" name="belowLC"/>
    </contour>
  </outline>
</glyph>
<glyph name="obar" format="1">
  <advance width="600"/>
  <unicode hex="0275"/>
  <outline>
    <contour>
      <point x="300" y="-12" type="curve" smooth="yes"/>
      <point x="426" y="-12"/>
      <point x="530" y="74"/>
      <point x="530" y="238" type="curve" smooth="yes"/>
      <point x="530" y="404"/>
      <point x="426" y="490"/>
      <point x="300" y="490" type="curve" smooth="yes"/>
      <point x="174" y="490"/>
      <point x="70" y="404"/>
      <point x="70" y="238" type="curve" smooth="yes"/>
      <point x="70" y="74"/>
      <point x="174" y="-12"/>
    </contour>
    <contour>
      <point x="300" y="16" type="curve" smooth="yes"/>
      <point x="186" y="16"/>
      <point x="100" y="100"/>
      <point x="100" y="238" type="curve" smooth="yes"/>
      <point x="100" y="376"/>
      <point x="186" y="462"/>
      <point x="300" y="462" type="curve" smooth="yes"/>
      <point x="414" y="462"/>
      <point x="500" y="376"/>
      <point x="500" y="238" type="curve" smooth="yes"/>
      <point x="500" y="100"/>
      <point x="414" y="16"/>
    </contour>
    <contour>
      <point x="90" y="238" type="line"/>
      <point x="506" y="238" type="line"/>
      <point x="506" y="266" type="line"/>
      <point x="90" y="266" type="line"/>
    </contour>
    <contour>
      <point x="300" y="500" type="move" name="aboveLC"/>
    </contour>
    <contour>
      <point x="300" y="-20" type="move" name="belowLC"/>
    </contour>
  </outline>
</glyph>
<glyph name="rturned" format="1">
  <advance width="600"/>
  <unicode hex="0279"/>
  <outline>
    <component base="r" xScale="-1" yScale="-1" xOffset="600" yOffset="478"/>
    <contour>
      <point x="410" y="500" type="move" name="aboveLC"/>
    </contour>
    <contour>
      <point x="260" y="-20" type="move" name="belowLC"/>
    </contour>
  </outline>
</glyph>
<glyph name="esh" format="1">
	<unicode hex="0283"/>
	<advance width="600"/>
	<outline>
		<contour>
			<point x="188" y="-234" type="curve" smooth="yes"/>
			<point x="274" y="-234"/>
			<point x="316" y="-182"/>
			<point x="316" y="-62" type="curve" smooth="yes"/>
			<point x="316" y="560" type="line" smooth="yes"/>
			<point x="316" y="644"/>
			<point x="333" y="708"/>
			<point x="422" y="708" type="curve" smooth="yes"/>
			<point x="457" y="708"/>
			<point x="482" y="696"/>
			<point x="514" y="678" type="curve"/>
			<point x="526" y="704" type="line"/>
			<point x="487" y="725"/>
			<point x="461" y="736"/>
			<point x="424" y="736" type="curve" smooth="yes"/>
			<point x="330" y="736"/>
			<point x="286" y="684"/>
			<point x="286" y="564" type="curve" smooth="yes"/>
			<point x="286" y="-58" type="line" smooth="yes"/>
			<point x="286" y="-142"/>
			<point x="271" y="-206"/>
			<point x="190" y="-206" type="curve" smooth="yes"/>
			<point x="148" y="-206"/>
			<point x="112" y="-191"/>
			<point x="80" y="-176" type="curve"/>
			<point x="66" y="-202" type="line"/>
			<point x="106" y="-223"/>
			<point x="145" y="-234"/>
		</contour>
		<contour>
			<point name="belowLC" x="280" y="-230" type="move"/>
		</contour>
		<contour>
			<point name="aboveUC" x="340" y="740" type="move"/>
		</contour>
	</outline>
</glyph>
<glyph name="dotlessjstrokehook" format="1">
  <advance width="600"/>
  <unicode hex="0284"/>
  <outline>
    <contour>
      <point x="88" y="238" type="line"/>
      <point x="508" y="238" type="line"/>
      <point x="508" y="266" type="line"/>
      <point x="286" y="266" type="line"/>
      <point x="88" y="262" type="line"/>
    </contour>
    <component base="esh"/>
    <contour>
      <point x="280" y="-230" type="move" name="belowLC"/>
    </contour>
    <contour>
      <point x="340" y="740" type="move" name="aboveUC"/>
    </contour>
  </outline>
</glyph>
<glyph name="tturned" format="1">
	<unicode hex="0287"/>
	<advance width="600"/>
	<outline>
		<component base="t" xScale="-1" yScale="-1" xOffset="600" yOffset="478"/>
		<contour>
			<point name="aboveLC" x="224" y="500" type="move"/>
		</contour>
		<contour>
			<point name="belowLC" x="360" y="-20" type="move"/>
		</contour>
	</outline>
</glyph>
<glyph name="ysmall" format="1">
  <advance width="600"/>
  <unicode hex="028F"/>
  <outline>
    <contour>
      <point x="286" y="0" type="line"/>
      <point x="316" y="0" type="line"/>
      <point x="316" y="176" type="line"/>
      <point x="526" y="478" type="line"/>
      <point x="490" y="478" type="line"/>
      <point x="380" y="316" type="line" smooth="yes"/>
      <point x="353" y="276"/>
      <point x="327" y="244"/>
      <point x="304" y="204" type="curve"/>
      <point x="300" y="204" type="line"/>
      <point x="276" y="244"/>
      <point x="248" y="277"/>
      <point x="222" y="316" type="curve" smooth="yes"/>
      <point x="112" y="478" type="line"/>
      <point x="76" y="478" type="line"/>
      <point x="286" y="176" type="line"/>
    </contour>
    <contour>
      <point x="300" y="500" type="move" name="aboveLC"/>
    </contour>
    <contour>
      <point x="300" y="-20" type="move" name="belowLC"/>
    </contour>
  </outline>
</glyph>
<glyph name="zcurl" format="1">
  <advance width="600"/>
  <unicode hex="0291"/>
  <outline>
    <contour>
      <point x="346" y="-120" type="line"/>
      <point x="376" y="78"/>
      <point x="438" y="150"/>
      <point x="490" y="150" type="curve" smooth="yes"/>
      <point x="527" y="150"/>
      <point x="540" y="128"/>
      <point x="540" y="100" type="curve" smooth="yes"/>
      <point x="540" y="64"/>
      <point x="504" y="28"/>
      <point x="440" y="28" type="curve" smooth="yes"/>
      <point x="333" y="28"/>
      <point x="227" y="28"/>
      <point x="120" y="28" type="curve"/>
      <point x="512" y="462" type="line"/>
      <point x="512" y="478" type="line"/>
      <point x="114" y="478" type="line"/>
      <point x="114" y="450" type="line"/>
      <point x="464" y="450" type="line"/>
      <point x="72" y="16" type="line"/>
      <point x="72" y="0" type="line"/>
      <point x="434" y="0" type="line" smooth="yes"/>
      <point x="526" y="0"/>
      <point x="572" y="45"/>
      <point x="572" y="100" type="curve" smooth="yes"/>
      <point x="572" y="148"/>
      <point x="542" y="178"/>
      <point x="492" y="178" type="curve" smooth="yes"/>
      <point x="418" y="178"/>
      <point x="354" y="96"/>
      <point x="316" y="-114" type="curve"/>
    </contour>
    <contour>
      <point x="318" y="500" type="move" name="aboveLC"/>
    </contour>
  </outline>
</glyph>
<glyph name="glottalstop" format="1">
  <advance width="600"/>
  <unicode hex="0294"/>
  <outline>
    <contour>
      <point x="266" y="0" type="line"/>
      <point x="296" y="0" type="line"/>
      <point x="296" y="288" type="line"/>
      <point x="410" y="356"/>
      <point x="496" y="419"/>
      <point x="496" y="542" type="curve" smooth="yes"/>
      <point x="496" y="666"/>
      <point x="407" y="734"/>
      <point x="290" y="734" type="curve" smooth="yes"/>
      <point x="188" y="734"/>
      <point x="128" y="683"/>
      <point x="88" y="638" type="curve"/>
      <point x="108" y="616" type="line"/>
      <point x="146" y="661"/>
      <point x="200" y="706"/>
      <point x="292" y="706" type="curve" smooth="yes"/>
      <point x="403" y="706"/>
      <point x="464" y="640"/>
      <point x="464" y="544" type="curve" smooth="yes"/>
      <point x="464" y="440"/>
      <point x="396" y="379"/>
      <point x="266" y="310" type="curve"/>
    </contour>
    <contour>
      <point x="300" y="740" type="move" name="aboveUC"/>
    </contour>
    <contour>
      <point x="280" y="-20" type="move" name="belowLC"/>
    </contour>
  </outline>
</glyph>
<glyph name="hsmall" format="1">
	<unicode hex="029C"/>
	<advance width="600"/>
	<outline>
		<component base="en"/>
		<contour>
			<point name="aboveLC" x="300" y="500" type="move"/>
		</contour>
		<contour>
			<point name="belowLC" x="300" y="-20" type="move"/>
		</contour>
	</outline>
</glyph>
<glyph name="lsmall" format="1">
	<unicode hex="029F"/>
	<advance width="600"/>
	<outline>
		<contour>
			<point x="170" y="0" type="line"/>
			<point x="528" y="0" type="line"/>
			<point x="528" y="28" type="line"/>
			<point x="200" y="28" type="line"/>
			<point x="200" y="478" type="line"/>
			<point x="170" y="478" type="line"/>
		</contour>
		<contour>
			<point name="aboveLC" x="190" y="500" type="move"/>
		</contour>
		<contour>
			<point name="belowLC" x="350" y="-20" type="move"/>
		</contour>
	</outline>
</glyph>
<glyph name="glottalstopstrokereversed" format="1">
  <advance width="600"/>
  <unicode hex="02A2"/>
  <outline>
    <contour>
      <point x="306" y="0" type="line"/>
      <point x="336" y="0" type="line"/>
      <point x="336" y="286" type="line"/>
      <point x="512" y="286" type="line"/>
      <point x="512" y="314" type="line"/>
      <point x="326" y="314" type="line"/>
      <point x="214" y="376"/>
      <point x="138" y="446"/>
      <point x="138" y="544" type="curve" smooth="yes"/>
      <point x="138" y="640"/>
      <point x="198" y="706"/>
      <point x="310" y="706" type="curve" smooth="yes"/>
      <point x="402" y="706"/>
      <point x="456" y="660"/>
      <point x="494" y="616" type="curve"/>
      <point x="514" y="638" type="line"/>
      <point x="474" y="682"/>
      <point x="414" y="734"/>
      <point x="312" y="734" type="curve" smooth="yes"/>
      <point x="194" y="734"/>
      <point x="106" y="666"/>
      <point x="106" y="542" type="curve" smooth="yes"/>
      <point x="106" y="430"/>
      <point x="184" y="369"/>
      <point x="270" y="314" type="curve"/>
      <point x="178" y="314" type="line"/>
      <point x="102" y="310" type="line"/>
      <point x="102" y="286" type="line"/>
      <point x="306" y="286" type="line"/>
    </contour>
    <contour>
      <point x="310" y="740" type="move" name="aboveUC"/>
    </contour>
    <contour>
      <point x="320" y="-20" type="move" name="belowLC"/>
    </contour>
  </outline>
</glyph>
<glyph name="dezh" format="1">
  <advance width="600"/>
  <unicode hex="02A4"/>
  <outline>
    <contour>
      <point x="162" y="-12" type="curve" smooth="yes"/>
      <point x="218" y="-12"/>
      <point x="260" y="34"/>
      <point x="278" y="74" type="curve"/>
      <point x="280" y="74" type="line"/>
      <point x="284" y="0" type="line"/>
      <point x="310" y="0" type="line"/>
      <point x="310" y="722" type="line"/>
      <point x="280" y="722" type="line" smooth="yes"/>
      <point x="280" y="520" type="line"/>
      <point x="282" y="420" type="line"/>
      <point x="280" y="420" type="line"/>
      <point x="260" y="456"/>
      <point x="226" y="490"/>
      <point x="178" y="490" type="curve" smooth="yes"/>
      <point x="90" y="490"/>
      <point x="10" y="392"/>
      <point x="10" y="238" type="curve" smooth="yes"/>
      <point x="10" y="76"/>
      <point x="72" y="-12"/>
    </contour>
    <contour>
      <point x="164" y="16" type="curve" smooth="yes"/>
      <point x="88" y="16"/>
      <point x="42" y="106"/>
      <point x="42" y="238" type="curve" smooth="yes"/>
      <point x="42" y="362"/>
      <point x="100" y="462"/>
      <point x="176" y="462" type="curve" smooth="yes"/>
      <point x="220" y="462"/>
      <point x="250" y="432"/>
      <point x="280" y="386" type="curve"/>
      <point x="280" y="110" type="line"/>
      <point x="250" y="58"/>
      <point x="212" y="16"/>
    </contour>
    <contour>
      <point x="468" y="-234" type="curve" smooth="yes"/>
      <point x="544" y="-234"/>
      <point x="618" y="-168"/>
      <point x="618" y="-22" type="curve" smooth="yes"/>
      <point x="618" y="96"/>
      <point x="558" y="168"/>
      <point x="464" y="168" type="curve" smooth="yes"/>
      <point x="446" y="168"/>
      <point x="420" y="164"/>
      <point x="392" y="152" type="curve"/>
      <point x="406" y="138" type="line"/>
      <point x="598" y="462" type="line"/>
      <point x="598" y="478" type="line"/>
      <point x="306" y="478" type="line"/>
      <point x="306" y="450" type="line"/>
      <point x="554" y="450" type="line"/>
      <point x="376" y="146" type="line"/>
      <point x="396" y="120" type="line"/>
      <point x="418" y="132"/>
      <point x="434" y="140"/>
      <point x="462" y="140" type="curve" smooth="yes"/>
      <point x="539" y="140"/>
      <point x="586" y="78"/>
      <point x="586" y="-24" type="curve" smooth="yes"/>
      <point x="586" y="-142"/>
      <point x="534" y="-206"/>
      <point x="470" y="-206" type="curve" smooth="yes"/>
      <point x="404" y="-206"/>
      <point x="372" y="-180"/>
      <point x="340" y="-147" type="curve"/>
      <point x="320" y="-169" type="line"/>
      <point x="354" y="-204"/>
      <point x="392" y="-234"/>
    </contour>
    <contour>
      <point x="280" y="730" type="move" name="aboveUC"/>
    </contour>
    <contour>
      <point x="330" y="-230" type="move" name="belowLC"/>
    </contour>
  </outline>
</glyph>
<glyph name="tesh" format="1">
  <advance width="600"/>
  <unicode hex="02A7"/>
  <outline>
    <contour>
      <point x="270" y="-12" type="curve" smooth="yes"/>
      <point x="286" y="-12"/>
      <point x="316" y="-4"/>
      <point x="344" y="6" type="curve"/>
      <point x="334" y="32" type="line"/>
      <point x="316" y="24"/>
      <point x="290" y="16"/>
      <point x="272" y="16" type="curve" smooth="yes"/>
      <point x="202" y="16"/>
      <point x="188" y="60"/>
      <point x="188" y="122" type="curve" smooth="yes"/>
      <point x="188" y="450" type="line"/>
      <point x="420" y="450" type="line"/>
      <point x="420" y="478" type="line"/>
      <point x="188" y="478" type="line"/>
      <point x="188" y="618" type="line"/>
      <point x="162" y="618" type="line"/>
      <point x="158" y="478" type="line"/>
      <point x="82" y="474" type="line"/>
      <point x="82" y="450" type="line"/>
      <point x="158" y="450" type="line"/>
      <point x="158" y="126" type="line" smooth="yes"/>
      <point x="158" y="44"/>
      <point x="182" y="-12"/>
    </contour>
    <contour>
      <point x="340" y="-234" type="curve" smooth="yes"/>
      <point x="406" y="-234"/>
      <point x="438" y="-194"/>
      <point x="438" y="-102" type="curve" smooth="yes"/>
      <point x="438" y="600" type="line" smooth="yes"/>
      <point x="438" y="662"/>
      <point x="450" y="708"/>
      <point x="514" y="708" type="curve" smooth="yes"/>
      <point x="530" y="708"/>
      <point x="546" y="702"/>
      <point x="556" y="698" type="curve"/>
      <point x="564" y="724" type="line"/>
      <point x="552" y="730"/>
      <point x="533" y="736"/>
      <point x="516" y="736" type="curve" smooth="yes"/>
      <point x="443" y="736"/>
      <point x="408" y="696"/>
      <point x="408" y="604" type="curve" smooth="yes"/>
      <point x="408" y="-98" type="line"/>
      <point x="408" y="-160"/>
      <point x="398" y="-206"/>
      <point x="342" y="-206" type="curve" smooth="yes"/>
      <point x="322" y="-206"/>
      <point x="302" y="-200"/>
      <point x="290" y="-196" type="curve"/>
      <point x="282" y="-222" type="line"/>
      <point x="296" y="-228"/>
      <point x="320" y="-234"/>
    </contour>
    <contour>
      <point x="315" y="730" type="move" name="aboveUC"/>
    </contour>
    <contour>
      <point x="331" y="-230" type="move" name="belowLC"/>
    </contour>
  </outline>
</glyph>
<glyph name="colontriangularhalfmod" format="1">
  <advance width="600"/>
  <unicode hex="02D1"/>
  <outline>
    <contour>
      <point x="296" y="364" type="line"/>
      <point x="304" y="364" type="line"/>
      <point x="368" y="478" type="line"/>
      <point x="232" y="478" type="line"/>
    </contour>
  </outline>
</glyph>
<glyph name="brevecmb" format="1">
  <advance width="600"/>
  <unicode hex="0306"/>
  <outline>
    <contour>
      <point x="300" y="570" type="curve" smooth="yes"/>
      <point x="401" y="570"/>
      <point x="438" y="654"/>
      <point x="446" y="716" type="curve"/>
      <point x="420" y="720" type="line"/>
      <point x="412" y="662"/>
      <point x="375" y="596"/>
      <point x="300" y="596" type="curve" smooth="yes"/>
      <point x="225" y="596"/>
      <point x="188" y="662"/>
      <point x="180" y="720" type="curve"/>
      <point x="154" y="716" type="line"/>
      <point x="162" y="654"/>
      <point x="199" y="570"/>
    </contour>
    <contour>
      <point x="300" y="500" type="move" name="_aboveLC"/>
    </contour>
    <contour>
      <point x="300" y="500" type="move" name="aboveLC"/>
    </contour>
  </outline>
</glyph>
<glyph name="hoicmb" format="1">
  <advance width="600"/>
  <unicode hex="0309"/>
  <outline>
    <contour>
      <point x="278" y="576" type="line"/>
      <point x="322" y="590"/>
      <point x="366" y="612"/>
      <point x="366" y="662" type="curve" smooth="yes"/>
      <point x="366" y="712"/>
      <point x="310" y="732"/>
      <point x="252" y="734" type="curve"/>
      <point x="250" y="708" type="line"/>
      <point x="304" y="706"/>
      <point x="336" y="690"/>
      <point x="336" y="658" type="curve" smooth="yes"/>
      <point x="336" y="628"/>
      <point x="308" y="612"/>
      <point x="270" y="600" type="curve"/>
    </contour>
    <contour>
      <point x="300" y="500" type="move" name="_aboveLC"/>
    </contour>
    <contour>
      <point x="300" y="500" type="move" name="aboveLC"/>
    </contour>
  </outline>
</glyph>
<glyph name="hungarumlautcmb" format="1">
  <advance width="600"/>
  <unicode hex="030B"/>
  <outline>
    <contour>
      <point x="240" y="570" type="line"/>
      <point x="332" y="730" type="line"/>
      <point x="306" y="746" type="line"/>
      <point x="220" y="580" type="line"/>
    </contour>
    <contour>
      <point x="368" y="570" type="line"/>
      <point x="460" y="730" type="line"/>
      <point x="434" y="746" type="line"/>
      <point x="348" y="580" type="line"/>
    </contour>
    <contour>
      <point x="300" y="500" type="move" name="_aboveLC"/>
    </contour>
  </outline>
</glyph>
<glyph name="dblgravecmb" format="1">
  <advance width="600"/>
  <unicode hex="030F"/>
  <outline>
    <contour>
      <point x="232" y="570" type="line"/>
      <point x="252" y="580" type="line"/>
      <point x="166" y="746" type="line"/>
      <point x="140" y="730" type="line"/>
    </contour>
    <contour>
      <point x="360" y="570" type="line"/>
      <point x="380" y="580" type="line"/>
      <point x="294" y="746" type="line"/>
      <point x="268" y="730" type="line"/>
    </contour>
    <contour>
      <point x="300" y="500" type="move" name="_aboveLC"/>
    </contour>
  </outline>
</glyph>
<glyph name="lefttackbelowcmb" format="1">
  <advance width="600"/>
  <unicode hex="0318"/>
  <outline>
    <contour>
      <point x="346" y="-242" type="line"/>
      <point x="374" y="-242" type="line"/>
      <point x="374" y="-62" type="line"/>
      <point x="346" y="-62" type="line"/>
      <point x="346" y="-138" type="line"/>
      <point x="234" y="-138" type="line"/>
      <point x="234" y="-166" type="line"/>
      <point x="346" y="-166" type="line"/>
    </contour>
    <contour>
      <point x="300" y="-20" type="move" name="_belowLC"/>
    </contour>
  </outline>
</glyph>
<glyph name="commabelowcmb" format="1">
  <advance width="600"/>
  <unicode hex="0326"/>
  <outline>
    <contour>
      <point x="226" y="-216" type="line"/>
      <point x="316" y="-210"/>
      <point x="364" y="-184"/>
      <point x="364" y="-134" type="curve" smooth="yes"/>
      <point x="364" y="-92"/>
      <point x="338" y="-74"/>
      <point x="266" y="-62" type="curve"/>
      <point x="256" y="-88" type="line"/>
      <point x="304" y="-92"/>
      <point x="334" y="-104"/>
      <point x="334" y="-136" type="curve" smooth="yes"/>
      <point x="334" y="-166"/>
      <point x="308" y="-184"/>
      <point x="220" y="-190" type="curve"/>
    </contour>
    <contour>
      <point x="300" y="-20" type="move" name="_belowLC"/>
    </contour>
  </outline>
</glyph>
<glyph name="cedillacmb" format="1">
  <advance width="600"/>
  <unicode hex="0327"/>
  <outline>
    <contour>
      <point x="226" y="-216" type="line"/>
      <point x="316" y="-210"/>
      <point x="364" y="-184"/>
      <point x="364" y="-134" type="curve" smooth="yes"/>
      <point x="364" y="-94"/>
      <point x="336" y="-76"/>
      <point x="294" y="-66" type="curve"/>
      <point x="324" y="2" type="line"/>
      <point x="296" y="2" type="line"/>
      <point x="256" y="-84" type="line"/>
      <point x="310" y="-92"/>
      <point x="334" y="-106"/>
      <point x="334" y="-136" type="curve" smooth="yes"/>
      <point x="334" y="-166"/>
      <point x="308" y="-184"/>
      <point x="220" y="-190" type="curve"/>
    </contour>
    <contour>
      <point x="300" y="0" type="move" name="_baseLC"/>
    </contour>
  </outline>
</glyph>
<glyph name="ogonekcmb" format="1">
  <advance width="600"/>
  <unicode hex="0328"/>
  <outline>
    <contour>
      <point x="314" y="-224" type="curve" smooth="yes"/>
      <point x="352" y="-224"/>
      <point x="372" y="-208"/>
      <point x="392" y="-188" type="curve"/>
      <point x="374" y="-170" type="line"/>
      <point x="360" y="-184"/>
      <point x="342" y="-196"/>
      <point x="316" y="-196" type="curve" smooth="yes"/>
      <point x="283" y="-196"/>
      <point x="252" y="-176"/>
      <point x="252" y="-134" type="curve" smooth="yes"/>
      <point x="252" y="-82"/>
      <point x="292" y="-36"/>
      <point x="350" y="4" type="curve"/>
      <point x="312" y="4" type="line"/>
      <point x="266" y="-32"/>
      <point x="222" y="-76"/>
      <point x="222" y="-136" type="curve" smooth="yes"/>
      <point x="222" y="-196"/>
      <point x="261" y="-224"/>
    </contour>
    <contour>
      <point x="300" y="0" type="move" name="_ogonekLC"/>
    </contour>
  </outline>
</glyph>
<glyph name="xabovecmb" format="1">
  <advance width="600"/>
  <unicode hex="033D"/>
  <outline>
    <contour>
      <point x="240" y="564" type="line"/>
      <point x="300" y="624" type="line"/>
      <point x="360" y="564" type="line"/>
      <point x="378" y="582" type="line"/>
      <point x="318" y="640" type="line"/>
      <point x="378" y="698" type="line"/>
      <point x="360" y="716" type="line"/>
      <point x="300" y="656" type="line"/>
      <point x="240" y="716" type="line"/>
      <point x="222" y="698" type="line"/>
      <point x="282" y="640" type="line"/>
      <point x="222" y="582" type="line"/>
    </contour>
    <contour>
      <point x="300" y="500" type="move" name="_aboveLC"/>
    </contour>
  </outline>
</glyph>
<glyph name="perispomenicmb" format="1">
  <advance width="600"/>
  <unicode hex="0342"/>
  <outline>
    <component base="tildecmb"/>
    <contour>
      <point x="300" y="500" type="move" name="_aboveLC"/>
    </contour>
  </outline>
</glyph>
<glyph name="iotasubscriptcmb" format="1">
  <advance width="600"/>
  <unicode hex="0345"/>
  <outline>
    <contour>
      <point x="336" y="-188" type="curve" smooth="yes"/>
      <point x="353" y="-188"/>
      <point x="358" y="-186"/>
      <point x="370" y="-182" type="curve"/>
      <point x="364" y="-156" type="line"/>
      <point x="348" y="-160"/>
      <point x="344" y="-160"/>
      <point x="338" y="-160" type="curve" smooth="yes"/>
      <point x="326" y="-160"/>
      <point x="314" y="-150"/>
      <point x="314" y="-130" type="curve" smooth="yes"/>
      <point x="314" y="-112"/>
      <point x="315" y="-86"/>
      <point x="316" y="-68" type="curve"/>
      <point x="286" y="-68" type="line"/>
      <point x="286" y="-124" type="line" smooth="yes"/>
      <point x="286" y="-170"/>
      <point x="306" y="-188"/>
    </contour>
    <contour>
      <point x="300" y="-20" type="move" name="_belowLC"/>
    </contour>
  </outline>
</glyph>
<glyph name="lownumeralsign" format="1">
	<unicode hex="0375"/>
	<advance width="600"/>
	<outline>
		<contour>
			<point x="270" y="0" type="line"/>
			<point x="298" y="0" type="line"/>
			<point x="322" y="196" type="line"/>
			<point x="302" y="196" type="line"/>
			<point x="278" y="64" type="line"/>
		</contour>
	</outline>
</glyph>
<glyph name="dieresistonos" format="1">
  <advance width="600"/>
  <unicode hex="0385"/>
  <outline>
    <contour>
      <point x="212" y="604" type="curve" smooth="yes"/>
      <point x="230" y="604"/>
      <point x="242" y="616"/>
      <point x="242" y="634" type="curve" smooth="yes"/>
      <point x="242" y="652"/>
      <point x="230" y="664"/>
      <point x="212" y="664" type="curve" smooth="yes"/>
      <point x="194" y="664"/>
      <point x="182" y="652"/>
      <point x="182" y="634" type="curve" smooth="yes"/>
      <point x="182" y="616"/>
      <point x="194" y="604"/>
    </contour>
    <contour>
      <point x="388" y="604" type="curve" smooth="yes"/>
      <point x="406" y="604"/>
      <point x="418" y="616"/>
      <point x="418" y="634" type="curve" smooth="yes"/>
      <point x="418" y="652"/>
      <point x="406" y="664"/>
      <point x="388" y="664" type="curve" smooth="yes"/>
      <point x="370" y="664"/>
      <point x="358" y="652"/>
      <point x="358" y="634" type="curve" smooth="yes"/>
      <point x="358" y="616"/>
      <point x="370" y="604"/>
    </contour>
    <contour>
      <point x="268" y="562" type="line"/>
      <point x="292" y="562" type="line"/>
      <point x="350" y="724" type="line"/>
      <point x="312" y="724" type="line"/>
    </contour>
  </outline>
</glyph>
<glyph name="Alphatonos" format="1">
  <advance width="600"/>
  <unicode hex="0386"/>
  <outline>
    <contour>
      <point x="50" y="0" type="line"/>
      <point x="82" y="0" type="line"/>
      <point x="222" y="396" type="line" smooth="yes"/>
      <point x="250" y="476"/>
      <point x="274" y="544"/>
      <point x="298" y="626" type="curve"/>
      <point x="302" y="626" type="line"/>
      <point x="326" y="544"/>
      <point x="350" y="476"/>
      <point x="378" y="396" type="curve" smooth="yes"/>
      <point x="516" y="0" type="line"/>
      <point x="550" y="0" type="line"/>
      <point x="314" y="660" type="line"/>
      <point x="286" y="660" type="line"/>
    </contour>
    <contour>
      <point x="152" y="236" type="line"/>
      <point x="445" y="236" type="line"/>
      <point x="445" y="264" type="line"/>
      <point x="152" y="264" type="line"/>
    </contour>
    <contour>
      <point x="66" y="488" type="line"/>
      <point x="90" y="488" type="line"/>
      <point x="134" y="670" type="line"/>
      <point x="96" y="670" type="line"/>
    </contour>
  </outline>
</glyph>
<glyph name="anoteleia" format="1">
  <advance width="600"/>
  <unicode hex="0387"/>
  <outline>
    <contour>
      <point x="300" y="378" type="curve" smooth="yes"/>
      <point x="326" y="378"/>
      <point x="352" y="398"/>
      <point x="352" y="436" type="curve" smooth="yes"/>
      <point x="352" y="474"/>
      <point x="326" y="494"/>
      <point x="300" y="494" type="curve" smooth="yes"/>
      <point x="274" y="494"/>
      <point x="248" y="474"/>
      <point x="248" y="436" type="curve" smooth="yes"/>
      <point x="248" y="398"/>
      <point x="274" y="378"/>
    </contour>
  </outline>
</glyph>
<glyph name="Epsilontonos" format="1">
  <advance width="600"/>
  <unicode hex="0388"/>
  <outline>
    <contour>
      <point x="192" y="0" type="line"/>
      <point x="526" y="0" type="line"/>
      <point x="526" y="28" type="line"/>
      <point x="224" y="28" type="line"/>
      <point x="224" y="338" type="line"/>
      <point x="460" y="338" type="line"/>
      <point x="460" y="366" type="line"/>
      <point x="224" y="366" type="line"/>
      <point x="224" y="632" type="line"/>
      <point x="516" y="632" type="line"/>
      <point x="516" y="660" type="line"/>
      <point x="192" y="660" type="line"/>
    </contour>
    <component base="tonos.cap" xOffset="-220"/>
  </outline>
</glyph>
<glyph name="Epsilontonos" format="1">
  <advance width="600"/>
  <unicode hex="0388"/>
  <outline>
    <contour>
      <point x="192" y="0" type="line"/>
      <point x="526" y="0" type="line"/>
      <point x="526" y="28" type="line"/>
      <point x="224" y="28" type="line"/>
      <point x="224" y="338" type="line"/>
      <point x="460" y="338" type="line"/>
      <point x="460" y="366" type="line"/>
      <point x="224" y="366" type="line"/>
      <point x="224" y="632" type="line"/>
      <point x="516" y="632" type="line"/>
      <point x="516" y="660" type="line"/>
      <point x="192" y="660" type="line"/>
    </contour>
    <contour>
      <point x="46" y="488" type="line"/>
      <point x="70" y="488" type="line"/>
      <point x="114" y="670" type="line"/>
      <point x="76" y="670" type="line"/>
    </contour>
  </outline>
</glyph>
<glyph name="Etatonos" format="1">
  <advance width="600"/>
  <unicode hex="0389"/>
  <outline>
    <contour>
      <point x="192" y="0" type="line"/>
      <point x="224" y="0" type="line"/>
      <point x="224" y="338" type="line"/>
      <point x="476" y="338" type="line"/>
      <point x="476" y="0" type="line"/>
      <point x="508" y="0" type="line"/>
      <point x="508" y="660" type="line"/>
      <point x="476" y="660" type="line"/>
      <point x="476" y="366" type="line"/>
      <point x="224" y="366" type="line"/>
      <point x="224" y="660" type="line"/>
      <point x="192" y="660" type="line"/>
    </contour>
    <component base="tonos.cap" xOffset="-220"/>
  </outline>
</glyph>
<glyph name="Iotatonos" format="1">
  <advance width="600"/>
  <unicode hex="038A"/>
  <outline>
    <contour>
      <point x="172" y="0" type="line"/>
      <point x="488" y="0" type="line"/>
      <point x="488" y="28" type="line"/>
      <point x="346" y="28" type="line"/>
      <point x="346" y="632" type="line"/>
      <point x="488" y="632" type="line"/>
      <point x="488" y="660" type="line"/>
      <point x="172" y="660" type="line"/>
      <point x="172" y="632" type="line"/>
      <point x="314" y="632" type="line"/>
      <point x="314" y="28" type="line"/>
      <point x="172" y="28" type="line"/>
    </contour>
    <contour>
      <point x="46" y="488" type="line"/>
      <point x="70" y="488" type="line"/>
      <point x="114" y="670" type="line"/>
      <point x="76" y="670" type="line"/>
    </contour>
  </outline>
</glyph>
<glyph name="Omicrontonos" format="1">
  <advance width="600"/>
  <unicode hex="038C"/>
  <outline>
    <contour>
      <point x="344" y="-12" type="curve" smooth="yes"/>
      <point x="460" y="-12"/>
      <point x="544" y="114"/>
      <point x="544" y="332" type="curve" smooth="yes"/>
      <point x="544" y="550"/>
      <point x="460" y="672"/>
      <point x="344" y="672" type="curve" smooth="yes"/>
      <point x="227" y="672"/>
      <point x="144" y="550"/>
      <point x="144" y="332" type="curve" smooth="yes"/>
      <point x="144" y="114"/>
      <point x="227" y="-12"/>
    </contour>
    <contour>
      <point x="344" y="18" type="curve" smooth="yes"/>
      <point x="245" y="18"/>
      <point x="178" y="132"/>
      <point x="178" y="332" type="curve" smooth="yes"/>
      <point x="178" y="532"/>
      <point x="245" y="642"/>
      <point x="344" y="642" type="curve" smooth="yes"/>
      <point x="442" y="642"/>
      <point x="510" y="532"/>
      <point x="510" y="332" type="curve" smooth="yes"/>
      <point x="510" y="132"/>
      <point x="442" y="18"/>
    </contour>
    <component base="tonos.cap" xOffset="-220"/>
  </outline>
</glyph>
<glyph name="Upsilontonos" format="1">
  <advance width="600"/>
  <unicode hex="038E"/>
  <outline>
    <contour>
      <point x="364" y="0" type="line"/>
      <point x="396" y="0" type="line"/>
      <point x="396" y="245" type="line"/>
      <point x="584" y="660" type="line"/>
      <point x="554" y="660" type="line"/>
      <point x="452" y="434" type="line" smooth="yes"/>
      <point x="429" y="383"/>
      <point x="406" y="328"/>
      <point x="384" y="278" type="curve"/>
      <point x="380" y="278" type="line"/>
      <point x="356" y="328"/>
      <point x="333" y="378"/>
      <point x="308" y="434" type="curve" smooth="yes"/>
      <point x="208" y="660" type="line"/>
      <point x="176" y="660" type="line"/>
      <point x="364" y="245" type="line"/>
    </contour>
    <component base="tonos.cap" xOffset="-200"/>
  </outline>
</glyph>
<glyph name="Omegatonos" format="1">
  <advance width="600"/>
  <unicode hex="038F"/>
  <outline>
    <contour>
      <point x="132" y="0" type="line"/>
      <point x="288" y="0" type="line"/>
      <point x="288" y="24" type="line"/>
      <point x="220" y="98"/>
      <point x="178" y="208"/>
      <point x="178" y="358" type="curve" smooth="yes"/>
      <point x="178" y="518"/>
      <point x="238" y="642"/>
      <point x="342" y="642" type="curve" smooth="yes"/>
      <point x="446" y="642"/>
      <point x="506" y="518"/>
      <point x="506" y="358" type="curve" smooth="yes"/>
      <point x="506" y="208"/>
      <point x="464" y="98"/>
      <point x="396" y="24" type="curve"/>
      <point x="396" y="0" type="line"/>
      <point x="552" y="0" type="line"/>
      <point x="552" y="28" type="line"/>
      <point x="440" y="28" type="line"/>
      <point x="440" y="32" type="line"/>
      <point x="506" y="122"/>
      <point x="540" y="220"/>
      <point x="540" y="356" type="curve" smooth="yes"/>
      <point x="540" y="536"/>
      <point x="464" y="672"/>
      <point x="342" y="672" type="curve" smooth="yes"/>
      <point x="220" y="672"/>
      <point x="144" y="536"/>
      <point x="144" y="356" type="curve" smooth="yes"/>
      <point x="144" y="220"/>
      <point x="178" y="122"/>
      <point x="244" y="32" type="curve"/>
      <point x="244" y="28" type="line"/>
      <point x="132" y="28" type="line"/>
    </contour>
    <component base="tonos.cap" xOffset="-220"/>
  </outline>
</glyph>
<glyph name="Omegatonos" format="1">
  <advance width="600"/>
  <unicode hex="038F"/>
  <outline>
    <contour>
      <point x="46" y="488" type="line"/>
      <point x="70" y="488" type="line"/>
      <point x="114" y="670" type="line"/>
      <point x="76" y="670" type="line"/>
    </contour>
    <contour>
      <point x="120" y="0" type="line"/>
      <point x="288" y="0" type="line"/>
      <point x="288" y="24" type="line"/>
      <point x="216" y="92"/>
      <point x="166.0" y="207.49382716"/>
      <point x="166" y="358" type="curve" smooth="yes"/>
      <point x="166.0" y="518.353741497"/>
      <point x="230.683760684" y="642.0"/>
      <point x="342" y="642" type="curve" smooth="yes"/>
      <point x="453.316239316" y="642.0"/>
      <point x="518.0" y="518.353741497"/>
      <point x="518" y="358" type="curve" smooth="yes"/>
      <point x="518.0" y="207.49382716"/>
      <point x="468" y="92"/>
      <point x="396" y="24" type="curve"/>
      <point x="396" y="0" type="line"/>
      <point x="564" y="0" type="line"/>
      <point x="564" y="28" type="line"/>
      <point x="444" y="28" type="line"/>
      <point x="444" y="32" type="line"/>
      <point x="510" y="114"/>
      <point x="552.0" y="219.796178344"/>
      <point x="552" y="356" type="curve" smooth="yes"/>
      <point x="552.0" y="536.294478528"/>
      <point x="470.507462687" y="672.0"/>
      <point x="342" y="672" type="curve" smooth="yes"/>
      <point x="213.492537313" y="672.0"/>
      <point x="132.0" y="536.294478528"/>
      <point x="132" y="356" type="curve" smooth="yes"/>
      <point x="132.0" y="219.796178344"/>
      <point x="174" y="114"/>
      <point x="240" y="32" type="curve"/>
      <point x="240" y="28" type="line"/>
      <point x="120" y="28" type="line"/>
    </contour>
  </outline>
</glyph>
<glyph name="Gamma" format="1">
  <advance width="600"/>
  <unicode hex="0393"/>
  <outline>
    <contour>
      <point x="164" y="0" type="line"/>
      <point x="196" y="0" type="line"/>
      <point x="196" y="632" type="line"/>
      <point x="518" y="632" type="line"/>
      <point x="518" y="660" type="line"/>
      <point x="164" y="660" type="line"/>
    </contour>
  </outline>
</glyph>
<glyph name="Epsilon" format="1">
  <advance width="600"/>
  <unicode hex="0395"/>
  <outline>
    <component base="E"/>
    <contour>
      <point x="300" y="680" type="move" name="aboveUC"/>
    </contour>
  </outline>
</glyph>
<glyph name="Eta" format="1">
	<unicode hex="0397"/>
	<advance width="600"/>
	<outline>
		<component base="H"/>
		<contour>
			<point name="aboveUC" x="300" y="680" type="move"/>
		</contour>
		<contour>
			<point name="belowLC" x="300" y="-20" type="move"/>
		</contour>
	</outline>
</glyph>
<glyph name="Iota" format="1">
  <advance width="600"/>
  <unicode hex="0399"/>
  <outline>
    <component base="I"/>
    <contour>
      <point x="300" y="680" type="move" name="aboveUC"/>
    </contour>
    <contour>
      <point x="300" y="-20" type="move" name="belowLC"/>
    </contour>
  </outline>
</glyph>
<glyph name="Upsilon" format="1">
  <advance width="600"/>
  <unicode hex="03A5"/>
  <outline>
    <component base="Y"/>
    <contour>
      <point x="300" y="680" type="move" name="aboveUC"/>
    </contour>
  </outline>
</glyph>
<glyph name="Phi" format="1">
  <advance width="600"/>
  <unicode hex="03A6"/>
  <outline>
    <contour>
      <point x="290" y="68" type="curve"/>
      <point x="310" y="68" type="line" smooth="yes"/>
      <point x="464.06557377" y="68"/>
      <point x="564.0" y="172.0"/>
      <point x="564" y="332" type="curve" smooth="yes"/>
      <point x="564.0" y="492.0"/>
      <point x="464.06557377" y="592"/>
      <point x="310" y="592" type="curve" smooth="yes"/>
      <point x="290" y="592" type="line" smooth="yes"/>
      <point x="135.93442623" y="592"/>
      <point x="36.0" y="492.0"/>
      <point x="36" y="332" type="curve" smooth="yes"/>
      <point x="36.0" y="172.0"/>
      <point x="135.93442623" y="68.0"/>
    </contour>
    <contour>
      <point x="290" y="96" type="line" smooth="yes"/>
      <point x="153.80952381" y="96"/>
      <point x="70.0" y="192.0"/>
      <point x="70" y="332" type="curve" smooth="yes"/>
      <point x="70.0" y="472.0"/>
      <point x="153.80952381" y="564"/>
      <point x="290" y="564" type="curve" smooth="yes"/>
      <point x="310" y="564" type="line" smooth="yes"/>
      <point x="445.142857143" y="564"/>
      <point x="530.0" y="472.0"/>
      <point x="530" y="332" type="curve" smooth="yes"/>
      <point x="530.0" y="192.0"/>
      <point x="445.142857143" y="96"/>
      <point x="310" y="96" type="curve" smooth="yes"/>
    </contour>
    <contour>
      <point x="286" y="-22" type="line"/>
      <point x="314" y="-22" type="line"/>
      <point x="314" y="682" type="line"/>
      <point x="286" y="682" type="line"/>
    </contour>
  </outline>
</glyph>
<glyph name="Psi" format="1">
  <advance width="600"/>
  <unicode hex="03A8"/>
  <outline>
    <contour>
      <point x="288" y="262" type="curve"/>
      <point x="312" y="262" type="line" smooth="yes"/>
      <point x="453" y="262"/>
      <point x="536" y="337"/>
      <point x="536" y="504" type="curve" smooth="yes"/>
      <point x="536" y="660" type="line"/>
      <point x="504" y="660" type="line"/>
      <point x="504" y="504" type="line" smooth="yes"/>
      <point x="504" y="363"/>
      <point x="440" y="290"/>
      <point x="312" y="290" type="curve" smooth="yes"/>
      <point x="288" y="290" type="line" smooth="yes"/>
      <point x="160" y="290"/>
      <point x="96" y="363"/>
      <point x="96" y="504" type="curve" smooth="yes"/>
      <point x="96" y="660" type="line"/>
      <point x="64" y="660" type="line"/>
      <point x="64" y="504" type="line" smooth="yes"/>
      <point x="64" y="337"/>
      <point x="147" y="262"/>
    </contour>
    <contour>
      <point x="284" y="0" type="line"/>
      <point x="316" y="0" type="line"/>
      <point x="316" y="660" type="line"/>
      <point x="284" y="660" type="line"/>
    </contour>
  </outline>
</glyph>
<glyph name="alpha" format="1">
  <advance width="600"/>
  <unicode hex="03B1"/>
  <outline>
    <contour>
      <point x="266" y="-12" type="curve" smooth="yes"/>
      <point x="339" y="-12"/>
      <point x="396" y="24"/>
      <point x="446" y="100" type="curve"/>
      <point x="448" y="100" type="line"/>
      <point x="434" y="26"/>
      <point x="470" y="-12"/>
      <point x="518" y="-12" type="curve" smooth="yes"/>
      <point x="538" y="-12"/>
      <point x="552" y="-6"/>
      <point x="562" y="-2" type="curve"/>
      <point x="555" y="24" type="line"/>
      <point x="546" y="20"/>
      <point x="532" y="16"/>
      <point x="520" y="16" type="curve" smooth="yes"/>
      <point x="494" y="16"/>
      <point x="472" y="38"/>
      <point x="472" y="70" type="curve" smooth="yes"/>
      <point x="472" y="170"/>
      <point x="504" y="340"/>
      <point x="530" y="478" type="curve"/>
      <point x="500" y="478" type="line"/>
      <point x="476" y="340" type="line"/>
      <point x="474" y="340" type="line"/>
      <point x="450" y="451"/>
      <point x="367" y="490"/>
      <point x="296" y="490" type="curve" smooth="yes"/>
      <point x="176" y="490"/>
      <point x="70" y="394"/>
      <point x="70" y="225" type="curve" smooth="yes"/>
      <point x="70" y="67"/>
      <point x="151" y="-12"/>
    </contour>
    <contour>
      <point x="268" y="16" type="curve" smooth="yes"/>
      <point x="163" y="16"/>
      <point x="102" y="99"/>
      <point x="102" y="225" type="curve" smooth="yes"/>
      <point x="102" y="376"/>
      <point x="195" y="462"/>
      <point x="294" y="462" type="curve" smooth="yes"/>
      <point x="349" y="462"/>
      <point x="428" y="443"/>
      <point x="460" y="298" type="curve"/>
      <point x="452" y="202" type="line" smooth="yes"/>
      <point x="444" y="101"/>
      <point x="357" y="16"/>
    </contour>
  </outline>
</glyph>
<glyph name="beta" format="1">
  <advance width="600"/>
  <unicode hex="03B2"/>
  <outline>
    <contour>
      <point x="110" y="-180" type="line"/>
      <point x="140" y="-180" type="line"/>
      <point x="140" y="-94"/>
      <point x="140" y="-16"/>
      <point x="138" y="68" type="curve"/>
      <point x="190" y="9"/>
      <point x="263" y="-12"/>
      <point x="334" y="-12" type="curve" smooth="yes"/>
      <point x="442" y="-12"/>
      <point x="532" y="68"/>
      <point x="532" y="188" type="curve" smooth="yes"/>
      <point x="532" y="296"/>
      <point x="463" y="370"/>
      <point x="344" y="384" type="curve"/>
      <point x="344" y="388" type="line"/>
      <point x="425" y="432"/>
      <point x="468" y="492"/>
      <point x="468" y="568" type="curve" smooth="yes"/>
      <point x="468" y="678"/>
      <point x="387" y="734"/>
      <point x="298" y="734" type="curve" smooth="yes"/>
      <point x="172" y="734"/>
      <point x="110" y="640"/>
      <point x="110" y="512" type="curve" smooth="yes"/>
    </contour>
    <contour>
      <point x="334" y="16" type="curve" smooth="yes"/>
      <point x="269" y="16"/>
      <point x="196" y="33"/>
      <point x="140" y="104" type="curve"/>
      <point x="140" y="236"/>
      <point x="140" y="366"/>
      <point x="140" y="498" type="curve" smooth="yes"/>
      <point x="140" y="638"/>
      <point x="204" y="706"/>
      <point x="300" y="706" type="curve" smooth="yes"/>
      <point x="374" y="706"/>
      <point x="436" y="660"/>
      <point x="436" y="568" type="curve" smooth="yes"/>
      <point x="436" y="496"/>
      <point x="382" y="410"/>
      <point x="248" y="380" type="curve"/>
      <point x="256" y="352" type="line"/>
      <point x="276" y="356"/>
      <point x="296" y="358"/>
      <point x="314" y="358" type="curve" smooth="yes"/>
      <point x="439" y="358"/>
      <point x="500" y="286"/>
      <point x="500" y="188" type="curve" smooth="yes"/>
      <point x="500" y="84"/>
      <point x="426" y="16"/>
    </contour>
  </outline>
</glyph>
<glyph name="gamma" format="1">
  <advance width="600"/>
  <unicode hex="03B3"/>
  <outline>
    <contour>
      <point x="284" y="-180" type="curve"/>
      <point x="314" y="-180" type="line"/>
      <point x="314" y="-124"/>
      <point x="312" y="-56"/>
      <point x="306" y="-2" type="curve"/>
      <point x="434" y="197"/>
      <point x="496" y="316"/>
      <point x="530" y="478" type="curve"/>
      <point x="498" y="478" type="line"/>
      <point x="474" y="330"/>
      <point x="392" y="185"/>
      <point x="305" y="41" type="curve"/>
      <point x="301" y="41" type="line"/>
      <point x="268" y="203"/>
      <point x="178" y="386"/>
      <point x="88" y="490" type="curve"/>
      <point x="60" y="478" type="line"/>
      <point x="168" y="358"/>
      <point x="286.0" y="118.0"/>
      <point x="286" y="-72" type="curve" smooth="yes"/>
      <point x="286" y="-114"/>
      <point x="286" y="-134"/>
    </contour>
  </outline>
</glyph>
<glyph name="delta" format="1">
  <advance width="600"/>
  <unicode hex="03B4"/>
  <outline>
    <contour>
      <point x="303" y="-12" type="curve" smooth="yes"/>
      <point x="444.272727273" y="-12.0"/>
      <point x="525.0" y="80.0"/>
      <point x="525" y="216" type="curve" smooth="yes"/>
      <point x="525.0" y="340.0"/>
      <point x="431" y="409"/>
      <point x="337" y="466" type="curve" smooth="yes"/>
      <point x="230" y="531"/>
      <point x="163.0" y="570.0"/>
      <point x="163" y="636" type="curve" smooth="yes"/>
      <point x="163.0" y="672.0"/>
      <point x="196.939393939" y="706.0"/>
      <point x="275" y="706" type="curve" smooth="yes"/>
      <point x="328.537037037" y="706.0"/>
      <point x="395.309813383" y="699.473840485"/>
      <point x="511" y="658" type="curve"/>
      <point x="521" y="688" type="line"/>
      <point x="410.982463913" y="725.035606207"/>
      <point x="341.267857143" y="734.0"/>
      <point x="277" y="734" type="curve" smooth="yes"/>
      <point x="174.975903614" y="734.0"/>
      <point x="131.0" y="686.0"/>
      <point x="131" y="634" type="curve" smooth="yes"/>
      <point x="131.0" y="558.0"/>
      <point x="212" y="508"/>
      <point x="323" y="440" type="curve" smooth="yes"/>
      <point x="412" y="385"/>
      <point x="493.0" y="322.0"/>
      <point x="493" y="214" type="curve" smooth="yes"/>
      <point x="493.0" y="104.0"/>
      <point x="435.393617021" y="16.0"/>
      <point x="303" y="16" type="curve" smooth="yes"/>
      <point x="201.969072165" y="16.0"/>
      <point x="107.0" y="92.0"/>
      <point x="107" y="206" type="curve" smooth="yes"/>
      <point x="107.0" y="318.909090909"/>
      <point x="192.714640471" y="404.941025697"/>
      <point x="343" y="436" type="curve"/>
      <point x="323" y="458" type="line"/>
      <point x="183.741493944" y="427.944207326"/>
      <point x="75.0" y="339.327868852"/>
      <point x="75" y="204" type="curve" smooth="yes"/>
      <point x="75.0" y="68.0"/>
      <point x="192.026548673" y="-12.0"/>
    </contour>
  </outline>
</glyph>
<glyph name="epsilon" format="1">
  <advance width="600"/>
  <unicode hex="03B5"/>
  <outline>
    <contour>
      <point x="313" y="-12" type="curve" smooth="yes"/>
      <point x="402.207920792" y="-12.0"/>
      <point x="457.862745373" y="6.65079387306"/>
      <point x="525" y="61" type="curve"/>
      <point x="508" y="85" type="line"/>
      <point x="443.63756078" y="31.3646339833"/>
      <point x="392.977900552" y="16.0"/>
      <point x="317" y="16" type="curve" smooth="yes"/>
      <point x="202.505376344" y="16.0"/>
      <point x="141.0" y="60.0"/>
      <point x="141" y="129" type="curve" smooth="yes"/>
      <point x="141.0" y="197.0"/>
      <point x="205.384615385" y="238.0"/>
      <point x="327" y="238" type="curve" smooth="yes"/>
      <point x="349" y="238"/>
      <point x="367" y="238"/>
      <point x="395" y="236" type="curve"/>
      <point x="395" y="268" type="line"/>
      <point x="370" y="266"/>
      <point x="359" y="266"/>
      <point x="341" y="266" type="curve" smooth="yes"/>
      <point x="216.541666667" y="266.0"/>
      <point x="167.0" y="310.0"/>
      <point x="167" y="366" type="curve" smooth="yes"/>
      <point x="167.0" y="432.0"/>
      <point x="229.8125" y="462.0"/>
      <point x="317" y="462" type="curve" smooth="yes"/>
      <point x="381.765432099" y="462.0"/>
      <point x="435.12293311" y="442.946570837"/>
      <point x="489" y="402" type="curve"/>
      <point x="505" y="425" type="line"/>
      <point x="452.365630699" y="466.89266128"/>
      <point x="392.977272727" y="490.0"/>
      <point x="319" y="490" type="curve" smooth="yes"/>
      <point x="211.824742268" y="490.0"/>
      <point x="135.0" y="448.0"/>
      <point x="135" y="368" type="curve" smooth="yes"/>
      <point x="135.0" y="318.0"/>
      <point x="164.782080642" y="276.887167743"/>
      <point x="217" y="256" type="curve"/>
      <point x="217" y="252" type="line"/>
      <point x="163.132832596" y="237.497301084"/>
      <point x="109.0" y="200.0"/>
      <point x="109" y="128" type="curve" smooth="yes"/>
      <point x="109.0" y="46.0"/>
      <point x="180.495327103" y="-12.0"/>
    </contour>
  </outline>
</glyph>
<glyph name="zeta" format="1">
  <advance width="600"/>
  <unicode hex="03B6"/>
  <outline>
    <contour>
      <point x="462" y="-182" type="line"/>
      <point x="500" y="-134"/>
      <point x="516" y="-98"/>
      <point x="516" y="-72" type="curve" smooth="yes"/>
      <point x="516.0" y="-14.0"/>
      <point x="460.757357037" y="0.108506694328"/>
      <point x="360" y="18" type="curve" smooth="yes"/>
      <point x="259.551110017" y="35.8575804415"/>
      <point x="172.0" y="76.0"/>
      <point x="172" y="218" type="curve" smooth="yes"/>
      <point x="172.0" y="394.0"/>
      <point x="365.991001934" y="589.993761341"/>
      <point x="516" y="694" type="curve"/>
      <point x="520" y="694" type="line"/>
      <point x="520" y="722" type="line"/>
      <point x="170" y="722" type="line"/>
      <point x="170" y="694" type="line"/>
      <point x="248.446393591" y="695.93694799"/>
      <point x="398.0" y="696.0"/>
      <point x="477" y="696" type="curve"/>
      <point x="342.99188395" y="606.994609489"/>
      <point x="140.0" y="404.0"/>
      <point x="140" y="218" type="curve" smooth="yes"/>
      <point x="140.0" y="62.0"/>
      <point x="229.374595744" y="12.9979567256"/>
      <point x="342" y="-8" type="curve" smooth="yes"/>
      <point x="457.29185673" y="-29.5586398764"/>
      <point x="486.0" y="-42.0"/>
      <point x="486" y="-74" type="curve" smooth="yes"/>
      <point x="486" y="-102"/>
      <point x="476" y="-116"/>
      <point x="436" y="-164" type="curve"/>
    </contour>
  </outline>
</glyph>
<glyph name="eta" format="1">
  <advance width="600"/>
  <unicode hex="03B7"/>
  <outline>
    <contour>
      <point x="474" y="-180" type="curve"/>
      <point x="504" y="-180" type="line"/>
      <point x="504" y="308" type="line" smooth="yes"/>
      <point x="504" y="432.0"/>
      <point x="458.366197183" y="490.0"/>
      <point x="360" y="490" type="curve" smooth="yes"/>
      <point x="272.814814815" y="490.0"/>
      <point x="213.790288717" y="459.703937012"/>
      <point x="146" y="364" type="curve"/>
      <point x="144" y="364" type="line"/>
      <point x="140" y="478" type="line"/>
      <point x="110" y="478" type="line"/>
      <point x="114" y="430"/>
      <point x="114" y="398"/>
      <point x="114" y="360" type="curve" smooth="yes"/>
      <point x="114" y="0" type="line"/>
      <point x="144" y="0" type="line"/>
      <point x="144" y="324" type="line"/>
      <point x="228.711878541" y="435.620357607"/>
      <point x="277.744186047" y="462.0"/>
      <point x="357" y="462" type="curve" smooth="yes"/>
      <point x="440.401709402" y="462.0"/>
      <point x="476.0" y="410.0"/>
      <point x="476" y="304" type="curve" smooth="yes"/>
      <point x="476" y="143"/>
      <point x="476" y="-19"/>
    </contour>
  </outline>
</glyph>
<glyph name="kappa" format="1">
  <advance width="600"/>
  <unicode hex="03BA"/>
  <outline>
    <contour>
      <point x="130" y="0" type="line"/>
      <point x="158" y="0" type="line"/>
      <point x="158" y="22" type="line" smooth="yes"/>
      <point x="158" y="75"/>
      <point x="169" y="126"/>
      <point x="192" y="166" type="curve" smooth="yes"/>
      <point x="272" y="308"/>
      <point x="426" y="422"/>
      <point x="546" y="460" type="curve"/>
      <point x="540" y="490" type="line"/>
      <point x="414" y="448"/>
      <point x="249" y="329"/>
      <point x="164" y="172" type="curve"/>
      <point x="160" y="172" type="line"/>
      <point x="160" y="372" type="line" smooth="yes"/>
      <point x="160" y="412"/>
      <point x="158" y="456"/>
      <point x="152" y="478" type="curve"/>
      <point x="122" y="478" type="line"/>
      <point x="130" y="442"/>
      <point x="130" y="398"/>
      <point x="130" y="360" type="curve" smooth="yes"/>
    </contour>
    <contour>
      <point x="536" y="-6" type="curve"/>
      <point x="570" y="0" type="line"/>
      <point x="476" y="101"/>
      <point x="366" y="225"/>
      <point x="312" y="333" type="curve"/>
      <point x="288" y="315" type="line"/>
      <point x="343" y="210"/>
      <point x="458" y="80"/>
    </contour>
  </outline>
</glyph>
<glyph name="mu" format="1">
  <advance width="600"/>
  <unicode hex="03BC"/>
  <outline>
    <contour>
      <point x="100" y="-180" type="line"/>
      <point x="130" y="-180" type="line"/>
      <point x="126" y="-94"/>
      <point x="126" y="-55"/>
      <point x="126" y="64" type="curve"/>
      <point x="159" y="3"/>
      <point x="206" y="-12"/>
      <point x="266" y="-12" type="curve" smooth="yes"/>
      <point x="334" y="-12"/>
      <point x="399" y="22"/>
      <point x="448" y="102" type="curve"/>
      <point x="450" y="102" type="line"/>
      <point x="444" y="10"/>
      <point x="458" y="-12"/>
      <point x="498" y="-12" type="curve" smooth="yes"/>
      <point x="509" y="-12"/>
      <point x="516" y="-10"/>
      <point x="524" y="-8" type="curve"/>
      <point x="518" y="18" type="line"/>
      <point x="508" y="16"/>
      <point x="504" y="16"/>
      <point x="500" y="16" type="curve" smooth="yes"/>
      <point x="488" y="16"/>
      <point x="478" y="26"/>
      <point x="478" y="46" type="curve" smooth="yes"/>
      <point x="478" y="190"/>
      <point x="479" y="334"/>
      <point x="480" y="478" type="curve"/>
      <point x="450" y="478" type="line"/>
      <point x="450" y="144" type="line"/>
      <point x="382" y="29"/>
      <point x="320" y="16"/>
      <point x="262" y="16" type="curve" smooth="yes"/>
      <point x="168" y="16"/>
      <point x="130" y="80"/>
      <point x="130" y="184" type="curve" smooth="yes"/>
      <point x="130" y="478" type="line"/>
      <point x="100" y="478" type="line"/>
    </contour>
  </outline>
</glyph>
<glyph name="nu" format="1">
  <advance width="600"/>
  <unicode hex="03BD"/>
  <outline>
    <contour>
      <point x="285" y="0" type="curve"/>
      <point x="319" y="0" type="line"/>
      <point x="419" y="162"/>
      <point x="502" y="314"/>
      <point x="525" y="478" type="curve"/>
      <point x="493" y="478" type="line"/>
      <point x="479" y="334"/>
      <point x="387" y="166"/>
      <point x="309" y="32" type="curve"/>
      <point x="305" y="32" type="line"/>
      <point x="271" y="204"/>
      <point x="182" y="374"/>
      <point x="93" y="490" type="curve"/>
      <point x="65" y="478" type="line"/>
      <point x="160" y="352"/>
      <point x="243" y="194"/>
    </contour>
    <contour>
      <point x="310" y="500" type="move" name="aboveLC"/>
    </contour>
    <contour>
      <point x="290" y="-22" type="move" name="belowLC"/>
    </contour>
  </outline>
</glyph>
<glyph name="xi" format="1">
  <advance width="600"/>
  <unicode hex="03BE"/>
  <outline>
    <contour>
      <point x="466" y="-182" type="line"/>
      <point x="504" y="-134"/>
      <point x="520" y="-98"/>
      <point x="520" y="-72" type="curve" smooth="yes"/>
      <point x="520" y="-14"/>
      <point x="465" y="0"/>
      <point x="364" y="18" type="curve" smooth="yes"/>
      <point x="264" y="36"/>
      <point x="166" y="68"/>
      <point x="166" y="186" type="curve" smooth="yes"/>
      <point x="166" y="308"/>
      <point x="277" y="374"/>
      <point x="378" y="374" type="curve" smooth="yes"/>
      <point x="406" y="374"/>
      <point x="422" y="375"/>
      <point x="448" y="370" type="curve"/>
      <point x="448" y="404" type="line"/>
      <point x="420" y="399"/>
      <point x="408" y="400"/>
      <point x="380" y="400" type="curve" smooth="yes"/>
      <point x="312" y="400"/>
      <point x="216" y="458"/>
      <point x="216" y="548" type="curve" smooth="yes"/>
      <point x="216" y="642"/>
      <point x="295" y="694"/>
      <point x="373" y="694" type="curve" smooth="yes"/>
      <point x="520" y="694" type="line"/>
      <point x="520" y="722" type="line"/>
      <point x="118" y="722" type="line"/>
      <point x="118" y="694" type="line"/>
      <point x="187" y="696"/>
      <point x="218" y="696"/>
      <point x="287" y="696" type="curve"/>
      <point x="224" y="667"/>
      <point x="184" y="620"/>
      <point x="184" y="548" type="curve" smooth="yes"/>
      <point x="184" y="470"/>
      <point x="239" y="422"/>
      <point x="304" y="394" type="curve"/>
      <point x="304" y="390" type="line"/>
      <point x="213" y="366"/>
      <point x="134" y="290"/>
      <point x="134" y="186" type="curve" smooth="yes"/>
      <point x="134" y="56"/>
      <point x="233" y="13"/>
      <point x="346" y="-8" type="curve" smooth="yes"/>
      <point x="462" y="-29"/>
      <point x="490" y="-42"/>
      <point x="490" y="-74" type="curve" smooth="yes"/>
      <point x="490" y="-102"/>
      <point x="480" y="-116"/>
      <point x="440" y="-164" type="curve"/>
    </contour>
  </outline>
</glyph>
<glyph name="omicron" format="1">
  <advance width="600"/>
  <unicode hex="03BF"/>
  <outline>
    <contour>
      <point x="300" y="-12" type="curve" smooth="yes"/>
      <point x="429.45631068" y="-12.0"/>
      <point x="526.0" y="78.0"/>
      <point x="526" y="238" type="curve" smooth="yes"/>
      <point x="526.0" y="400.0"/>
      <point x="429.45631068" y="490.0"/>
      <point x="300" y="490" type="curve" smooth="yes"/>
      <point x="170.54368932" y="490.0"/>
      <point x="74.0" y="400.0"/>
      <point x="74" y="238" type="curve" smooth="yes"/>
      <point x="74.0" y="78.0"/>
      <point x="170.54368932" y="-12.0"/>
    </contour>
    <contour>
      <point x="300" y="16" type="curve" smooth="yes"/>
      <point x="181.816091954" y="16.0"/>
      <point x="106.0" y="104.0"/>
      <point x="106" y="238" type="curve" smooth="yes"/>
      <point x="106.0" y="372.0"/>
      <point x="181.816091954" y="462.0"/>
      <point x="300" y="462" type="curve" smooth="yes"/>
      <point x="418.183908046" y="462.0"/>
      <point x="494.0" y="372.0"/>
      <point x="494" y="238" type="curve" smooth="yes"/>
      <point x="494.0" y="104.0"/>
      <point x="418.183908046" y="16.0"/>
    </contour>
  </outline>
</glyph>
<glyph name="pi" format="1">
  <advance width="600"/>
  <unicode hex="03C0"/>
  <outline>
    <contour>
      <point x="496" y="-12" type="curve" smooth="yes"/>
      <point x="513" y="-12"/>
      <point x="522" y="-8"/>
      <point x="534" y="-4" type="curve"/>
      <point x="528" y="22" type="line"/>
      <point x="512" y="18"/>
      <point x="504" y="16"/>
      <point x="498" y="16" type="curve" smooth="yes"/>
      <point x="466" y="16"/>
      <point x="452" y="32"/>
      <point x="452" y="66" type="curve" smooth="yes"/>
      <point x="452" y="132"/>
      <point x="454" y="319"/>
      <point x="460" y="448" type="curve"/>
      <point x="560" y="448" type="line"/>
      <point x="560" y="478" type="line"/>
      <point x="106" y="478" type="line"/>
      <point x="40" y="474" type="line"/>
      <point x="40" y="448" type="line"/>
      <point x="144" y="448" type="line"/>
      <point x="144" y="300"/>
      <point x="142" y="150"/>
      <point x="128" y="0" type="curve"/>
      <point x="158" y="-2" type="line"/>
      <point x="168" y="148"/>
      <point x="172" y="298"/>
      <point x="172" y="448" type="curve"/>
      <point x="430" y="448" type="line"/>
      <point x="428" y="323"/>
      <point x="424" y="138"/>
      <point x="424" y="72" type="curve" smooth="yes"/>
      <point x="424" y="12"/>
      <point x="447" y="-12"/>
    </contour>
  </outline>
</glyph>
<glyph name="sigma" format="1">
  <advance width="600"/>
  <unicode hex="03C3"/>
  <outline>
    <contour>
      <point x="294" y="-12" type="curve" smooth="yes"/>
      <point x="413" y="-12"/>
      <point x="514" y="76"/>
      <point x="514" y="234" type="curve" smooth="yes"/>
      <point x="514" y="338"/>
      <point x="470" y="410"/>
      <point x="398" y="450" type="curve"/>
      <point x="398" y="454" type="line"/>
      <point x="456" y="454"/>
      <point x="510" y="452"/>
      <point x="568" y="448" type="curve"/>
      <point x="568" y="478" type="line"/>
      <point x="296" y="478" type="line" smooth="yes"/>
      <point x="178.043859649" y="478"/>
      <point x="70.0" y="404.0"/>
      <point x="70" y="234" type="curve" smooth="yes"/>
      <point x="70.0" y="76.0"/>
      <point x="175.061946903" y="-12.0"/>
    </contour>
    <contour>
      <point x="294" y="16" type="curve" smooth="yes"/>
      <point x="187.113402062" y="16.0"/>
      <point x="102.0" y="102.0"/>
      <point x="102" y="234" type="curve" smooth="yes"/>
      <point x="102.0" y="376.0"/>
      <point x="189.102040816" y="450.0"/>
      <point x="296" y="450" type="curve" smooth="yes"/>
      <point x="415" y="450"/>
      <point x="482" y="346"/>
      <point x="482" y="234" type="curve" smooth="yes"/>
      <point x="482" y="102"/>
      <point x="401" y="16"/>
    </contour>
  </outline>
</glyph>
<glyph name="upsilon" format="1">
  <advance width="600"/>
  <unicode hex="03C5"/>
  <outline>
    <contour>
      <point x="294" y="-12" type="curve" smooth="yes"/>
      <point x="413" y="-12"/>
      <point x="518" y="74"/>
      <point x="518" y="249" type="curve" smooth="yes"/>
      <point x="518" y="331"/>
      <point x="502" y="408"/>
      <point x="470" y="490" type="curve"/>
      <point x="440" y="480" type="line"/>
      <point x="474" y="398"/>
      <point x="486" y="325"/>
      <point x="486" y="250" type="curve" smooth="yes"/>
      <point x="486" y="90"/>
      <point x="400" y="16"/>
      <point x="296" y="16" type="curve" smooth="yes"/>
      <point x="205" y="16"/>
      <point x="122" y="57"/>
      <point x="122" y="186" type="curve" smooth="yes"/>
      <point x="122" y="237"/>
      <point x="128" y="312"/>
      <point x="128" y="372" type="curve" smooth="yes"/>
      <point x="128" y="412"/>
      <point x="128" y="444"/>
      <point x="122" y="478" type="curve"/>
      <point x="92" y="478" type="line"/>
      <point x="98" y="430"/>
      <point x="98" y="398"/>
      <point x="98" y="360" type="curve" smooth="yes"/>
      <point x="98" y="302"/>
      <point x="94" y="243"/>
      <point x="94" y="185" type="curve" smooth="yes"/>
      <point x="94" y="39"/>
      <point x="184" y="-12"/>
    </contour>
    <contour>
      <point x="300" y="500" type="move" name="aboveLC"/>
    </contour>
  </outline>
</glyph>
<glyph name="phi" format="1">
  <advance width="600"/>
  <unicode hex="03C6"/>
  <outline>
    <contour>
      <point x="291" y="-10" type="curve"/>
      <point x="291" y="16" type="line"/>
      <point x="174" y="16"/>
      <point x="69" y="104"/>
      <point x="69" y="240" type="curve" smooth="yes"/>
      <point x="69" y="376"/>
      <point x="174" y="462"/>
      <point x="291" y="462" type="curve"/>
      <point x="291" y="488" type="line"/>
      <point x="162" y="488"/>
      <point x="37" y="400"/>
      <point x="37" y="240" type="curve" smooth="yes"/>
      <point x="37" y="80"/>
      <point x="162" y="-10"/>
    </contour>
    <contour>
      <point x="309" y="-10" type="line"/>
      <point x="438" y="-10"/>
      <point x="563" y="80"/>
      <point x="563" y="240" type="curve" smooth="yes"/>
      <point x="563" y="400"/>
      <point x="444" y="488"/>
      <point x="309" y="488" type="curve"/>
      <point x="309" y="462" type="line"/>
      <point x="435" y="462"/>
      <point x="531" y="376"/>
      <point x="531" y="240" type="curve" smooth="yes"/>
      <point x="531" y="104"/>
      <point x="426" y="16"/>
      <point x="309" y="16" type="curve"/>
    </contour>
    <contour>
      <point x="285" y="-180" type="line"/>
      <point x="315" y="-180" type="line"/>
      <point x="315" y="618" type="line"/>
      <point x="285" y="618" type="line"/>
    </contour>
  </outline>
</glyph>
<glyph name="chi" format="1">
  <advance width="600"/>
  <unicode hex="03C7"/>
  <outline>
    <contour>
      <point x="96" y="-192" type="line"/>
      <point x="298" y="134" type="line"/>
      <point x="302" y="134" type="line"/>
      <point x="516" y="-192" type="line"/>
      <point x="544" y="-180" type="line"/>
      <point x="316" y="160" type="line"/>
      <point x="510" y="478" type="line"/>
      <point x="476" y="478" type="line"/>
      <point x="302" y="190" type="line"/>
      <point x="298" y="190" type="line"/>
      <point x="104" y="490" type="line"/>
      <point x="74" y="478" type="line"/>
      <point x="284" y="162" type="line"/>
      <point x="68" y="-180" type="line"/>
    </contour>
  </outline>
</glyph>
<glyph name="psi" format="1">
  <advance width="600"/>
  <unicode hex="03C8"/>
  <outline>
    <contour>
      <point x="285" y="-12" type="curve"/>
      <point x="287" y="16" type="line"/>
      <point x="159" y="16"/>
      <point x="87" y="86"/>
      <point x="87" y="212" type="curve" smooth="yes"/>
      <point x="87" y="238"/>
      <point x="89" y="308"/>
      <point x="89" y="372" type="curve" smooth="yes"/>
      <point x="89" y="412"/>
      <point x="89" y="444"/>
      <point x="85" y="478" type="curve"/>
      <point x="55" y="478" type="line"/>
      <point x="59" y="430"/>
      <point x="59" y="398"/>
      <point x="59" y="360" type="curve" smooth="yes"/>
      <point x="59" y="211" type="line" smooth="yes"/>
      <point x="59" y="68"/>
      <point x="141" y="-12"/>
    </contour>
    <contour>
      <point x="301" y="-12" type="line"/>
      <point x="455" y="-12"/>
      <point x="555" y="84"/>
      <point x="555" y="254" type="curve" smooth="yes"/>
      <point x="555" y="343"/>
      <point x="541" y="402"/>
      <point x="507" y="490" type="curve"/>
      <point x="477" y="480" type="line"/>
      <point x="513" y="392"/>
      <point x="523" y="337"/>
      <point x="523" y="255" type="curve" smooth="yes"/>
      <point x="523" y="100"/>
      <point x="441" y="16"/>
      <point x="303" y="16" type="curve"/>
    </contour>
    <contour>
      <point x="284" y="-180" type="line"/>
      <point x="312" y="-180" type="line"/>
      <point x="312" y="618" type="line"/>
      <point x="284" y="618" type="line"/>
    </contour>
  </outline>
</glyph>
<glyph name="omega" format="1">
  <advance width="600"/>
  <unicode hex="03C9"/>
  <outline>
    <contour>
      <point x="186" y="-12" type="curve" smooth="yes"/>
      <point x="234" y="-12"/>
      <point x="276" y="17"/>
      <point x="298" y="72" type="curve"/>
      <point x="302" y="72" type="line"/>
      <point x="324" y="17"/>
      <point x="366" y="-12"/>
      <point x="414" y="-12" type="curve" smooth="yes"/>
      <point x="494" y="-12"/>
      <point x="554" y="55"/>
      <point x="554" y="212" type="curve" smooth="yes"/>
      <point x="554" y="334"/>
      <point x="516" y="408"/>
      <point x="458" y="490" type="curve"/>
      <point x="432" y="474" type="line"/>
      <point x="492" y="389"/>
      <point x="522" y="326"/>
      <point x="522" y="212" type="curve" smooth="yes"/>
      <point x="522" y="75"/>
      <point x="476" y="16"/>
      <point x="412" y="16" type="curve" smooth="yes"/>
      <point x="366" y="16"/>
      <point x="314" y="48"/>
      <point x="314" y="160" type="curve" smooth="yes"/>
      <point x="314" y="196"/>
      <point x="314" y="242"/>
      <point x="318" y="290" type="curve"/>
      <point x="280" y="290" type="line"/>
      <point x="284" y="242"/>
      <point x="284" y="196"/>
      <point x="284" y="160" type="curve" smooth="yes"/>
      <point x="284" y="48"/>
      <point x="234" y="16"/>
      <point x="188" y="16" type="curve" smooth="yes"/>
      <point x="129" y="16"/>
      <point x="76" y="80"/>
      <point x="76" y="206" type="curve" smooth="yes"/>
      <point x="76" y="324"/>
      <point x="110" y="393"/>
      <point x="170" y="472" type="curve"/>
      <point x="146" y="490" type="line"/>
      <point x="90" y="411"/>
      <point x="46" y="330"/>
      <point x="46" y="210" type="curve" smooth="yes"/>
      <point x="46" y="58"/>
      <point x="112" y="-12"/>
    </contour>
    <contour>
      <point x="300" y="500" type="move" name="aboveLC"/>
    </contour>
    <contour>
      <point x="300" y="-20" type="move" name="belowLC"/>
    </contour>
  </outline>
</glyph>
<glyph name="beta.alt" format="1">
  <advance width="600"/>
  <unicode hex="03D0"/>
  <outline>
    <contour>
      <point x="330" y="-12" type="curve" smooth="yes"/>
      <point x="445" y="-12"/>
      <point x="532" y="72"/>
      <point x="532" y="182" type="curve" smooth="yes"/>
      <point x="532" y="296"/>
      <point x="464" y="374"/>
      <point x="334" y="384" type="curve"/>
      <point x="334" y="388" type="line"/>
      <point x="419" y="432"/>
      <point x="468" y="492"/>
      <point x="468" y="568" type="curve" smooth="yes"/>
      <point x="468" y="679"/>
      <point x="385" y="734"/>
      <point x="300" y="734" type="curve" smooth="yes"/>
      <point x="172" y="734"/>
      <point x="110" y="641"/>
      <point x="110" y="512" type="curve" smooth="yes"/>
      <point x="110" y="212" type="line" smooth="yes"/>
      <point x="110" y="42"/>
      <point x="237" y="-12"/>
    </contour>
    <contour>
      <point x="330" y="16" type="curve" smooth="yes"/>
      <point x="268" y="16"/>
      <point x="140" y="50"/>
      <point x="140" y="224" type="curve" smooth="yes"/>
      <point x="140" y="320"/>
      <point x="140" y="366"/>
      <point x="140" y="498" type="curve" smooth="yes"/>
      <point x="140" y="641"/>
      <point x="204" y="706"/>
      <point x="302" y="706" type="curve" smooth="yes"/>
      <point x="374" y="706"/>
      <point x="436" y="660"/>
      <point x="436" y="568" type="curve" smooth="yes"/>
      <point x="436" y="464"/>
      <point x="343" y="389"/>
      <point x="126" y="357" type="curve"/>
      <point x="134" y="329" type="line"/>
      <point x="240" y="356"/>
      <point x="296" y="358"/>
      <point x="316" y="358" type="curve" smooth="yes"/>
      <point x="442" y="358"/>
      <point x="500" y="283"/>
      <point x="500" y="182" type="curve" smooth="yes"/>
      <point x="500" y="90"/>
      <point x="431" y="16"/>
    </contour>
  </outline>
</glyph>
<glyph name="theta.a" format="1">
  <advance width="600"/>
  <unicode hex="03D1"/>
  <outline>
    <contour>
      <point x="296" y="-12" type="curve" smooth="yes"/>
      <point x="413" y="-12"/>
      <point x="514" y="64"/>
      <point x="514" y="368" type="curve" smooth="yes"/>
      <point x="514" y="614"/>
      <point x="438" y="734"/>
      <point x="280" y="734" type="curve" smooth="yes"/>
      <point x="182" y="734"/>
      <point x="97" y="670"/>
      <point x="97" y="561" type="curve" smooth="yes"/>
      <point x="97" y="444"/>
      <point x="197" y="312"/>
      <point x="490" y="360" type="curve"/>
      <point x="492" y="388" type="line"/>
      <point x="209" y="340"/>
      <point x="131" y="458"/>
      <point x="131" y="563" type="curve" smooth="yes"/>
      <point x="131" y="655"/>
      <point x="198" y="706"/>
      <point x="280" y="706" type="curve" smooth="yes"/>
      <point x="408" y="706"/>
      <point x="482" y="608"/>
      <point x="482" y="368" type="curve" smooth="yes"/>
      <point x="482" y="90"/>
      <point x="400" y="16"/>
      <point x="298" y="16" type="curve" smooth="yes"/>
      <point x="220" y="16"/>
      <point x="144" y="57"/>
      <point x="144" y="186" type="curve" smooth="yes"/>
      <point x="144" y="245"/>
      <point x="145" y="274"/>
      <point x="138" y="298" type="curve"/>
      <point x="110" y="298" type="line"/>
      <point x="115" y="266"/>
      <point x="116" y="242"/>
      <point x="116" y="185" type="curve" smooth="yes"/>
      <point x="116" y="39"/>
      <point x="199" y="-12"/>
    </contour>
  </outline>
</glyph>
<glyph name="kai" format="1">
  <advance width="600"/>
  <unicode hex="03D7"/>
  <outline>
    <contour>
      <point x="430" y="-186" type="line"/>
      <point x="476" y="-134"/>
      <point x="526" y="-70"/>
      <point x="570" y="0" type="curve"/>
      <point x="540" y="0" type="line"/>
      <point x="500" y="-60"/>
      <point x="452" y="-124"/>
      <point x="396" y="-180" type="curve"/>
    </contour>
    <component base="kappa"/>
  </outline>
</glyph>
<glyph name="Nje" format="1">
  <advance width="600"/>
  <unicode hex="040A"/>
  <outline>
    <contour>
      <point x="46" y="0" type="line"/>
      <point x="78" y="0" type="line"/>
      <point x="78" y="338" type="line"/>
      <point x="284" y="338" type="line"/>
      <point x="284" y="366" type="line"/>
      <point x="78" y="366" type="line"/>
      <point x="78" y="660" type="line"/>
      <point x="46" y="660" type="line"/>
    </contour>
    <contour>
      <point x="284" y="0" type="line"/>
      <point x="370" y="0" type="line" smooth="yes"/>
      <point x="498" y="0"/>
      <point x="566" y="66"/>
      <point x="566" y="192" type="curve" smooth="yes"/>
      <point x="566" y="314"/>
      <point x="488" y="366"/>
      <point x="366" y="366" type="curve" smooth="yes"/>
      <point x="316" y="366" type="line"/>
      <point x="316" y="660" type="line"/>
      <point x="284" y="660" type="line"/>
    </contour>
    <contour>
      <point x="316" y="28" type="line"/>
      <point x="316" y="338" type="line"/>
      <point x="354" y="338" type="line" smooth="yes"/>
      <point x="474" y="338"/>
      <point x="534" y="294"/>
      <point x="534" y="190" type="curve" smooth="yes"/>
      <point x="534" y="78"/>
      <point x="476" y="28"/>
      <point x="358" y="28" type="curve" smooth="yes"/>
    </contour>
  </outline>
</glyph>
<glyph name="Be" format="1">
  <advance width="600"/>
  <unicode hex="0411"/>
  <outline>
    <contour>
      <point x="118" y="0" type="line"/>
      <point x="308" y="0" type="line" smooth="yes"/>
      <point x="458" y="0"/>
      <point x="536" y="66"/>
      <point x="536" y="192" type="curve" smooth="yes"/>
      <point x="536" y="314"/>
      <point x="446" y="366"/>
      <point x="304" y="366" type="curve" smooth="yes"/>
      <point x="150" y="366" type="line"/>
      <point x="150" y="632" type="line"/>
      <point x="492" y="632" type="line"/>
      <point x="492" y="660" type="line"/>
      <point x="118" y="660" type="line"/>
    </contour>
    <contour>
      <point x="150" y="28" type="line"/>
      <point x="150" y="338" type="line"/>
      <point x="292" y="338" type="line" smooth="yes"/>
      <point x="432" y="338"/>
      <point x="504" y="294"/>
      <point x="504" y="190" type="curve" smooth="yes"/>
      <point x="504" y="78"/>
      <point x="434" y="28"/>
      <point x="296" y="28" type="curve" smooth="yes"/>
    </contour>
  </outline>
</glyph>
<glyph name="Ze" format="1">
  <advance width="600"/>
  <unicode hex="0417"/>
  <outline>
    <contour>
      <point x="307" y="-12" type="curve" smooth="yes"/>
      <point x="427" y="-12"/>
      <point x="527" y="62"/>
      <point x="527" y="182" type="curve" smooth="yes"/>
      <point x="527" y="280"/>
      <point x="465" y="338"/>
      <point x="381" y="352" type="curve"/>
      <point x="381" y="356" type="line"/>
      <point x="451" y="376"/>
      <point x="491" y="435"/>
      <point x="491" y="510" type="curve" smooth="yes"/>
      <point x="491" y="612"/>
      <point x="403" y="672"/>
      <point x="301" y="672" type="curve" smooth="yes"/>
      <point x="221" y="672"/>
      <point x="149" y="636"/>
      <point x="111" y="594" type="curve"/>
      <point x="131" y="572" type="line"/>
      <point x="169" y="614"/>
      <point x="233" y="642"/>
      <point x="301" y="642" type="curve" smooth="yes"/>
      <point x="391" y="642"/>
      <point x="459" y="594"/>
      <point x="459" y="510" type="curve" smooth="yes"/>
      <point x="459" y="415"/>
      <point x="396" y="366"/>
      <point x="251" y="366" type="curve" smooth="yes"/>
      <point x="207" y="366" type="line"/>
      <point x="207" y="338" type="line"/>
      <point x="271" y="338" type="line" smooth="yes"/>
      <point x="409" y="338"/>
      <point x="495" y="287"/>
      <point x="495" y="180" type="curve" smooth="yes"/>
      <point x="495" y="75"/>
      <point x="407" y="18"/>
      <point x="307" y="18" type="curve" smooth="yes"/>
      <point x="217" y="18"/>
      <point x="162" y="42"/>
      <point x="97" y="110" type="curve"/>
      <point x="75" y="88" type="line"/>
      <point x="139" y="19"/>
      <point x="205" y="-12"/>
    </contour>
    <contour>
      <point x="310" y="680" type="move" name="aboveUC"/>
    </contour>
  </outline>
</glyph>
<glyph name="Icyr" format="1">
  <advance width="600"/>
  <unicode hex="0418"/>
  <outline>
    <contour>
      <point x="92" y="0" type="line"/>
      <point x="128" y="0" type="line"/>
      <point x="404" y="484" type="line"/>
      <point x="476" y="614" type="line"/>
      <point x="480" y="614" type="line"/>
      <point x="478" y="552"/>
      <point x="476" y="496"/>
      <point x="476" y="434" type="curve" smooth="yes"/>
      <point x="476" y="0" type="line"/>
      <point x="508" y="0" type="line"/>
      <point x="508" y="660" type="line"/>
      <point x="472" y="660" type="line"/>
      <point x="196" y="176" type="line"/>
      <point x="124" y="46" type="line"/>
      <point x="120" y="46" type="line"/>
      <point x="122" y="110"/>
      <point x="124" y="170"/>
      <point x="124" y="232" type="curve" smooth="yes"/>
      <point x="124" y="660" type="line"/>
      <point x="92" y="660" type="line"/>
    </contour>
    <contour>
      <point x="304" y="680" type="move" name="aboveUC"/>
    </contour>
  </outline>
</glyph>
<glyph name="El" format="1">
  <advance width="600"/>
  <unicode hex="041B"/>
  <outline>
    <contour>
      <point x="48" y="-12" type="curve" smooth="yes"/>
      <point x="106" y="-12"/>
      <point x="140" y="24"/>
      <point x="174" y="210" type="curve" smooth="yes"/>
      <point x="200" y="351"/>
      <point x="222" y="490"/>
      <point x="248" y="632" type="curve"/>
      <point x="476" y="632" type="line"/>
      <point x="476" y="0" type="line"/>
      <point x="508" y="0" type="line"/>
      <point x="508" y="660" type="line"/>
      <point x="222" y="660" type="line"/>
      <point x="194" y="500"/>
      <point x="170" y="363"/>
      <point x="142" y="214" type="curve" smooth="yes"/>
      <point x="110" y="46"/>
      <point x="82" y="22"/>
      <point x="46" y="22" type="curve" smooth="yes"/>
      <point x="36" y="22"/>
      <point x="28" y="24"/>
      <point x="18" y="28" type="curve"/>
      <point x="8" y="-4" type="line"/>
      <point x="24" y="-10"/>
      <point x="38" y="-12"/>
    </contour>
  </outline>
</glyph>
<glyph name="Tse" format="1">
	<unicode hex="0426"/>
	<advance width="600"/>
	<outline>
		<contour>
			<point x="91" y="0" type="line"/>
			<point x="508" y="0" type="line"/>
			<point x="508" y="660" type="line"/>
			<point x="476" y="660" type="line"/>
			<point x="476" y="28" type="line"/>
			<point x="123" y="28" type="line"/>
			<point x="123" y="660" type="line"/>
			<point x="91" y="660" type="line"/>
		</contour>
		<contour>
			<point x="544" y="-188" type="line"/>
			<point x="570" y="-188" type="line"/>
			<point x="576" y="12" type="line"/>
			<point x="576" y="28" type="line"/>
			<point x="498" y="28" type="line"/>
			<point x="498" y="0" type="line"/>
			<point x="544" y="0" type="line"/>
		</contour>
	</outline>
</glyph>
<glyph name="Che" format="1">
  <advance width="600"/>
  <unicode hex="0427"/>
  <outline>
    <contour>
      <point x="464" y="0" type="line"/>
      <point x="496" y="0" type="line"/>
      <point x="496" y="660" type="line"/>
      <point x="464" y="660" type="line"/>
      <point x="464" y="348" type="line"/>
      <point x="430" y="342"/>
      <point x="381" y="336"/>
      <point x="320" y="336" type="curve" smooth="yes"/>
      <point x="192" y="336"/>
      <point x="114" y="375"/>
      <point x="114" y="504" type="curve" smooth="yes"/>
      <point x="114" y="660" type="line"/>
      <point x="82" y="660" type="line"/>
      <point x="82" y="504" type="line" smooth="yes"/>
      <point x="82" y="357"/>
      <point x="172" y="306"/>
      <point x="318" y="306" type="curve" smooth="yes"/>
      <point x="380" y="306"/>
      <point x="428" y="312"/>
      <point x="464" y="318" type="curve"/>
    </contour>
  </outline>
</glyph>
<glyph name="Sha" format="1">
  <advance width="600"/>
  <unicode hex="0428"/>
  <outline>
    <contour>
      <point x="46" y="0" type="line"/>
      <point x="554" y="0" type="line"/>
      <point x="554" y="660" type="line"/>
      <point x="522" y="660" type="line"/>
      <point x="522" y="28" type="line"/>
      <point x="316" y="28" type="line"/>
      <point x="316" y="660" type="line"/>
      <point x="284" y="660" type="line"/>
      <point x="284" y="28" type="line"/>
      <point x="78" y="28" type="line"/>
      <point x="78" y="660" type="line"/>
      <point x="46" y="660" type="line"/>
    </contour>
  </outline>
</glyph>
<glyph name="ghe" format="1">
  <advance width="600"/>
  <unicode hex="0433"/>
  <outline>
    <contour>
      <point x="170" y="0" type="line"/>
      <point x="200" y="0" type="line"/>
      <point x="200" y="450" type="line"/>
      <point x="520" y="450" type="line"/>
      <point x="520" y="478" type="line"/>
      <point x="170" y="478" type="line"/>
    </contour>
    <contour>
      <point x="360" y="500" type="move" name="aboveLC"/>
    </contour>
  </outline>
</glyph>
<glyph name="em" format="1">
  <advance width="600"/>
  <unicode hex="043C"/>
  <outline>
    <contour>
      <point x="90" y="0" type="line"/>
      <point x="120" y="0" type="line"/>
      <point x="120" y="292" type="line" smooth="yes"/>
      <point x="120" y="327"/>
      <point x="118" y="376"/>
      <point x="116" y="422" type="curve"/>
      <point x="120" y="422" type="line"/>
      <point x="134" y="388"/>
      <point x="148" y="358"/>
      <point x="162" y="326" type="curve" smooth="yes"/>
      <point x="284" y="48" type="line"/>
      <point x="318" y="48" type="line"/>
      <point x="438" y="326" type="line" smooth="yes"/>
      <point x="452" y="358"/>
      <point x="466" y="388"/>
      <point x="480" y="422" type="curve"/>
      <point x="484" y="422" type="line"/>
      <point x="482" y="376"/>
      <point x="480" y="327"/>
      <point x="480" y="292" type="curve" smooth="yes"/>
      <point x="480" y="0" type="line"/>
      <point x="510" y="0" type="line"/>
      <point x="510" y="478" type="line"/>
      <point x="474" y="478" type="line"/>
      <point x="354" y="204" type="line"/>
      <point x="339" y="163"/>
      <point x="320" y="121"/>
      <point x="302" y="79" type="curve"/>
      <point x="298" y="79" type="line"/>
      <point x="282" y="121"/>
      <point x="264" y="163"/>
      <point x="248" y="204" type="curve"/>
      <point x="126" y="478" type="line"/>
      <point x="90" y="478" type="line"/>
    </contour>
    <contour>
      <point x="300" y="500" type="move" name="aboveLC"/>
    </contour>
  </outline>
</glyph>
<glyph name="ucyr" format="1">
  <advance width="600"/>
  <unicode hex="0443"/>
  <outline>
    <component base="y"/>
    <contour>
      <point x="300" y="500" type="move" name="aboveLC"/>
    </contour>
  </outline>
</glyph>
<glyph name="ya" format="1">
  <advance width="600"/>
  <unicode hex="044F"/>
  <outline>
    <contour>
      <point x="450" y="0" type="line"/>
      <point x="480" y="0" type="line"/>
      <point x="480" y="478" type="line"/>
      <point x="250" y="478" type="line" smooth="yes"/>
      <point x="152" y="478"/>
      <point x="83" y="444"/>
      <point x="83" y="350" type="curve" smooth="yes"/>
      <point x="83" y="256"/>
      <point x="154" y="216"/>
      <point x="242" y="216" type="curve"/>
      <point x="450" y="216" type="line"/>
    </contour>
    <contour>
      <point x="260" y="244" type="line" smooth="yes"/>
      <point x="171" y="244"/>
      <point x="115" y="279"/>
      <point x="115" y="350" type="curve" smooth="yes"/>
      <point x="115" y="421"/>
      <point x="171" y="450"/>
      <point x="260" y="450" type="curve" smooth="yes"/>
      <point x="450" y="450" type="line"/>
      <point x="450" y="244" type="line"/>
    </contour>
    <contour>
      <point x="72" y="0" type="line"/>
      <point x="108" y="0" type="line"/>
      <point x="270" y="218" type="line"/>
      <point x="244" y="230" type="line"/>
    </contour>
    <contour>
      <point x="310.0" y="500.0" type="move" name="aboveLC"/>
    </contour>
  </outline>
</glyph>
<glyph name="dje" format="1">
  <advance width="600"/>
  <unicode hex="0452"/>
  <outline>
    <contour>
      <point x="348" y="-234" type="curve" smooth="yes"/>
      <point x="460" y="-234"/>
      <point x="528" y="-150"/>
      <point x="528" y="164" type="curve" smooth="yes"/>
      <point x="528" y="378"/>
      <point x="456" y="470"/>
      <point x="330" y="470" type="curve" smooth="yes"/>
      <point x="256" y="470"/>
      <point x="200" y="424"/>
      <point x="140" y="358" type="curve"/>
      <point x="138" y="358" type="line"/>
      <point x="140" y="488" type="line"/>
      <point x="140" y="722" type="line"/>
      <point x="110" y="722" type="line"/>
      <point x="110" y="0" type="line"/>
      <point x="140" y="0" type="line"/>
      <point x="140" y="326" type="line"/>
      <point x="214" y="404"/>
      <point x="262" y="442"/>
      <point x="328" y="442" type="curve" smooth="yes"/>
      <point x="441" y="442"/>
      <point x="496" y="356"/>
      <point x="496" y="162" type="curve" smooth="yes"/>
      <point x="496" y="-130"/>
      <point x="434" y="-206"/>
      <point x="350" y="-206" type="curve" smooth="yes"/>
      <point x="334" y="-206"/>
      <point x="318" y="-200"/>
      <point x="308" y="-196" type="curve"/>
      <point x="300" y="-222" type="line"/>
      <point x="311" y="-228"/>
      <point x="332" y="-234"/>
    </contour>
    <contour>
      <point x="32" y="584" type="line"/>
      <point x="376" y="584" type="line"/>
      <point x="376" y="612" type="line"/>
      <point x="110" y="612" type="line"/>
      <point x="32" y="608" type="line"/>
    </contour>
  </outline>
</glyph>
<glyph name="lje" format="1">
  <advance width="600"/>
  <unicode hex="0459"/>
  <outline>
    <contour>
      <point x="30" y="-12" type="curve" smooth="yes"/>
      <point x="74" y="-12"/>
      <point x="122" y="32"/>
      <point x="136" y="142" type="curve" smooth="yes"/>
      <point x="149" y="247"/>
      <point x="155" y="356"/>
      <point x="160" y="450" type="curve"/>
      <point x="306" y="450" type="line"/>
      <point x="306" y="0" type="line"/>
      <point x="336" y="0" type="line"/>
      <point x="336" y="478" type="line"/>
      <point x="132" y="478" type="line"/>
      <point x="128" y="366"/>
      <point x="121" y="256"/>
      <point x="106" y="146" type="curve" smooth="yes"/>
      <point x="94" y="60"/>
      <point x="64" y="20"/>
      <point x="26" y="20" type="curve" smooth="yes"/>
      <point x="18" y="20"/>
      <point x="12" y="22"/>
      <point x="6" y="24" type="curve"/>
      <point x="-2" y="-6" type="line"/>
      <point x="8" y="-10"/>
      <point x="16" y="-12"/>
    </contour>
    <contour>
      <point x="306" y="0" type="line"/>
      <point x="358" y="0" type="line" smooth="yes"/>
      <point x="470" y="0"/>
      <point x="532" y="50"/>
      <point x="532" y="142" type="curve" smooth="yes"/>
      <point x="532" y="234"/>
      <point x="470" y="282"/>
      <point x="358" y="282" type="curve" smooth="yes"/>
      <point x="336" y="282" type="line"/>
      <point x="336" y="478" type="line"/>
      <point x="306" y="478" type="line"/>
    </contour>
    <contour>
      <point x="336" y="28" type="line"/>
      <point x="336" y="254" type="line"/>
      <point x="348" y="254" type="line" smooth="yes"/>
      <point x="453" y="254"/>
      <point x="500" y="221"/>
      <point x="500" y="142" type="curve" smooth="yes"/>
      <point x="500" y="63"/>
      <point x="453" y="28"/>
      <point x="348" y="28" type="curve" smooth="yes"/>
    </contour>
  </outline>
</glyph>
<glyph name="dzhe" format="1">
  <advance width="600"/>
  <unicode hex="045F"/>
  <outline>
    <contour>
      <point x="125" y="0" type="line"/>
      <point x="475" y="0" type="line"/>
      <point x="475" y="478" type="line"/>
      <point x="445" y="478" type="line"/>
      <point x="445" y="28" type="line"/>
      <point x="155" y="28" type="line"/>
      <point x="155" y="478" type="line"/>
      <point x="125" y="478" type="line"/>
    </contour>
    <contour>
      <point x="289" y="-172" type="line"/>
      <point x="313" y="-172" type="line"/>
      <point x="317" y="10" type="line"/>
      <point x="287" y="10" type="line"/>
    </contour>
  </outline>
</glyph>
<glyph name="Gheup" format="1">
  <advance width="600"/>
  <unicode hex="0490"/>
  <outline>
    <contour>
      <point x="160" y="0" type="line"/>
      <point x="192" y="0" type="line"/>
      <point x="192" y="632" type="line"/>
      <point x="512" y="632" type="line"/>
      <point x="502" y="660" type="line"/>
      <point x="160" y="660" type="line"/>
    </contour>
    <contour>
      <point x="454" y="632" type="line"/>
      <point x="512" y="632" type="line"/>
      <point x="520" y="832" type="line"/>
      <point x="494" y="832" type="line"/>
      <point x="482" y="660" type="line"/>
      <point x="454" y="660" type="line"/>
    </contour>
  </outline>
</glyph>
<glyph name="ghestroke" format="1">
  <advance width="600"/>
  <unicode hex="0493"/>
  <outline>
    <contour>
      <point x="170" y="0" type="line"/>
      <point x="200" y="0" type="line"/>
      <point x="200" y="450" type="line"/>
      <point x="520" y="450" type="line"/>
      <point x="520" y="478" type="line"/>
      <point x="170" y="478" type="line"/>
    </contour>
    <contour>
      <point x="88" y="228" type="line"/>
      <point x="374" y="228" type="line"/>
      <point x="374" y="256" type="line"/>
      <point x="170" y="256" type="line"/>
      <point x="88" y="252" type="line"/>
    </contour>
  </outline>
</glyph>
<glyph name="Zhedescender" format="1">
  <advance width="600"/>
  <unicode hex="0496"/>
  <outline>
    <contour>
      <point x="584" y="-188" type="line"/>
      <point x="610" y="-188" type="line"/>
      <point x="616" y="12" type="line"/>
      <point x="616" y="28" type="line"/>
      <point x="560" y="28" type="line"/>
      <point x="560" y="0" type="line"/>
      <point x="584" y="0" type="line"/>
    </contour>
    <component base="Zhe"/>
  </outline>
</glyph>
<glyph name="Kabashkir" format="1">
  <advance width="600"/>
  <unicode hex="04A0"/>
  <outline>
    <contour>
      <point x="230" y="0" type="line"/>
      <point x="262" y="0" type="line"/>
      <point x="262" y="338" type="line"/>
      <point x="337" y="338" type="line"/>
      <point x="562" y="0" type="line"/>
      <point x="600" y="0" type="line"/>
      <point x="356" y="366" type="line"/>
      <point x="262" y="366" type="line"/>
      <point x="262" y="660" type="line"/>
      <point x="230" y="660" type="line"/>
    </contour>
    <contour>
      <point x="14" y="632" type="line"/>
      <point x="230" y="632" type="line"/>
      <point x="262" y="660" type="line"/>
      <point x="14" y="660" type="line"/>
    </contour>
    <contour>
      <point x="363" y="349" type="line"/>
      <point x="464" y="536" type="line" smooth="yes"/>
      <point x="514" y="628"/>
      <point x="532" y="638"/>
      <point x="560" y="638" type="curve" smooth="yes"/>
      <point x="566" y="638"/>
      <point x="574" y="636"/>
      <point x="580" y="634" type="curve"/>
      <point x="586" y="668" type="line"/>
      <point x="580" y="670"/>
      <point x="572" y="672"/>
      <point x="564" y="672" type="curve" smooth="yes"/>
      <point x="517" y="672"/>
      <point x="494" y="654"/>
      <point x="436" y="546" type="curve" smooth="yes"/>
      <point x="333" y="355" type="line"/>
    </contour>
  </outline>
</glyph>
<glyph name="Esdescender" format="1">
  <advance width="600"/>
  <unicode hex="04AA"/>
  <outline>
    <contour>
      <point x="333" y="-188" type="line"/>
      <point x="359" y="-188" type="line"/>
      <point x="365" y="12" type="line"/>
      <point x="333" y="0" type="line"/>
    </contour>
    <component base="Es"/>
  </outline>
</glyph>
<glyph name="Ustraight" format="1">
  <advance width="600"/>
  <unicode hex="04AE"/>
  <outline>
    <component base="Y"/>
    <contour>
      <point x="300" y="680" type="move" name="aboveUC"/>
    </contour>
  </outline>
</glyph>
<glyph name="ustraight" format="1">
  <advance width="600"/>
  <unicode hex="04AF"/>
  <outline>
    <contour>
      <point x="288" y="-222" type="line"/>
      <point x="318" y="-222" type="line"/>
      <point x="318" y="-4" type="line"/>
      <point x="534" y="478" type="line"/>
      <point x="502" y="478" type="line"/>
      <point x="368" y="176" type="line"/>
      <point x="346" y="130"/>
      <point x="324" y="74"/>
      <point x="304" y="32" type="curve"/>
      <point x="300" y="32" type="line"/>
      <point x="280" y="74"/>
      <point x="256" y="130"/>
      <point x="234" y="176" type="curve"/>
      <point x="100" y="478" type="line"/>
      <point x="66" y="478" type="line"/>
      <point x="288" y="-4" type="line"/>
    </contour>
  </outline>
</glyph>
<glyph name="Ustraightstroke" format="1">
  <advance width="600"/>
  <unicode hex="04B0"/>
  <outline>
    <contour>
      <point x="126" y="242" type="line"/>
      <point x="474" y="242" type="line"/>
      <point x="474" y="270" type="line"/>
      <point x="210" y="270" type="line"/>
      <point x="126" y="268" type="line"/>
    </contour>
    <component base="Ustraight"/>
    <contour>
      <point x="300" y="680" type="move" name="aboveUC"/>
    </contour>
  </outline>
</glyph>
<glyph name="ustraightstroke" format="1">
  <advance width="600"/>
  <unicode hex="04B1"/>
  <outline>
    <contour>
      <point x="114" y="0" type="line"/>
      <point x="486" y="0" type="line"/>
      <point x="486" y="28" type="line"/>
      <point x="192" y="28" type="line"/>
      <point x="114" y="24" type="line"/>
    </contour>
    <component base="ustraight"/>
  </outline>
</glyph>
<glyph name="Hadescender" format="1">
  <advance width="600"/>
  <unicode hex="04B2"/>
  <outline>
    <contour>
      <point x="506" y="-188" type="line"/>
      <point x="532" y="-188" type="line"/>
      <point x="538" y="12" type="line"/>
      <point x="538" y="28" type="line"/>
      <point x="492" y="28" type="line"/>
      <point x="492" y="0" type="line"/>
      <point x="506" y="0" type="line"/>
    </contour>
    <component base="Ha"/>
  </outline>
</glyph>
<glyph name="Germandbls" format="1">
	<unicode hex="1E9E"/>
	<advance width="600"/>
	<outline>
		<contour>
			<point x="388" y="-12" type="curve" smooth="yes"/>
			<point x="487" y="-12"/>
			<point x="561" y="64"/>
			<point x="561" y="166" type="curve" smooth="yes"/>
			<point x="561" y="264"/>
			<point x="508" y="338"/>
			<point x="328" y="368" type="curve"/>
			<point x="328" y="341" type="line"/>
			<point x="502" y="540" type="line"/>
			<point x="466" y="620"/>
			<point x="410" y="672"/>
			<point x="308" y="672" type="curve" smooth="yes"/>
			<point x="186" y="672"/>
			<point x="90" y="582"/>
			<point x="90" y="424" type="curve" smooth="yes"/>
			<point x="90" y="0" type="line"/>
			<point x="123" y="0" type="line"/>
			<point x="123" y="412" type="line" smooth="yes"/>
			<point x="123" y="570"/>
			<point x="200" y="642"/>
			<point x="306" y="642" type="curve" smooth="yes"/>
			<point x="390" y="642"/>
			<point x="444" y="600"/>
			<point x="474" y="518" type="curve"/>
			<point x="482" y="565" type="line"/>
			<point x="309" y="366" type="line"/>
			<point x="311" y="338" type="line"/>
			<point x="490" y="308"/>
			<point x="526" y="244"/>
			<point x="526" y="164" type="curve" smooth="yes"/>
			<point x="526" y="80"/>
			<point x="477" y="18"/>
			<point x="390" y="18" type="curve" smooth="yes"/>
			<point x="329" y="18"/>
			<point x="285" y="42"/>
			<point x="244" y="92" type="curve"/>
			<point x="220" y="68" type="line"/>
			<point x="261" y="16"/>
			<point x="323" y="-12"/>
		</contour>
	</outline>
</glyph>
<glyph name="lenisacute" format="1">
	<unicode hex="1FCE"/>
	<advance width="600"/>
	<outline>
		<component base="lenisacutecmb"/>
		<contour>
			<point name="_aboveLC" x="300" y="500" type="move"/>
		</contour>
	</outline>
</glyph>
<glyph name="lenistilde" format="1">
	<unicode hex="1FCF"/>
	<advance width="600"/>
	<outline>
		<component base="lenistildecmb"/>
		<contour>
			<point name="_aboveLC" x="300" y="500" type="move"/>
		</contour>
	</outline>
</glyph>
<glyph name="emdash" format="1">
  <advance width="600"/>
  <unicode hex="2014"/>
  <outline>
    <contour>
      <point x="0" y="230" type="line"/>
      <point x="600" y="230" type="line"/>
      <point x="600" y="270" type="line"/>
      <point x="0" y="270" type="line"/>
    </contour>
  </outline>
</glyph>
<glyph name="interrobang" format="1">
  <advance width="600"/>
  <unicode hex="203D"/>
  <outline>
    <contour>
      <point x="278" y="214" type="curve"/>
      <point x="294" y="214" type="line"/>
      <point x="269" y="362"/>
      <point x="464" y="380"/>
      <point x="464" y="532" type="curve" smooth="yes"/>
      <point x="464" y="614"/>
      <point x="402" y="682"/>
      <point x="294" y="682" type="curve" smooth="yes"/>
      <point x="218" y="682"/>
      <point x="160" y="650"/>
      <point x="118" y="608" type="curve"/>
      <point x="140" y="588" type="line"/>
      <point x="180" y="630"/>
      <point x="234" y="654"/>
      <point x="292" y="654" type="curve" smooth="yes"/>
      <point x="390" y="654"/>
      <point x="432" y="596"/>
      <point x="432" y="530" type="curve" smooth="yes"/>
      <point x="432" y="394"/>
      <point x="239" y="372"/>
    </contour>
    <contour>
      <point x="272" y="214" type="line"/>
      <point x="294" y="214" type="line"/>
      <point x="300" y="488" type="line"/>
      <point x="300" y="550" type="line"/>
      <point x="268" y="550" type="line"/>
      <point x="268" y="488" type="line"/>
    </contour>
    <contour>
      <point x="286" y="-12" type="curve" smooth="yes"/>
      <point x="312" y="-12"/>
      <point x="338" y="8"/>
      <point x="338" y="46" type="curve" smooth="yes"/>
      <point x="338" y="84"/>
      <point x="312" y="104"/>
      <point x="286" y="104" type="curve" smooth="yes"/>
      <point x="260" y="104"/>
      <point x="234" y="84"/>
      <point x="234" y="46" type="curve" smooth="yes"/>
      <point x="234" y="8"/>
      <point x="260" y="-12"/>
    </contour>
  </outline>
</glyph>
<glyph name="questiondbl" format="1">
  <advance width="600"/>
  <unicode hex="2047"/>
  <outline>
    <contour>
      <point x="122" y="214" type="curve"/>
      <point x="150" y="214" type="line"/>
      <point x="126" y="362"/>
      <point x="284" y="412"/>
      <point x="284" y="552" type="curve" smooth="yes"/>
      <point x="284" y="623"/>
      <point x="237" y="682"/>
      <point x="154" y="682" type="curve" smooth="yes"/>
      <point x="95" y="682"/>
      <point x="56" y="656"/>
      <point x="18" y="608" type="curve"/>
      <point x="40" y="588" type="line"/>
      <point x="75" y="636"/>
      <point x="109" y="654"/>
      <point x="152" y="654" type="curve" smooth="yes"/>
      <point x="222" y="654"/>
      <point x="252" y="605"/>
      <point x="252" y="550" type="curve" smooth="yes"/>
      <point x="252" y="418"/>
      <point x="96" y="368"/>
    </contour>
    <contour>
      <point x="146" y="-12" type="curve" smooth="yes"/>
      <point x="172" y="-12"/>
      <point x="198" y="8"/>
      <point x="198" y="46" type="curve" smooth="yes"/>
      <point x="198" y="84"/>
      <point x="172" y="104"/>
      <point x="146" y="104" type="curve" smooth="yes"/>
      <point x="120" y="104"/>
      <point x="94" y="84"/>
      <point x="94" y="46" type="curve" smooth="yes"/>
      <point x="94" y="8"/>
      <point x="120" y="-12"/>
    </contour>
    <contour>
      <point x="402" y="214" type="curve"/>
      <point x="430" y="214" type="line"/>
      <point x="406" y="362"/>
      <point x="564" y="412"/>
      <point x="564" y="552" type="curve" smooth="yes"/>
      <point x="564" y="623"/>
      <point x="517" y="682"/>
      <point x="434" y="682" type="curve" smooth="yes"/>
      <point x="375" y="682"/>
      <point x="336" y="656"/>
      <point x="298" y="608" type="curve"/>
      <point x="320" y="588" type="line"/>
      <point x="355" y="636"/>
      <point x="389" y="654"/>
      <point x="432" y="654" type="curve" smooth="yes"/>
      <point x="502" y="654"/>
      <point x="532" y="605"/>
      <point x="532" y="550" type="curve" smooth="yes"/>
      <point x="532" y="418"/>
      <point x="376" y="368"/>
    </contour>
    <contour>
      <point x="426" y="-12" type="curve" smooth="yes"/>
      <point x="452" y="-12"/>
      <point x="478" y="8"/>
      <point x="478" y="46" type="curve" smooth="yes"/>
      <point x="478" y="84"/>
      <point x="452" y="104"/>
      <point x="426" y="104" type="curve" smooth="yes"/>
      <point x="400" y="104"/>
      <point x="374" y="84"/>
      <point x="374" y="46" type="curve" smooth="yes"/>
      <point x="374" y="8"/>
      <point x="400" y="-12"/>
    </contour>
  </outline>
</glyph>
<glyph name="dong" format="1">
  <advance width="600"/>
  <unicode hex="20AB"/>
  <outline>
    <contour>
      <point x="288" y="106" type="curve" smooth="yes"/>
      <point x="345" y="106"/>
      <point x="386" y="132"/>
      <point x="420" y="168" type="curve"/>
      <point x="422" y="168" type="line"/>
      <point x="426" y="116" type="line"/>
      <point x="450" y="116" type="line"/>
      <point x="450" y="676" type="line"/>
      <point x="420" y="676" type="line"/>
      <point x="420" y="516" type="line"/>
      <point x="424" y="420" type="line"/>
      <point x="422" y="420" type="line"/>
      <point x="386" y="452"/>
      <point x="352" y="472"/>
      <point x="296" y="472" type="curve" smooth="yes"/>
      <point x="205" y="472"/>
      <point x="124" y="402"/>
      <point x="124" y="294" type="curve" smooth="yes"/>
      <point x="124" y="172"/>
      <point x="188" y="106"/>
    </contour>
    <contour>
      <point x="290" y="134" type="curve" smooth="yes"/>
      <point x="204" y="134"/>
      <point x="156" y="198"/>
      <point x="156" y="296" type="curve" smooth="yes"/>
      <point x="156" y="376"/>
      <point x="216" y="444"/>
      <point x="294" y="444" type="curve" smooth="yes"/>
      <point x="344" y="444"/>
      <point x="374" y="428"/>
      <point x="420" y="390" type="curve"/>
      <point x="420" y="200" type="line"/>
      <point x="377" y="154"/>
      <point x="333" y="134"/>
    </contour>
    <contour>
      <point x="264" y="566" type="line"/>
      <point x="450" y="566" type="line"/>
      <point x="532" y="570" type="line"/>
      <point x="532" y="594" type="line"/>
      <point x="264" y="594" type="line"/>
    </contour>
    <contour>
      <point x="134" y="0" type="line"/>
      <point x="480" y="0" type="line"/>
      <point x="480" y="28" type="line"/>
      <point x="134" y="28" type="line"/>
    </contour>
  </outline>
</glyph>
<glyph name="peso" format="1">
  <advance width="600"/>
  <unicode hex="20B1"/>
  <outline>
    <contour>
      <point x="162" y="0" type="line"/>
      <point x="192" y="0" type="line"/>
      <point x="192" y="270" type="line"/>
      <point x="282" y="270" type="line" smooth="yes"/>
      <point x="408" y="270"/>
      <point x="494" y="332"/>
      <point x="494" y="460" type="curve" smooth="yes"/>
      <point x="494" y="590"/>
      <point x="408" y="640"/>
      <point x="282" y="640" type="curve" smooth="yes"/>
      <point x="162" y="640" type="line"/>
    </contour>
    <contour>
      <point x="192" y="298" type="line"/>
      <point x="192" y="612" type="line"/>
      <point x="270" y="612" type="line" smooth="yes"/>
      <point x="394" y="612"/>
      <point x="462" y="574"/>
      <point x="462" y="460" type="curve" smooth="yes"/>
      <point x="462" y="350"/>
      <point x="394" y="298"/>
      <point x="270" y="298" type="curve" smooth="yes"/>
    </contour>
    <contour>
      <point x="60" y="494" type="line"/>
      <point x="580" y="494" type="line"/>
      <point x="580" y="522" type="line"/>
      <point x="162" y="522" type="line"/>
      <point x="60" y="518" type="line"/>
    </contour>
    <contour>
      <point x="60" y="396" type="line"/>
      <point x="580" y="396" type="line"/>
      <point x="580" y="424" type="line"/>
      <point x="162" y="424" type="line"/>
      <point x="60" y="420" type="line"/>
    </contour>
  </outline>
</glyph>
<glyph name="tenge" format="1">
  <advance width="600"/>
  <unicode hex="20B8"/>
  <outline>
    <contour>
      <point x="284" y="0" type="line"/>
      <point x="316" y="0" type="line"/>
      <point x="316" y="504" type="line"/>
      <point x="530" y="504" type="line"/>
      <point x="530" y="532" type="line"/>
      <point x="136" y="532" type="line"/>
      <point x="70" y="528" type="line"/>
      <point x="70" y="504" type="line"/>
      <point x="284" y="504" type="line"/>
    </contour>
    <contour>
      <point x="70" y="612" type="line"/>
      <point x="530" y="612" type="line"/>
      <point x="530" y="640" type="line"/>
      <point x="70" y="640" type="line"/>
    </contour>
  </outline>
</glyph>
<glyph name="ruble" format="1">
  <advance width="600"/>
  <unicode hex="20BD"/>
  <outline>
    <contour>
      <point x="182" y="0" type="line"/>
      <point x="212" y="0" type="line"/>
      <point x="212" y="290" type="line"/>
      <point x="332" y="290" type="line" smooth="yes"/>
      <point x="464" y="290"/>
      <point x="554" y="346"/>
      <point x="554" y="472" type="curve" smooth="yes"/>
      <point x="554" y="592"/>
      <point x="464" y="640"/>
      <point x="332" y="640" type="curve" smooth="yes"/>
      <point x="182" y="640" type="line"/>
    </contour>
    <contour>
      <point x="212" y="318" type="line"/>
      <point x="212" y="612" type="line"/>
      <point x="320" y="612" type="line" smooth="yes"/>
      <point x="450.0" y="612"/>
      <point x="522" y="576"/>
      <point x="522" y="472" type="curve" smooth="yes"/>
      <point x="522" y="364"/>
      <point x="450.0" y="318"/>
      <point x="320" y="318" type="curve" smooth="yes"/>
    </contour>
    <contour>
      <point x="60" y="290" type="line"/>
      <point x="200" y="290" type="line"/>
      <point x="200" y="318" type="line"/>
      <point x="182" y="318" type="line"/>
      <point x="60" y="314" type="line"/>
    </contour>
    <contour>
      <point x="60" y="182" type="line"/>
      <point x="490" y="182" type="line"/>
      <point x="490" y="210" type="line"/>
      <point x="182" y="210" type="line"/>
      <point x="60" y="206" type="line"/>
    </contour>
  </outline>
</glyph>
<glyph name="numero" format="1">
  <advance width="600"/>
  <unicode hex="2116"/>
  <outline>
    <contour>
      <point x="42" y="-12" type="curve" smooth="yes"/>
      <point x="72" y="-12"/>
      <point x="86" y="10"/>
      <point x="86" y="60" type="curve" smooth="yes"/>
      <point x="86" y="269" type="line" smooth="yes"/>
      <point x="86" y="387"/>
      <point x="88" y="461"/>
      <point x="82" y="592" type="curve"/>
      <point x="86" y="592" type="line"/>
      <point x="102" y="534"/>
      <point x="122" y="474"/>
      <point x="142" y="414" type="curve"/>
      <point x="272" y="0" type="line"/>
      <point x="316" y="0" type="line"/>
      <point x="316" y="584" type="line" smooth="yes"/>
      <point x="316" y="614"/>
      <point x="328" y="624"/>
      <point x="346" y="624" type="curve"/>
      <point x="342" y="650" type="line"/>
      <point x="336" y="652"/>
      <point x="334" y="652"/>
      <point x="330" y="652" type="curve" smooth="yes"/>
      <point x="300" y="652"/>
      <point x="286" y="630"/>
      <point x="286" y="580" type="curve" smooth="yes"/>
      <point x="286" y="371" type="line" smooth="yes"/>
      <point x="286" y="253"/>
      <point x="284" y="179"/>
      <point x="290" y="48" type="curve"/>
      <point x="286" y="48" type="line"/>
      <point x="268" y="108"/>
      <point x="249" y="168"/>
      <point x="230" y="228" type="curve" smooth="yes"/>
      <point x="100" y="640" type="line"/>
      <point x="56" y="640" type="line"/>
      <point x="56" y="56" type="line" smooth="yes"/>
      <point x="56" y="26"/>
      <point x="44" y="16"/>
      <point x="26" y="16" type="curve"/>
      <point x="30" y="-10" type="line"/>
      <point x="36" y="-12"/>
      <point x="38" y="-12"/>
    </contour>
    <contour>
      <point x="486" y="282" type="curve" smooth="yes"/>
      <point x="544" y="282"/>
      <point x="590" y="334"/>
      <point x="590" y="438" type="curve" smooth="yes"/>
      <point x="590" y="544"/>
      <point x="544" y="594"/>
      <point x="486" y="594" type="curve" smooth="yes"/>
      <point x="428" y="594"/>
      <point x="382" y="544"/>
      <point x="382" y="438" type="curve" smooth="yes"/>
      <point x="382" y="334"/>
      <point x="428" y="282"/>
    </contour>
    <contour>
      <point x="486" y="308" type="curve" smooth="yes"/>
      <point x="442" y="308"/>
      <point x="412" y="356"/>
      <point x="412" y="438" type="curve" smooth="yes"/>
      <point x="412" y="522"/>
      <point x="442" y="568"/>
      <point x="486" y="568" type="curve" smooth="yes"/>
      <point x="530" y="568"/>
      <point x="560" y="522"/>
      <point x="560" y="438" type="curve" smooth="yes"/>
      <point x="560" y="356"/>
      <point x="530" y="308"/>
    </contour>
    <contour>
      <point x="404" y="187" type="line"/>
      <point x="568" y="187" type="line"/>
      <point x="568" y="215" type="line"/>
      <point x="404" y="215" type="line"/>
    </contour>
  </outline>
</glyph>
<glyph name="onetenth" format="1">
	<unicode hex="2152"/>
	<advance width="600"/>
	<outline>
		<contour>
			<point x="190" y="402" type="line"/>
			<point x="218" y="402" type="line"/>
			<point x="218" y="640" type="line"/>
			<point x="194" y="640" type="line"/>
			<point x="170" y="626"/>
			<point x="146" y="616"/>
			<point x="108" y="609" type="curve"/>
			<point x="108" y="585" type="line"/>
			<point x="190" y="585" type="line"/>
		</contour>
		<contour>
			<point x="124" y="284" type="line"/>
			<point x="570" y="478" type="line"/>
			<point x="556" y="508" type="line"/>
			<point x="115" y="303" type="line"/>
		</contour>
		<contour>
			<point x="190" y="0" type="line"/>
			<point x="218" y="0" type="line"/>
			<point x="218" y="238" type="line"/>
			<point x="194" y="238" type="line"/>
			<point x="170" y="224"/>
			<point x="146" y="214"/>
			<point x="108" y="207" type="curve"/>
			<point x="108" y="183" type="line"/>
			<point x="190" y="183" type="line"/>
		</contour>
		<contour>
			<point x="430" y="-12" type="curve" smooth="yes"/>
			<point x="496" y="-12"/>
			<point x="538" y="34"/>
			<point x="538" y="120" type="curve" smooth="yes"/>
			<point x="538" y="202"/>
			<point x="496" y="250"/>
			<point x="430" y="250" type="curve" smooth="yes"/>
			<point x="364" y="250"/>
			<point x="322" y="202"/>
			<point x="322" y="120" type="curve" smooth="yes"/>
			<point x="322" y="34"/>
			<point x="364" y="-12"/>
		</contour>
		<contour>
			<point x="430" y="14" type="curve" smooth="yes"/>
			<point x="384" y="14"/>
			<point x="352" y="50"/>
			<point x="352" y="120" type="curve" smooth="yes"/>
			<point x="352" y="186"/>
			<point x="384" y="224"/>
			<point x="430" y="224" type="curve" smooth="yes"/>
			<point x="476" y="224"/>
			<point x="508" y="186"/>
			<point x="508" y="120" type="curve" smooth="yes"/>
			<point x="508" y="50"/>
			<point x="476" y="14"/>
		</contour>
	</outline>
</glyph>
<glyph name="arrowdownright" format="1">
  <advance width="600"/>
  <unicode hex="2198"/>
  <outline>
    <contour>
      <point x="496" y="56" type="line"/>
      <point x="499" y="59" type="line"/>
      <point x="496" y="435" type="line"/>
      <point x="468" y="435" type="line"/>
      <point x="475" y="100" type="line"/>
      <point x="118" y="456" type="line"/>
      <point x="99" y="437" type="line"/>
      <point x="455" y="80" type="line"/>
      <point x="120" y="87" type="line"/>
      <point x="120" y="59" type="line"/>
    </contour>
  </outline>
</glyph>
<glyph name="arrowdblright" format="1">
  <advance width="600"/>
  <unicode hex="21D2"/>
  <outline>
    <contour>
      <point x="310" y="-14" type="line"/>
      <point x="578" y="250" type="line"/>
      <point x="578" y="254" type="line"/>
      <point x="310" y="518" type="line"/>
      <point x="290" y="498" type="line"/>
      <point x="544" y="254" type="line"/>
      <point x="544" y="250" type="line"/>
      <point x="290" y="6" type="line"/>
    </contour>
    <contour>
      <point x="28" y="138" type="line"/>
      <point x="462" y="138" type="line"/>
      <point x="462" y="166" type="line"/>
      <point x="28" y="166" type="line"/>
    </contour>
    <contour>
      <point x="28" y="338" type="line"/>
      <point x="462" y="338" type="line"/>
      <point x="462" y="366" type="line"/>
      <point x="28" y="366" type="line"/>
    </contour>
  </outline>
</glyph>
<glyph name="arrowdbldown" format="1">
  <advance width="600"/>
  <unicode hex="21D3"/>
  <outline>
    <contour>
      <point x="298" y="-24" type="line"/>
      <point x="302" y="-24" type="line"/>
      <point x="566" y="244" type="line"/>
      <point x="546" y="264" type="line"/>
      <point x="302" y="10" type="line"/>
      <point x="298" y="10" type="line"/>
      <point x="54" y="264" type="line"/>
      <point x="34" y="244" type="line"/>
    </contour>
    <contour>
      <point x="186" y="92" type="line"/>
      <point x="214" y="92" type="line"/>
      <point x="214" y="526" type="line"/>
      <point x="186" y="526" type="line"/>
    </contour>
    <contour>
      <point x="386" y="92" type="line"/>
      <point x="414" y="92" type="line"/>
      <point x="414" y="526" type="line"/>
      <point x="386" y="526" type="line"/>
    </contour>
  </outline>
</glyph>
<glyph name="orthogonal" format="1">
  <advance width="600"/>
  <unicode hex="221F"/>
  <outline>
    <contour>
      <point x="98" y="112" type="line"/>
      <point x="502" y="112" type="line"/>
      <point x="502" y="140" type="line"/>
      <point x="130" y="140" type="line"/>
      <point x="130" y="548" type="line"/>
      <point x="98" y="548" type="line"/>
    </contour>
  </outline>
</glyph>
<glyph name="ceilingleft" format="1">
	<unicode hex="231C"/>
	<advance width="600"/>
	<outline>
		<contour>
			<point x="246" y="0" type="line"/>
			<point x="274" y="0" type="line"/>
			<point x="274" y="666" type="line"/>
			<point x="506" y="666" type="line"/>
			<point x="506" y="688" type="line"/>
			<point x="246" y="688" type="line"/>
		</contour>
	</outline>
</glyph>
<glyph name="floorleft" format="1">
  <advance width="600"/>
  <unicode hex="231E"/>
  <outline>
    <contour>
      <point x="246" y="-48" type="line"/>
      <point x="506" y="-48" type="line"/>
      <point x="506" y="-26" type="line"/>
      <point x="274" y="-26" type="line"/>
      <point x="274" y="640" type="line"/>
      <point x="246" y="640" type="line"/>
    </contour>
  </outline>
</glyph>
<glyph name="floorright" format="1">
  <advance width="600"/>
  <unicode hex="231F"/>
  <outline>
    <contour>
      <point x="94" y="-48" type="line"/>
      <point x="354" y="-48" type="line"/>
      <point x="354" y="640" type="line"/>
      <point x="326" y="640" type="line"/>
      <point x="326" y="-26" type="line"/>
      <point x="94" y="-26" type="line"/>
    </contour>
  </outline>
</glyph>
<glyph name="integraltp" format="1">
  <advance width="600"/>
  <unicode hex="2320"/>
  <outline>
    <contour>
      <point x="314" y="-400" type="line"/>
      <point x="316" y="576" type="line"/>
      <point x="316" y="686"/>
      <point x="326" y="760"/>
      <point x="384" y="760" type="curve" smooth="yes"/>
      <point x="398" y="760"/>
      <point x="410" y="758"/>
      <point x="418" y="756" type="curve"/>
      <point x="424" y="782" type="line"/>
      <point x="418" y="786"/>
      <point x="402" y="788"/>
      <point x="386" y="788" type="curve" smooth="yes"/>
      <point x="304" y="788"/>
      <point x="286" y="694"/>
      <point x="286" y="574" type="curve"/>
      <point x="286" y="-400" type="line"/>
    </contour>
  </outline>
</glyph>
<glyph name="integralbt" format="1">
  <advance width="600"/>
  <unicode hex="2321"/>
  <outline>
    <contour>
      <point x="216" y="-158" type="curve" smooth="yes"/>
      <point x="296" y="-158"/>
      <point x="314" y="-66"/>
      <point x="314" y="56" type="curve"/>
      <point x="316" y="1000" type="line"/>
      <point x="286" y="1000" type="line"/>
      <point x="286" y="52" type="line"/>
      <point x="286" y="-58"/>
      <point x="276" y="-130"/>
      <point x="216" y="-130" type="curve" smooth="yes"/>
      <point x="202" y="-130"/>
      <point x="190" y="-128"/>
      <point x="182" y="-126" type="curve"/>
      <point x="176" y="-152" type="line"/>
      <point x="184" y="-156"/>
      <point x="198" y="-158"/>
    </contour>
  </outline>
</glyph>
<glyph name="lightdnrightbxd" format="1">
  <advance width="600"/>
  <unicode hex="250C"/>
  <outline>
    <contour>
      <point x="285" y="-400" type="line"/>
      <point x="315" y="-400" type="line"/>
      <point x="315" y="285" type="line"/>
      <point x="615" y="285" type="line"/>
      <point x="615" y="315" type="line"/>
      <point x="285" y="315" type="line"/>
    </contour>
  </outline>
</glyph>
<glyph name="dnlightleftheavybxd" format="1">
  <advance width="600"/>
  <unicode hex="2511"/>
  <outline>
    <contour>
      <point x="-15" y="270" type="line"/>
      <point x="285" y="270" type="line"/>
      <point x="285" y="-400" type="line"/>
      <point x="315" y="-400" type="line"/>
      <point x="315" y="330" type="line"/>
      <point x="-15" y="330" type="line"/>
    </contour>
  </outline>
</glyph>
<glyph name="dnheavyleftlightbxd" format="1">
	<unicode hex="2512"/>
	<advance width="600"/>
	<outline>
		<contour>
			<point x="330" y="-400" type="line"/>
			<point x="330" y="315" type="line"/>
			<point x="-15" y="315" type="line"/>
			<point x="-15" y="285" type="line"/>
			<point x="270" y="285" type="line"/>
			<point x="270" y="-400" type="line"/>
		</contour>
	</outline>
</glyph>
<glyph name="uplightrightheavybxd" format="1">
  <advance width="600"/>
  <unicode hex="2515"/>
  <outline>
    <contour>
      <point x="285" y="270" type="line"/>
      <point x="615" y="270" type="line"/>
      <point x="615" y="330" type="line"/>
      <point x="315" y="330" type="line"/>
      <point x="315" y="1000" type="line"/>
      <point x="285" y="1000" type="line"/>
    </contour>
  </outline>
</glyph>
<glyph name="heavyupleftbxd" format="1">
  <advance width="600"/>
  <unicode hex="251B"/>
  <outline>
    <contour>
      <point x="-15" y="270" type="line"/>
      <point x="330" y="270" type="line"/>
      <point x="330" y="1000" type="line"/>
      <point x="270" y="1000" type="line"/>
      <point x="270" y="330" type="line"/>
      <point x="-15" y="330" type="line"/>
    </contour>
  </outline>
</glyph>
<glyph name="uplightrightdnheavybxd" format="1">
  <advance width="600"/>
  <unicode hex="2522"/>
  <outline>
    <contour>
      <point x="270" y="-400" type="line"/>
      <point x="330" y="-400" type="line"/>
      <point x="330" y="270" type="line"/>
      <point x="615" y="270" type="line"/>
      <point x="615" y="330" type="line"/>
      <point x="315" y="330" type="line"/>
      <point x="315" y="1000" type="line"/>
      <point x="285" y="1000" type="line"/>
      <point x="285" y="330" type="line"/>
      <point x="270" y="330" type="line"/>
    </contour>
  </outline>
</glyph>
<glyph name="uplightleftdnheavybxd" format="1">
  <advance width="600"/>
  <unicode hex="252A"/>
  <outline>
    <contour>
      <point x="-15" y="270" type="line"/>
      <point x="270" y="270" type="line"/>
      <point x="270" y="-400" type="line"/>
      <point x="330" y="-400" type="line"/>
      <point x="330" y="330" type="line"/>
      <point x="315" y="330" type="line"/>
      <point x="315" y="1000" type="line"/>
      <point x="285" y="1000" type="line"/>
      <point x="285" y="330" type="line"/>
      <point x="-15" y="330" type="line"/>
    </contour>
  </outline>
</glyph>
<glyph name="lightdnhorzbxd" format="1">
  <advance width="600"/>
  <unicode hex="252C"/>
  <outline>
    <contour>
      <point x="-15" y="285" type="line"/>
      <point x="285" y="285" type="line"/>
      <point x="285" y="-400" type="line"/>
      <point x="315" y="-400" type="line"/>
      <point x="315" y="285" type="line"/>
      <point x="615" y="285" type="line"/>
      <point x="615" y="315" type="line"/>
      <point x="-15" y="315" type="line"/>
    </contour>
  </outline>
</glyph>
<glyph name="leftlightrightdnheavybxd" format="1">
	<unicode hex="2532"/>
	<advance width="600"/>
	<outline>
		<contour>
			<point x="-15" y="285" type="line"/>
			<point x="270" y="285" type="line"/>
			<point x="270" y="-400" type="line"/>
			<point x="330" y="-400" type="line"/>
			<point x="330" y="270" type="line"/>
			<point x="615" y="270" type="line"/>
			<point x="615" y="330" type="line"/>
			<point x="270" y="330" type="line"/>
			<point x="270" y="315" type="line"/>
			<point x="-15" y="315" type="line"/>
		</contour>
	</outline>
</glyph>
<glyph name="heavydbldashhorzbxd" format="1">
  <advance width="600"/>
  <unicode hex="254D"/>
  <outline>
    <contour>
      <point x="75" y="270" type="line"/>
      <point x="225" y="270" type="line"/>
      <point x="225" y="330" type="line"/>
      <point x="75" y="330" type="line"/>
    </contour>
    <contour>
      <point x="375" y="270" type="line"/>
      <point x="525" y="270" type="line"/>
      <point x="525" y="330" type="line"/>
      <point x="375" y="330" type="line"/>
    </contour>
  </outline>
</glyph>
<glyph name="lightdbldashvertbxd" format="1">
	<unicode hex="254E"/>
	<advance width="600"/>
	<outline>
		<contour>
			<point x="285" y="-75" type="line"/>
			<point x="315" y="-75" type="line"/>
			<point x="315" y="175" type="line"/>
			<point x="285" y="175" type="line"/>
		</contour>
		<contour>
			<point x="285" y="425" type="line"/>
			<point x="315" y="425" type="line"/>
			<point x="315" y="675" type="line"/>
			<point x="285" y="675" type="line"/>
		</contour>
	</outline>
</glyph>
<glyph name="dblvertbxd" format="1">
  <advance width="600"/>
  <unicode hex="2551"/>
  <outline>
    <contour>
      <point x="255" y="-400" type="line"/>
      <point x="285" y="-400" type="line"/>
      <point x="285" y="1000" type="line"/>
      <point x="255" y="1000" type="line"/>
    </contour>
    <contour>
      <point x="315" y="-400" type="line"/>
      <point x="345" y="-400" type="line"/>
      <point x="345" y="1000" type="line"/>
      <point x="315" y="1000" type="line"/>
    </contour>
  </outline>
</glyph>
<glyph name="dnsngrightdblbxd" format="1">
  <advance width="600"/>
  <unicode hex="2552"/>
  <outline>
    <contour>
      <point x="285" y="-400" type="line"/>
      <point x="315" y="-400" type="line"/>
      <point x="315" y="255" type="line"/>
      <point x="615" y="255" type="line"/>
      <point x="615" y="285" type="line"/>
      <point x="315" y="285" type="line"/>
      <point x="315" y="315" type="line"/>
      <point x="615" y="315" type="line"/>
      <point x="615" y="345" type="line"/>
      <point x="285" y="345" type="line"/>
    </contour>
  </outline>
</glyph>
<glyph name="dndblhorzsngbxd" format="1">
	<unicode hex="2565"/>
	<advance width="600"/>
	<outline>
		<contour>
			<point x="315" y="-400" type="line"/>
			<point x="345" y="-400" type="line"/>
			<point x="345" y="285" type="line"/>
			<point x="615" y="285" type="line"/>
			<point x="615" y="315" type="line"/>
			<point x="-15" y="315" type="line"/>
			<point x="-15" y="285" type="line"/>
			<point x="255" y="285" type="line"/>
			<point x="255" y="-400" type="line"/>
			<point x="285" y="-400" type="line"/>
			<point x="285" y="285" type="line"/>
			<point x="315" y="285" type="line"/>
		</contour>
	</outline>
</glyph>
<glyph name="heavyrightbxd" format="1">
  <advance width="600"/>
  <unicode hex="257A"/>
  <outline>
    <contour>
      <point x="285" y="270" type="line"/>
      <point x="615" y="270" type="line"/>
      <point x="615" y="330" type="line"/>
      <point x="285" y="330" type="line"/>
    </contour>
  </outline>
</glyph>
<glyph name="squareblack" format="1">
  <advance width="600"/>
  <unicode hex="25A0"/>
  <outline>
    <contour>
      <point x="54" y="104" type="line"/>
      <point x="546" y="104" type="line"/>
      <point x="546" y="596" type="line"/>
      <point x="54" y="596" type="line"/>
    </contour>
  </outline>
</glyph>
<glyph name="bulletsquare" format="1">
	<unicode hex="25AA"/>
	<advance width="600"/>
	<outline>
		<contour>
			<point x="180" y="142" type="line"/>
			<point x="420" y="142" type="line"/>
			<point x="420" y="382" type="line"/>
			<point x="180" y="382" type="line"/>
		</contour>
	</outline>
</glyph>
<glyph name="invbullet" format="1">
  <advance width="600"/>
  <unicode hex="25D8"/>
  <outline>
    <contour>
      <point x="160" y="122" type="line"/>
      <point x="440" y="122" type="line"/>
      <point x="440" y="402" type="line"/>
      <point x="160" y="402" type="line"/>
    </contour>
    <contour>
      <point x="300" y="134" type="curve" smooth="yes"/>
      <point x="226" y="134"/>
      <point x="172" y="188"/>
      <point x="172" y="262" type="curve" smooth="yes"/>
      <point x="172" y="336"/>
      <point x="226" y="390"/>
      <point x="300" y="390" type="curve" smooth="yes"/>
      <point x="374" y="390"/>
      <point x="428" y="336"/>
      <point x="428" y="262" type="curve" smooth="yes"/>
      <point x="428" y="188"/>
      <point x="374" y="134"/>
    </contour>
  </outline>
</glyph>
<glyph name="invsmileface" format="1">
  <advance width="600"/>
  <unicode hex="263B"/>
  <outline>
    <contour>
      <point x="300" y="68" type="curve" smooth="yes"/>
      <point x="454" y="68"/>
      <point x="560" y="180"/>
      <point x="560" y="330" type="curve" smooth="yes"/>
      <point x="560" y="480"/>
      <point x="454" y="592"/>
      <point x="300" y="592" type="curve" smooth="yes"/>
      <point x="146" y="592"/>
      <point x="40" y="480"/>
      <point x="40" y="330" type="curve" smooth="yes"/>
      <point x="40" y="180"/>
      <point x="146" y="68"/>
    </contour>
    <contour>
      <point x="222" y="346" type="curve" smooth="yes"/>
      <point x="194" y="346"/>
      <point x="178" y="372"/>
      <point x="178" y="404" type="curve" smooth="yes"/>
      <point x="178" y="436"/>
      <point x="194" y="462"/>
      <point x="222" y="462" type="curve" smooth="yes"/>
      <point x="250" y="462"/>
      <point x="266" y="436"/>
      <point x="266" y="404" type="curve" smooth="yes"/>
      <point x="266" y="372"/>
      <point x="250" y="346"/>
    </contour>
    <contour>
      <point x="378" y="346" type="curve" smooth="yes"/>
      <point x="350" y="346"/>
      <point x="334" y="372"/>
      <point x="334" y="404" type="curve" smooth="yes"/>
      <point x="334" y="436"/>
      <point x="350" y="462"/>
      <point x="378" y="462" type="curve" smooth="yes"/>
      <point x="406" y="462"/>
      <point x="422" y="436"/>
      <point x="422" y="404" type="curve" smooth="yes"/>
      <point x="422" y="372"/>
      <point x="406" y="346"/>
    </contour>
    <contour>
      <point x="300" y="154" type="curve" smooth="yes"/>
      <point x="212" y="154"/>
      <point x="154" y="202"/>
      <point x="144" y="288" type="curve"/>
      <point x="168" y="296" type="line"/>
      <point x="188" y="236"/>
      <point x="236" y="210"/>
      <point x="300" y="210" type="curve" smooth="yes"/>
      <point x="364" y="210"/>
      <point x="412" y="236"/>
      <point x="432" y="296" type="curve"/>
      <point x="456" y="288" type="line"/>
      <point x="446" y="202"/>
      <point x="388" y="154"/>
    </contour>
  </outline>
</glyph>
<glyph name="sun" format="1">
  <advance width="600"/>
  <unicode hex="263C"/>
  <outline>
    <contour>
      <point x="300" y="152" type="curve" smooth="yes"/>
      <point x="406" y="152"/>
      <point x="480" y="228"/>
      <point x="480" y="330" type="curve" smooth="yes"/>
      <point x="480" y="432"/>
      <point x="406" y="508"/>
      <point x="300" y="508" type="curve" smooth="yes"/>
      <point x="194" y="508"/>
      <point x="120" y="432"/>
      <point x="120" y="330" type="curve" smooth="yes"/>
      <point x="120" y="228"/>
      <point x="194" y="152"/>
    </contour>
    <contour>
      <point x="300" y="180" type="curve" smooth="yes"/>
      <point x="214" y="180"/>
      <point x="152" y="242"/>
      <point x="152" y="330" type="curve" smooth="yes"/>
      <point x="152" y="418"/>
      <point x="214" y="480"/>
      <point x="300" y="480" type="curve" smooth="yes"/>
      <point x="386" y="480"/>
      <point x="448" y="418"/>
      <point x="448" y="330" type="curve" smooth="yes"/>
      <point x="448" y="242"/>
      <point x="386" y="180"/>
    </contour>
    <contour>
      <point x="284" y="490" type="line"/>
      <point x="316" y="490" type="line"/>
      <point x="316" y="630" type="line"/>
      <point x="284" y="630" type="line"/>
    </contour>
    <contour>
      <point x="170" y="436" type="line"/>
      <point x="190" y="456" type="line"/>
      <point x="88" y="560" type="line"/>
      <point x="68" y="540" type="line"/>
    </contour>
    <contour>
      <point x="428" y="438" type="line"/>
      <point x="532" y="540" type="line"/>
      <point x="512" y="560" type="line"/>
      <point x="408" y="458" type="line"/>
    </contour>
    <contour>
      <point x="4" y="316" type="line"/>
      <point x="144" y="316" type="line"/>
      <point x="144" y="344" type="line"/>
      <point x="4" y="344" type="line"/>
    </contour>
    <contour>
      <point x="456" y="316" type="line"/>
      <point x="596" y="316" type="line"/>
      <point x="596" y="344" type="line"/>
      <point x="456" y="344" type="line"/>
    </contour>
    <contour>
      <point x="88" y="98" type="line"/>
      <point x="192" y="200" type="line"/>
      <point x="172" y="220" type="line"/>
      <point x="68" y="118" type="line"/>
    </contour>
    <contour>
      <point x="512" y="98" type="line"/>
      <point x="532" y="118" type="line"/>
      <point x="430" y="222" type="line"/>
      <point x="410" y="202" type="line"/>
    </contour>
    <contour>
      <point x="284" y="30" type="line"/>
      <point x="316" y="30" type="line"/>
      <point x="316" y="170" type="line"/>
      <point x="284" y="170" type="line"/>
    </contour>
  </outline>
</glyph>
<glyph name="female" format="1">
  <advance width="600"/>
  <unicode hex="2640"/>
  <outline>
    <contour>
      <point x="300" y="258" type="curve" smooth="yes"/>
      <point x="428" y="258"/>
      <point x="528" y="354"/>
      <point x="528" y="482" type="curve" smooth="yes"/>
      <point x="528" y="610"/>
      <point x="428" y="706"/>
      <point x="300" y="706" type="curve" smooth="yes"/>
      <point x="172" y="706"/>
      <point x="72" y="610"/>
      <point x="72" y="482" type="curve" smooth="yes"/>
      <point x="72" y="354"/>
      <point x="172" y="258"/>
    </contour>
    <contour>
      <point x="300" y="286" type="curve" smooth="yes"/>
      <point x="190" y="286"/>
      <point x="104" y="366"/>
      <point x="104" y="482" type="curve" smooth="yes"/>
      <point x="104" y="598"/>
      <point x="190" y="678"/>
      <point x="300" y="678" type="curve" smooth="yes"/>
      <point x="410" y="678"/>
      <point x="496" y="598"/>
      <point x="496" y="482" type="curve" smooth="yes"/>
      <point x="496" y="366"/>
      <point x="410" y="286"/>
    </contour>
    <contour>
      <point x="284" y="-38" type="line"/>
      <point x="316" y="-38" type="line"/>
      <point x="316" y="106" type="line"/>
      <point x="462" y="106" type="line"/>
      <point x="462" y="134" type="line"/>
      <point x="316" y="134" type="line"/>
      <point x="316" y="278" type="line"/>
      <point x="284" y="278" type="line"/>
      <point x="284" y="134" type="line"/>
      <point x="138" y="134" type="line"/>
      <point x="138" y="106" type="line"/>
      <point x="284" y="106" type="line"/>
    </contour>
  </outline>
</glyph>
<glyph name="club" format="1">
  <advance width="600"/>
  <unicode hex="2663"/>
  <outline>
    <contour>
      <point x="112" y="-106" type="line"/>
      <point x="488" y="-106" type="line"/>
      <point x="488" y="-80" type="line"/>
      <point x="398" y="-66"/>
      <point x="332" y="-18"/>
      <point x="312" y="166" type="curve"/>
      <point x="288" y="166" type="line"/>
      <point x="268" y="-18"/>
      <point x="202" y="-66"/>
      <point x="112" y="-80" type="curve"/>
    </contour>
    <contour>
      <point x="146" y="52" type="curve" smooth="yes"/>
      <point x="198" y="52"/>
      <point x="250" y="73"/>
      <point x="278" y="142" type="curve"/>
      <point x="322" y="142" type="line"/>
      <point x="350" y="73"/>
      <point x="402" y="52"/>
      <point x="454" y="52" type="curve" smooth="yes"/>
      <point x="533" y="52"/>
      <point x="584" y="112"/>
      <point x="584" y="198" type="curve" smooth="yes"/>
      <point x="584" y="296"/>
      <point x="524" y="350"/>
      <point x="448" y="350" type="curve" smooth="yes"/>
      <point x="423" y="350"/>
      <point x="412" y="348"/>
      <point x="376" y="334" type="curve"/>
      <point x="372" y="338" type="line"/>
      <point x="439" y="397"/>
      <point x="444" y="451"/>
      <point x="444" y="484" type="curve" smooth="yes"/>
      <point x="444" y="556"/>
      <point x="380" y="610"/>
      <point x="300" y="610" type="curve" smooth="yes"/>
      <point x="220" y="610"/>
      <point x="156" y="556"/>
      <point x="156" y="484" type="curve" smooth="yes"/>
      <point x="156" y="451"/>
      <point x="161" y="397"/>
      <point x="228" y="338" type="curve"/>
      <point x="224" y="334" type="line"/>
      <point x="188" y="348"/>
      <point x="177" y="350"/>
      <point x="152" y="350" type="curve" smooth="yes"/>
      <point x="76" y="350"/>
      <point x="16" y="296"/>
      <point x="16" y="198" type="curve" smooth="yes"/>
      <point x="16" y="112"/>
      <point x="68" y="52"/>
    </contour>
  </outline>
</glyph>
<glyph name="heart" format="1">
  <advance width="600"/>
  <unicode hex="2665"/>
  <outline>
    <contour>
      <point x="302" y="-118" type="line"/>
      <point x="544" y="144"/>
      <point x="584" y="264"/>
      <point x="584" y="412" type="curve" smooth="yes"/>
      <point x="584" y="538"/>
      <point x="524" y="610"/>
      <point x="444" y="610" type="curve" smooth="yes"/>
      <point x="382" y="610"/>
      <point x="330" y="578"/>
      <point x="302" y="490" type="curve"/>
      <point x="298" y="490" type="line"/>
      <point x="270" y="578"/>
      <point x="220" y="610"/>
      <point x="156" y="610" type="curve" smooth="yes"/>
      <point x="76" y="610"/>
      <point x="16" y="538"/>
      <point x="16" y="412" type="curve" smooth="yes"/>
      <point x="16" y="264"/>
      <point x="56" y="144"/>
      <point x="298" y="-118" type="curve"/>
    </contour>
  </outline>
</glyph>
<glyph name="diamond" format="1">
  <advance width="600"/>
  <unicode hex="2666"/>
  <outline>
    <contour>
      <point x="302" y="-118" type="line"/>
      <point x="588" y="250" type="line"/>
      <point x="588" y="254" type="line"/>
      <point x="302" y="622" type="line"/>
      <point x="298" y="622" type="line"/>
      <point x="12" y="254" type="line"/>
      <point x="12" y="250" type="line"/>
      <point x="298" y="-118" type="line"/>
    </contour>
  </outline>
</glyph>
<glyph name="squareshadow" format="1">
  <advance width="600"/>
  <unicode hex="2752"/>
  <outline>
    <contour>
      <point x="88" y="118" type="line"/>
      <point x="472" y="118" type="line"/>
      <point x="512" y="162" type="line"/>
      <point x="512" y="542" type="line"/>
      <point x="136" y="542" type="line"/>
      <point x="88" y="504" type="line"/>
    </contour>
    <contour>
      <point x="116" y="144" type="line"/>
      <point x="116" y="486" type="line"/>
      <point x="454" y="486" type="line"/>
      <point x="454" y="144" type="line"/>
    </contour>
  </outline>
</glyph>
<glyph name="brackhalftopleft" format="1">
	<unicode hex="2E22"/>
	<advance width="600"/>
	<outline>
		<contour>
			<point x="246" y="278" type="line"/>
			<point x="274" y="278" type="line"/>
			<point x="274" y="686" type="line"/>
			<point x="506" y="686" type="line"/>
			<point x="506" y="708" type="line"/>
			<point x="246" y="708" type="line"/>
		</contour>
	</outline>
</glyph>
<glyph name="uniE0A0" format="1">
  <advance width="600"/>
  <unicode hex="E0A0"/>
  <outline>
    <contour>
      <point x="158" y="-280" type="line"/>
      <point x="158" y="-2" type="line" smooth="yes"/>
      <point x="158" y="280"/>
      <point x="474" y="176"/>
      <point x="474" y="480" type="curve" smooth="yes"/>
      <point x="474" y="725" type="line"/>
      <point x="594" y="725" type="line"/>
      <point x="460" y="900" type="line"/>
      <point x="324" y="725" type="line"/>
      <point x="444" y="725" type="line"/>
      <point x="444" y="482" type="line" smooth="yes"/>
      <point x="444" y="196"/>
      <point x="128" y="299"/>
      <point x="128" y="0" type="curve" smooth="yes"/>
      <point x="128" y="-280" type="line"/>
    </contour>
    <contour>
      <point x="158" y="364" type="line"/>
      <point x="158" y="1060" type="line"/>
      <point x="128" y="1060" type="line"/>
      <point x="128" y="340" type="line"/>
    </contour>
  </outline>
</glyph>
<glyph name="uniE0A1" format="1">
  <advance width="600"/>
  <unicode hex="E0A1"/>
  <outline>
    <contour>
      <point x="98" y="360" type="line"/>
      <point x="366" y="360" type="line"/>
      <point x="366" y="388" type="line"/>
      <point x="128" y="388" type="line"/>
      <point x="128" y="840" type="line"/>
      <point x="98" y="840" type="line"/>
    </contour>
    <contour>
      <point x="224" y="-246" type="line"/>
      <point x="254" y="-246" type="line"/>
      <point x="254" y="-14" type="line"/>
      <point x="252" y="172" type="line"/>
      <point x="471" y="-246" type="line"/>
      <point x="502" y="-246" type="line"/>
      <point x="502" y="232" type="line"/>
      <point x="472" y="232" type="line"/>
      <point x="472" y="18" type="line"/>
      <point x="474" y="-192" type="line"/>
      <point x="254" y="232" type="line"/>
      <point x="224" y="232" type="line"/>
    </contour>
  </outline>
</glyph>
<glyph name="uniE0A1" format="1">
  <advance width="600"/>
  <unicode hex="E0A1"/>
  <outline>
    <contour>
      <point x="98" y="440" type="line"/>
      <point x="366" y="440" type="line"/>
      <point x="366" y="468" type="line"/>
      <point x="128" y="468" type="line"/>
      <point x="128" y="920" type="line"/>
      <point x="98" y="920" type="line"/>
    </contour>
    <contour>
      <point x="224" y="-166" type="line"/>
      <point x="254" y="-166" type="line"/>
      <point x="254" y="66" type="line"/>
      <point x="250" y="252" type="line"/>
      <point x="254" y="252" type="line"/>
      <point x="469" y="-166" type="line"/>
      <point x="502" y="-166" type="line"/>
      <point x="502" y="312" type="line"/>
      <point x="472" y="312" type="line"/>
      <point x="472" y="98" type="line"/>
      <point x="476" y="-112" type="line"/>
      <point x="472" y="-112" type="line"/>
      <point x="256" y="312" type="line"/>
      <point x="224" y="312" type="line"/>
    </contour>
  </outline>
</glyph>
